<svg id="Layer_1" data-name="Layer 1" xmlns="http://www.w3.org/2000/svg" xmlns:xlink="http://www.w3.org/1999/xlink" viewBox="0 0 339.64 88.66"><defs><style>.cls-1{fill:#fff;}.cls-2,.cls-3{fill-rule:evenodd;}.cls-2{fill:url(#GradientFill_1);}.cls-3{fill:url(#GradientFill_1-2);}</style><linearGradient id="GradientFill_1" x1="119.07" y1="11.2" x2="11.82" y2="70.65" gradientUnits="userSpaceOnUse"><stop offset="0" stop-color="#f48120"/><stop offset="1" stop-color="#f9a51a"/></linearGradient><linearGradient id="GradientFill_1-2" x1="-25.27" y1="74.61" x2="81.98" y2="15.16" xlink:href="#GradientFill_1"/></defs><title>coingi_logo_white</title><path class="cls-1" d="M112.82,51.29V45.66a14.5,14.5,0,0,1,3.8-10.45q3.81-4,11.4-4a17.2,17.2,0,0,1,8,1.69q3.22,1.68,3.23,3.8a5.06,5.06,0,0,1-1.05,3,3.07,3.07,0,0,1-2.54,1.48,10.6,10.6,0,0,1-2.49-.95,10.7,10.7,0,0,0-4.47-1q-6.82,0-6.83,6.43v5.58q0,6.42,6.9,6.43a9.78,9.78,0,0,0,4.43-1,8.61,8.61,0,0,1,2.61-1,3.38,3.38,0,0,1,2.78,1.41,4.69,4.69,0,0,1,1.09,2.88c0,1.46-1.14,2.78-3.42,4a17.48,17.48,0,0,1-8.2,1.79q-7.66,0-11.47-3.94t-3.8-10.48Zm30.4,0V45.51a13.36,13.36,0,0,1,4.51-10,15.12,15.12,0,0,1,10.77-4.26,15.28,15.28,0,0,1,10.69,4.22,13.25,13.25,0,0,1,4.58,10.06v5.78a13.53,13.53,0,0,1-4.58,10.06,15.3,15.3,0,0,1-21.39,0,13.53,13.53,0,0,1-4.58-10.06Zm9.08,0a6.35,6.35,0,0,0,1.83,4.47,5.8,5.8,0,0,0,8.69,0,6.26,6.26,0,0,0,1.87-4.47V45.54a6.1,6.1,0,0,0-1.87-4.33,5.83,5.83,0,0,0-8.69,0,6.13,6.13,0,0,0-1.83,4.36v5.72ZM179,20.18a3.54,3.54,0,0,1,1.51-2.84,5.75,5.75,0,0,1,3.68-1.17,5,5,0,0,1,3.35,1.17,3.56,3.56,0,0,1,0,5.64,4.91,4.91,0,0,1-3.35,1.21A5.61,5.61,0,0,1,180.55,23a3.55,3.55,0,0,1-1.51-2.8Zm.85,42V34.47a2.33,2.33,0,0,1,1.22-2,5.65,5.65,0,0,1,3.11-.78,5.82,5.82,0,0,1,3.14.78,2.33,2.33,0,0,1,1.26,2V62.19a2.5,2.5,0,0,1-1.32,2,5.28,5.28,0,0,1-3.08.92,5.21,5.21,0,0,1-3.08-.88,2.49,2.49,0,0,1-1.25-2Zm15.76,0V34.47a2.32,2.32,0,0,1,1.23-2,6.1,6.1,0,0,1,3.28-.78,5,5,0,0,1,2.85.79,2.36,2.36,0,0,1,1.16,2.05v2.13a9.58,9.58,0,0,1,3.62-3.83,10.66,10.66,0,0,1,5.81-1.56,10.9,10.9,0,0,1,8.48,4.22,15,15,0,0,1,3.62,10.06V62.19a2.33,2.33,0,0,1-1.37,2.11,6.35,6.35,0,0,1-3.2.78A6.21,6.21,0,0,1,218,64.3a2.34,2.34,0,0,1-1.38-2.1V45.57a6.16,6.16,0,0,0-1.83-4.38,5.73,5.73,0,0,0-4.29-1.94,5.48,5.48,0,0,0-4,1.76,6.22,6.22,0,0,0-1.73,4.56V62.2a2.48,2.48,0,0,1-1.37,2,5.64,5.64,0,0,1-3.2.92,5.53,5.53,0,0,1-3.2-.88,2.48,2.48,0,0,1-1.31-2Zm35.54,10.49q0-5.57,6.41-7.81-4.31-1.2-4.3-5,0-3.24,3.45-4.85a11.24,11.24,0,0,1-3.66-8.87V43a11.47,11.47,0,0,1,3.13-8.34,11,11,0,0,1,8.2-3.2,11.1,11.1,0,0,1,8.38,3.38,10.06,10.06,0,0,1,2.46-3.06,4.48,4.48,0,0,1,2.81-1.23c1,0,1.48.46,1.48,1.4a1.25,1.25,0,0,1-1.26,1.34q-2.53,0-4.23,3.24A10.84,10.84,0,0,1,255.82,43v3.17a11.5,11.5,0,0,1-3.2,8.37,11,11,0,0,1-8.27,3.31,11.19,11.19,0,0,1-5.77-1.48c-1.88.85-2.81,2-2.81,3.38a2.65,2.65,0,0,0,1.66,2.44,12.25,12.25,0,0,0,4.14,1.14c1.66.18,3.44.38,5.34.61a38.84,38.84,0,0,1,5.34,1,8,8,0,0,1,4.1,2.52A7.07,7.07,0,0,1,258,72.26a8.11,8.11,0,0,1-3.51,7q-3.53,2.49-9.65,2.5t-9.92-2.47a7.58,7.58,0,0,1-3.73-6.61Zm2.46-.21a5.85,5.85,0,0,0,3,5.1q3,1.94,8.19,1.94t7.92-1.94a6.06,6.06,0,0,0,2.78-5.23,4.73,4.73,0,0,0-.81-2.78,5.89,5.89,0,0,0-1.93-1.8,11.4,11.4,0,0,0-2.85-1,22.85,22.85,0,0,0-3.1-.56c-.92-.1-2-.19-3.2-.3s-2.09-.2-2.61-.29q-7.38,2.12-7.39,6.9Zm1.9-26.39a9.46,9.46,0,0,0,2.4,6.68,9.37,9.37,0,0,0,13,0,9.3,9.3,0,0,0,2.43-6.61V43A9.19,9.19,0,0,0,251,36.47a8.53,8.53,0,0,0-6.55-2.57A8.41,8.41,0,0,0,238,36.47a9.15,9.15,0,0,0-2.4,6.51v3.1Zm29.17-25.86a2.2,2.2,0,0,1-.66-1.59,2.08,2.08,0,0,1,.66-1.55,2.25,2.25,0,0,1,1.59-.63,2.15,2.15,0,0,1,2.18,2.18,2.25,2.25,0,0,1-.63,1.59,2.08,2.08,0,0,1-1.55.66,2.2,2.2,0,0,1-1.59-.66Zm.39,43.59V33.06a1.2,1.2,0,0,1,1.2-1.2q1.26,0,1.26,1.2V63.81a1.32,1.32,0,0,1-1.26,1.27,1.12,1.12,0,0,1-.85-.39,1.29,1.29,0,0,1-.35-.88Zm9.42,1.13a1.19,1.19,0,0,1-.41-.9,1.2,1.2,0,0,1,.39-.9,1.45,1.45,0,0,1,1-.37,1.4,1.4,0,0,1,1,.37,1.17,1.17,0,0,1,0,1.78,1.33,1.33,0,0,1-1,.39,1.42,1.42,0,0,1-1-.37Zm6.16-6.74V53.51a7.27,7.27,0,0,1,1.82-5.15,6.91,6.91,0,0,1,5.33-2,7.62,7.62,0,0,1,3.64.8c1,.54,1.48,1,1.48,1.51a.62.62,0,0,1-.21.47.7.7,0,0,1-.49.19,1.47,1.47,0,0,1-.68-.39,6.67,6.67,0,0,0-1.43-.8,5.86,5.86,0,0,0-2.31-.41,5.25,5.25,0,0,0-5.78,5.75V58.2a5.26,5.26,0,0,0,5.82,5.74,6.25,6.25,0,0,0,2.44-.41,6.19,6.19,0,0,0,1.49-.8,1.49,1.49,0,0,1,.72-.39.68.68,0,0,1,.67.67c0,.49-.52,1-1.55,1.52a8.4,8.4,0,0,1-3.81.78,6.93,6.93,0,0,1-5.33-2,7.26,7.26,0,0,1-1.82-5.16Zm15.64,0V53.43a6.84,6.84,0,0,1,2.05-4.93,6.55,6.55,0,0,1,4.87-2.11,6.68,6.68,0,0,1,4.88,2.07,6.78,6.78,0,0,1,2.07,5V58.2a6.88,6.88,0,0,1-2.09,5,6.56,6.56,0,0,1-9.71,0,6.94,6.94,0,0,1-2.07-5Zm1.36,0a5.7,5.7,0,0,0,1.65,4,5.25,5.25,0,0,0,7.83,0,5.68,5.68,0,0,0,1.67-4V53.43a5.57,5.57,0,0,0-1.65-3.93,5.32,5.32,0,0,0-7.87,0,5.59,5.59,0,0,0-1.63,3.93V58.2Zm17.13,6.17V47.29a.58.58,0,0,1,.66-.66c.47,0,.71.22.71.66v2.07a5.6,5.6,0,0,1,5.24-3A6,6,0,0,1,325,47.47a6.66,6.66,0,0,1,2.33,2.83,7.08,7.08,0,0,1,2.58-2.91,6.23,6.23,0,0,1,3.36-1,6.14,6.14,0,0,1,4.52,1.92,7,7,0,0,1,1.89,5.12V64.37a.67.67,0,0,1-.21.49.66.66,0,0,1-.49.22.6.6,0,0,1-.47-.22.69.69,0,0,1-.19-.49V53.43a5.58,5.58,0,0,0-1.55-4.17,4.94,4.94,0,0,0-3.54-1.5,5.36,5.36,0,0,0-5.27,5.43V64.41c0,.45-.24.67-.71.67a.59.59,0,0,1-.66-.67V53.23a5.51,5.51,0,0,0-1.47-3.89,4.71,4.71,0,0,0-3.58-1.58,5.17,5.17,0,0,0-3.71,1.56,5.48,5.48,0,0,0-1.6,4.11V64.37a.76.76,0,0,1-.71.71.6.6,0,0,1-.47-.22A.69.69,0,0,1,314.82,64.37Z"/><path class="cls-2" d="M53.91,0C73.1,0,88.66,12.54,88.66,28S73.1,56,53.91,56c-.87,0-1.73,0-2.59-.08V48C92.39,46.74,91.43,4.53,52.93,0ZM87.5,58.33a22.51,22.51,0,0,1,.32,3.78c0,14.66-14.2,26.55-31.73,26.55a37.48,37.48,0,0,1-4.77-.3V80.8a39.41,39.41,0,0,0,4.77.3c16,0,29.22-9.9,31.41-22.77Zm0-16.7C85.31,54.51,72.08,64.4,56.09,64.4a37.48,37.48,0,0,1-4.77-.3v7.57a39.41,39.41,0,0,0,4.77.3c17.53,0,31.73-11.89,31.73-26.55A22.63,22.63,0,0,0,87.5,41.63Z"/><path class="cls-3" d="M34.74,88.66C15.56,88.66,0,76.12,0,60.66s15.56-28,34.74-28c.88,0,1.74,0,2.6.08v7.9c-41.07,1.28-40.11,43.49-1.61,48ZM1.16,30.33a22.51,22.51,0,0,1-.32-3.78C.84,11.89,15,0,32.57,0a37.48,37.48,0,0,1,4.77.3V7.86a39.41,39.41,0,0,0-4.77-.3c-16,0-29.22,9.9-31.41,22.77Zm0,16.7C3.35,34.15,16.58,24.26,32.57,24.26a37.48,37.48,0,0,1,4.77.3V17a39.41,39.41,0,0,0-4.77-.3C15,16.69.84,28.58.84,43.24A22.63,22.63,0,0,0,1.16,47Z"/></svg>