<?xml version="1.0" encoding="utf-8"?>
<!-- Generator: Adobe Illustrator 22.1.0, SVG Export Plug-In . SVG Version: 6.00 Build 0)  -->
<svg version="1.1" id="Layer_1" xmlns="http://www.w3.org/2000/svg" xmlns:xlink="http://www.w3.org/1999/xlink" x="0px" y="0px"
	 viewBox="0 0 339.6 88.7" style="enable-background:new 0 0 339.6 88.7;" xml:space="preserve">
<style type="text/css">
	.st0{fill:#2F3790;}
	.st1{fill:url(#SVGID_1_);}
	.st2{fill:url(#SVGID_2_);}
</style>
<title>coingi_logo_white</title>
<path class="st0" d="M112.8,51.3v-5.6c-0.2-3.8,1.2-7.6,3.8-10.5c2.5-2.7,6.3-4,11.4-4c2.8-0.1,5.5,0.5,8,1.7
	c2.1,1.1,3.2,2.4,3.2,3.8c0,1.1-0.4,2.1-1.1,3c-0.5,0.9-1.5,1.5-2.5,1.5c-0.9-0.2-1.7-0.5-2.5-1c-1.4-0.7-2.9-1-4.5-1
	c-4.5,0-6.8,2.1-6.8,6.4v5.6c0,4.3,2.3,6.4,6.9,6.4c1.5,0,3.1-0.3,4.4-1c0.8-0.5,1.7-0.8,2.6-1c1.1,0,2.1,0.5,2.8,1.4
	c0.7,0.8,1.1,1.8,1.1,2.9c0,1.5-1.1,2.8-3.4,4c-2.5,1.3-5.4,1.9-8.2,1.8c-5.1,0-8.9-1.3-11.5-3.9C114,59.2,112.8,55.7,112.8,51.3
	L112.8,51.3z M143.2,51.3v-5.8c0-3.8,1.6-7.5,4.5-10c2.9-2.8,6.8-4.3,10.8-4.3c4,0,7.8,1.5,10.7,4.2c2.9,2.5,4.6,6.2,4.6,10.1v5.8
	c0,3.9-1.7,7.5-4.6,10.1c-5.9,5.8-15.4,5.8-21.4,0C144.9,58.8,143.2,55.2,143.2,51.3L143.2,51.3z M152.3,51.3c0,1.7,0.7,3.3,1.8,4.5
	c2.1,2.4,5.8,2.6,8.2,0.5c0.2-0.2,0.3-0.3,0.5-0.5c1.2-1.2,1.9-2.8,1.9-4.5v-5.8c0-1.6-0.7-3.2-1.9-4.3c-2.1-2.4-5.8-2.6-8.2-0.5
	c-0.2,0.1-0.3,0.3-0.5,0.5c-1.2,1.2-1.8,2.7-1.8,4.4V51.3z M179,20.2c0-1.1,0.6-2.2,1.5-2.8c1.1-0.8,2.4-1.2,3.7-1.2
	c1.2,0,2.4,0.4,3.4,1.2c1.6,1.2,1.8,3.4,0.6,5c-0.2,0.2-0.4,0.5-0.6,0.6c-0.9,0.8-2.1,1.2-3.4,1.2c-1.3,0-2.6-0.4-3.6-1.2
	C179.6,22.4,179.1,21.3,179,20.2L179,20.2z M179.9,62.2V34.5c0-0.8,0.5-1.6,1.2-2c0.9-0.6,2-0.8,3.1-0.8c1.1,0,2.2,0.2,3.1,0.8
	c0.8,0.4,1.2,1.2,1.3,2v27.7c-0.1,0.8-0.6,1.6-1.3,2c-0.9,0.6-2,0.9-3.1,0.9c-1.1,0-2.2-0.3-3.1-0.9
	C180.4,63.8,179.9,63.1,179.9,62.2L179.9,62.2z M195.6,62.2V34.5c0-0.8,0.5-1.6,1.2-2c1-0.6,2.1-0.8,3.3-0.8c1,0,2,0.2,2.9,0.8
	c0.7,0.4,1.2,1.2,1.2,2v2.1c0.8-1.6,2.1-2.9,3.6-3.8c1.7-1.1,3.8-1.6,5.8-1.6c3.3,0,6.4,1.6,8.5,4.2c2.4,2.8,3.7,6.4,3.6,10.1v16.6
	c0,0.9-0.5,1.7-1.4,2.1c-1,0.5-2.1,0.8-3.2,0.8c-1.1,0-2.1-0.3-3.1-0.8c-0.8-0.4-1.4-1.2-1.4-2.1V45.6c0-1.6-0.7-3.2-1.8-4.4
	c-1.1-1.2-2.6-1.9-4.3-1.9c-1.5,0-3,0.6-4,1.8c-1.2,1.2-1.8,2.9-1.7,4.6v16.6c-0.1,0.9-0.6,1.6-1.4,2c-0.9,0.6-2.1,0.9-3.2,0.9
	c-1.1,0-2.2-0.3-3.2-0.9C196.2,63.8,195.8,63.1,195.6,62.2L195.6,62.2z M231.1,72.7c0-3.7,2.1-6.3,6.4-7.8c-2.9-0.8-4.3-2.5-4.3-5
	c0-2.2,1.1-3.8,3.4-4.8c-2.5-2.3-3.8-5.5-3.7-8.9V43c-0.1-3.1,1-6.1,3.1-8.3c2.2-2.2,5.1-3.3,8.2-3.2c3.1-0.1,6.2,1.1,8.4,3.4
	c0.6-1.2,1.4-2.2,2.5-3.1c0.8-0.7,1.8-1.2,2.8-1.2c1,0,1.5,0.5,1.5,1.4c0,0.7-0.5,1.3-1.2,1.3c0,0-0.1,0-0.1,0
	c-1.7,0-3.1,1.1-4.2,3.2c1.3,1.9,1.9,4.2,1.8,6.5v3.2c0.1,3.1-1,6.1-3.2,8.4c-2.2,2.2-5.2,3.4-8.3,3.3c-2,0-4-0.5-5.8-1.5
	c-1.9,0.8-2.8,2-2.8,3.4c0,1.1,0.7,2,1.7,2.4c1.3,0.6,2.7,1,4.1,1.1c1.7,0.2,3.4,0.4,5.3,0.6c1.8,0.2,3.6,0.5,5.3,1
	c1.6,0.4,3,1.3,4.1,2.5c1.1,1.3,1.7,3.1,1.6,4.8c0.1,2.8-1.2,5.4-3.5,7c-2.4,1.7-5.6,2.5-9.6,2.5c-4.1,0-7.4-0.8-9.9-2.5
	C232.6,77.9,231.2,75.4,231.1,72.7L231.1,72.7z M233.6,72.5c0,2.1,1.2,4.1,3,5.1c2,1.3,4.7,1.9,8.2,1.9c3.5,0,6.1-0.6,7.9-1.9
	c1.8-1.1,2.8-3.1,2.8-5.2c0-1-0.3-2-0.8-2.8c-0.5-0.7-1.2-1.4-1.9-1.8c-0.9-0.5-1.9-0.8-2.9-1c-1-0.3-2.1-0.4-3.1-0.6
	c-0.9-0.1-2-0.2-3.2-0.3s-2.1-0.2-2.6-0.3C236.1,67,233.6,69.3,233.6,72.5L233.6,72.5z M235.5,46.1c-0.1,2.5,0.8,4.8,2.4,6.7
	c3.6,3.5,9.4,3.5,13,0c1.6-1.8,2.5-4.2,2.4-6.6V43c0.1-2.4-0.7-4.7-2.3-6.5c-1.7-1.8-4.1-2.7-6.6-2.6c-2.4-0.1-4.8,0.8-6.4,2.6
	c-1.6,1.8-2.5,4.1-2.4,6.5L235.5,46.1L235.5,46.1z M264.7,20.2c-0.4-0.4-0.7-1-0.7-1.6c0-0.6,0.2-1.1,0.7-1.5c0.4-0.4,1-0.6,1.6-0.6
	c1.2,0,2.2,0.9,2.2,2.1c0,0,0,0,0,0.1c0,0.6-0.2,1.2-0.6,1.6c-0.4,0.4-1,0.7-1.5,0.7C265.7,20.9,265.1,20.6,264.7,20.2z M265.1,63.8
	V33.1c0-0.7,0.5-1.2,1.2-1.2l0,0c0.8,0,1.3,0.4,1.3,1.2v30.8c0,0.7-0.6,1.2-1.3,1.3c-0.3,0-0.6-0.1-0.9-0.4
	C265.2,64.5,265.1,64.1,265.1,63.8L265.1,63.8z M274.5,64.9c-0.3-0.2-0.4-0.6-0.4-0.9c0-0.3,0.1-0.7,0.4-0.9c0.3-0.2,0.6-0.4,1-0.4
	c0.4,0,0.7,0.1,1,0.4c0.5,0.4,0.5,1.2,0.1,1.6c0,0-0.1,0.1-0.1,0.1c-0.3,0.3-0.6,0.4-1,0.4C275.1,65.3,274.7,65.2,274.5,64.9
	L274.5,64.9z M280.7,58.2v-4.7c-0.1-1.9,0.6-3.7,1.8-5.2c1.4-1.4,3.3-2.1,5.3-2c1.3,0,2.5,0.2,3.6,0.8c1,0.5,1.5,1,1.5,1.5
	c0,0.2-0.1,0.4-0.2,0.5c-0.1,0.1-0.3,0.2-0.5,0.2c-0.3-0.1-0.5-0.2-0.7-0.4c-0.4-0.3-0.9-0.6-1.4-0.8c-0.7-0.3-1.5-0.4-2.3-0.4
	c-2.9-0.3-5.5,1.8-5.8,4.7c0,0.4,0,0.7,0,1.1v4.7c-0.3,2.9,1.8,5.5,4.7,5.7c0.4,0,0.7,0,1.1,0c0.8,0,1.7-0.1,2.4-0.4
	c0.5-0.2,1-0.5,1.5-0.8c0.2-0.2,0.4-0.3,0.7-0.4c0.4,0,0.7,0.3,0.7,0.7c0,0.5-0.5,1-1.5,1.5c-1.2,0.6-2.5,0.8-3.8,0.8
	c-2,0.1-3.9-0.6-5.3-2C281.2,61.9,280.6,60,280.7,58.2L280.7,58.2z M296.3,58.2v-4.8c0-1.9,0.7-3.6,2-4.9c1.3-1.4,3-2.1,4.9-2.1
	c1.8,0,3.6,0.7,4.9,2.1c1.4,1.3,2.1,3.1,2.1,5v4.7c0,1.9-0.7,3.7-2.1,5c-2.4,2.7-6.6,2.9-9.3,0.4c-0.2-0.1-0.3-0.3-0.4-0.4
	C297,61.9,296.3,60.1,296.3,58.2L296.3,58.2z M297.7,58.2c0,1.5,0.6,2.9,1.6,4c1.9,2.2,5.3,2.3,7.4,0.4c0.1-0.1,0.3-0.3,0.4-0.4
	c1.1-1.1,1.7-2.5,1.7-4v-4.8c0-1.5-0.6-2.9-1.6-3.9c-2-2.2-5.3-2.3-7.5-0.4c-0.1,0.1-0.2,0.2-0.4,0.4c-1,1-1.6,2.5-1.6,3.9V58.2
	L297.7,58.2z M314.8,64.4V47.3c0-0.3,0.2-0.6,0.5-0.7c0.1,0,0.1,0,0.2,0c0.5,0,0.7,0.2,0.7,0.7v2.1c1-1.9,3.1-3.1,5.2-3
	c1.3,0,2.6,0.4,3.6,1.1c1,0.7,1.8,1.7,2.3,2.8c0.6-1.2,1.5-2.2,2.6-2.9c1-0.6,2.2-1,3.4-1c1.7,0,3.3,0.7,4.5,1.9
	c1.3,1.4,2,3.2,1.9,5.1v10.9c0,0.2-0.1,0.4-0.2,0.5c-0.1,0.1-0.3,0.2-0.5,0.2c-0.2,0-0.4-0.1-0.5-0.2c-0.1-0.1-0.2-0.3-0.2-0.5V53.4
	c0.1-1.5-0.5-3.1-1.5-4.2c-0.9-1-2.2-1.5-3.5-1.5c-3,0-5.3,2.5-5.3,5.4v11.2c0,0.4-0.2,0.7-0.7,0.7c-0.3,0-0.6-0.2-0.7-0.5
	c0-0.1,0-0.1,0-0.2V53.2c0-1.4-0.5-2.8-1.5-3.9c-0.9-1-2.2-1.6-3.6-1.6c-1.4,0-2.7,0.6-3.7,1.6c-1.1,1.1-1.7,2.6-1.6,4.1v10.9
	c0,0.4-0.3,0.7-0.7,0.7c-0.2,0-0.4-0.1-0.5-0.2C314.9,64.7,314.8,64.6,314.8,64.4L314.8,64.4z"/>
<linearGradient id="SVGID_1_" gradientUnits="userSpaceOnUse" x1="119.0676" y1="78.8044" x2="11.8176" y2="19.3543" gradientTransform="matrix(1 0 0 -1 0 90)">
	<stop  offset="0" style="stop-color:#F48120"/>
	<stop  offset="1" style="stop-color:#F9A51A"/>
</linearGradient>
<path class="st1" d="M53.9,0c19.2,0,34.8,12.5,34.8,28S73.1,56,53.9,56c-0.9,0-1.7,0-2.6-0.1V48c41.1-1.3,40.1-43.5,1.6-48H53.9z
	 M87.5,58.3c0.2,1.2,0.3,2.5,0.3,3.8c0,14.7-14.2,26.6-31.7,26.6c-1.6,0-3.2-0.1-4.8-0.3v-7.6c1.6,0.2,3.2,0.3,4.8,0.3
	C72.1,81.1,85.3,71.2,87.5,58.3z M87.5,41.6c-2.2,12.9-15.4,22.8-31.4,22.8c-1.6,0-3.2-0.1-4.8-0.3v7.6c1.6,0.2,3.2,0.3,4.8,0.3
	c17.5,0,31.7-11.9,31.7-26.5C87.8,44.1,87.7,42.9,87.5,41.6z"/>
<linearGradient id="SVGID_2_" gradientUnits="userSpaceOnUse" x1="-25.2735" y1="15.3964" x2="81.9764" y2="74.8464" gradientTransform="matrix(1 0 0 -1 0 90)">
	<stop  offset="0" style="stop-color:#F48120"/>
	<stop  offset="1" style="stop-color:#F9A51A"/>
</linearGradient>
<path class="st2" d="M34.7,88.7C15.6,88.7,0,76.1,0,60.7s15.6-28,34.7-28c0.9,0,1.7,0,2.6,0.1v7.9c-41.1,1.3-40.1,43.5-1.6,48
	L34.7,88.7z M1.2,30.3c-0.2-1.2-0.3-2.5-0.3-3.8C0.8,11.9,15,0,32.6,0c1.6,0,3.2,0.1,4.8,0.3v7.6c-1.6-0.2-3.2-0.3-4.8-0.3
	C16.6,7.6,3.4,17.5,1.2,30.3z M1.2,47c2.2-12.9,15.4-22.8,31.4-22.8c1.6,0,3.2,0.1,4.8,0.3V17c-1.6-0.2-3.2-0.3-4.8-0.3
	C15,16.7,0.8,28.6,0.8,43.2C0.8,44.5,0.9,45.8,1.2,47L1.2,47z"/>
</svg>
