<svg xmlns="http://www.w3.org/2000/svg" viewBox="0 0 2465 2325"><defs><style>.cls-1,.cls-2,.cls-7{fill:#22286a;}.cls-10,.cls-2,.cls-9{stroke:#22286a;}.cls-10,.cls-11,.cls-2,.cls-5,.cls-9{stroke-miterlimit:10;}.cls-3,.cls-5{fill:#fff;}.cls-4{fill:#ea7f18;}.cls-5{stroke:#ea7f18;stroke-width:3px;}.cls-6{font-size:36px;}.cls-6,.cls-7,.cls-8{font-family:Georgia, Georgia;}.cls-7{font-size:28px;}.cls-8{font-size:20px;}.cls-10,.cls-11,.cls-9{fill:none;}.cls-9{stroke-width:0.14px;}.cls-10{stroke-width:0.52px;}.cls-11{stroke:#1acc00;stroke-width:30px;}</style></defs><title>02 finished</title><g id="Layer_4" data-name="Layer 4"><path class="cls-1" d="M1730.63,597a19,19,0,0,1,.37,3.53l.67,10.37c.3,4.56.69,10.19,1.38,16.82l1.11,10.73c.37,3.83.85,7.91,1.17,12.24,3,34.63,5.26,84.9,5.42,147q0,11.65,0,23.85c-.06,8.15-.09,16.38-.31,25l-.56,6.43c-.21,2.15-.32,4.33-.64,6.48-.58,4.32-1,8.69-1.86,13.06a206.64,206.64,0,0,1-6.12,26.44,239.8,239.8,0,0,1-9.7,26.33c-3.68,8.72-7.92,17.35-10.85,26.37-.81,2.24-1.3,4.55-1.92,6.84-.44,2.36-1,4.68-1.27,7.11-.17,1.2-.37,2.4-.52,3.62l-.44,3.66c-.31,2.44-.55,4.93-.82,7.4-1,9.93-2.14,20.07-3.78,30.27s-3.7,20.46-6.3,30.72c-.65,2.56-1.4,5.11-2.1,7.68l-1.07,3.85-1.19,3.83-2.41,7.68-2.69,7.63c-1.72,5.13-3.83,10.14-5.81,15.23-1,2.56-2.11,5-3.19,7.56l-3.3,7.56c-2.33,5-4.74,10-7.17,15l-3.9,7.41c-1.32,2.46-2.55,5-4,7.39a314,314,0,0,1-39.77,55.81,284.17,284.17,0,0,1-53.63,45.89l-3.71,2.51-3.82,2.32-7.62,4.61-1.9,1.15c-.64.37-1.3.71-1.95,1.07l-3.9,2.11-7.79,4.21c-5.27,2.62-10.59,5.12-15.86,7.65l-8.05,3.43-4,1.71-2,.85-1,.43-.61.26a2.5,2.5,0,0,1-.47.13l-.28.06a97.44,97.44,0,0,1-17.47,2.55,149.35,149.35,0,0,1-17.38,0c-5.74-.34-11.46-.84-17.09-1.66-2.83-.34-5.62-.86-8.42-1.29s-5.57-1-8.32-1.58a376.31,376.31,0,0,1-63.21-19.34,472.62,472.62,0,0,1-57.09-27.36c-9-5.07-17.69-10.34-26.06-16s-16.24-11.7-23.79-17.91c-15.12-12.42-28.71-25.65-41.72-38.46l-19.13-18.9c-3.15-3.06-6.26-6.12-9.39-9.07l-4.66-4.44-4.61-4.46a362.56,362.56,0,0,1-32.75-36.36,332.35,332.35,0,0,1-43-72.12,341.24,341.24,0,0,1-19.72-60.25c-3.86-17-5.77-30.36-7-39.42-.6-4.53-1-8-1.27-10.32a18.69,18.69,0,0,1-.26-3.54,18.67,18.67,0,0,1,.77,3.47c.42,2.31,1,5.74,1.76,10.25,1.55,9,3.76,22.3,7.9,39.12a350.7,350.7,0,0,0,20.38,59.57,333.72,333.72,0,0,0,43.21,71.06,362.28,362.28,0,0,0,32.66,35.78l4.59,4.39,4.71,4.43c3.17,3,6.3,6,9.48,9.06l19.24,18.82c13.05,12.73,26.61,25.81,41.6,38,7.49,6.1,15.27,12.07,23.53,17.57s16.88,10.71,25.79,15.71a470.81,470.81,0,0,0,56.59,26.94,373.17,373.17,0,0,0,62.42,19c2.71.59,5.44,1,8.17,1.55s5.48.92,8.25,1.25c5.52.8,11.09,1.27,16.68,1.6a144.67,144.67,0,0,0,16.8-.06,92.63,92.63,0,0,0,16.6-2.43l.3-.07.39-.17,1-.42,2-.84,4-1.69,7.95-3.39c5.2-2.5,10.43-5,15.63-7.55l7.67-4.15,3.85-2.08c.64-.35,1.29-.68,1.92-1l1.87-1.13,7.5-4.54,3.76-2.28,3.64-2.47a280,280,0,0,0,52.71-45.06,310.15,310.15,0,0,0,39.19-54.88c1.44-2.37,2.66-4.86,4-7.29l3.86-7.31c2.41-4.94,4.8-9.87,7.11-14.8l3.27-7.47c1.08-2.49,2.21-4.94,3.17-7.47,2-5,4.06-10,5.77-15l2.67-7.52,2.4-7.57,1.19-3.77,1.06-3.8c.69-2.53,1.44-5,2.09-7.57,2.59-10.11,4.66-20.22,6.3-30.28s2.77-20.08,3.84-30c.29-2.49.53-5,.86-7.45l.46-3.72c.16-1.24.37-2.48.55-3.71.32-2.47.88-4.94,1.35-7.4.65-2.43,1.21-4.9,2.05-7.24,1.52-4.75,3.46-9.24,5.35-13.67s3.9-8.73,5.75-13a236.52,236.52,0,0,0,9.66-25.84,203.38,203.38,0,0,0,6.14-25.91c.84-4.28,1.31-8.59,1.9-12.84.33-2.12.44-4.24.66-6.35l.59-6.29c.26-8.35.35-16.72.47-24.82l.2-23.81c.29-62-1.4-112.26-3.82-146.86-.24-4.33-.64-8.4-.94-12.24l-.88-10.75c-.54-6.68-.76-12.34-.9-16.91s-.18-8.06-.18-10.4A18.4,18.4,0,0,1,1730.63,597Z"/><path class="cls-1" d="M1436.85,943.42c-.14.32-1.41.08-3.64-.64a39.44,39.44,0,0,1-3.93-1.66c-.77-.34-1.52-.83-2.35-1.29l-1.27-.74c-.43-.27-.84-.59-1.28-.89a31.55,31.55,0,0,1-10.06-11.32,29.68,29.68,0,0,1-2.72-8.76,32.13,32.13,0,0,1,.12-9.76,43.41,43.41,0,0,1,2.56-9.25,57.85,57.85,0,0,1,3.94-7.89,59.71,59.71,0,0,1,9.17-11.58,40.9,40.9,0,0,1,7.81-6.12q.77-.43,1.38-.74t1.08-.43c.6-.2.95-.23,1-.08.39.64-3.67,3.58-8.7,9.76a75,75,0,0,0-7.78,11.48,63.59,63.59,0,0,0-3.37,7.36,43.11,43.11,0,0,0-2.19,8.26,29.55,29.55,0,0,0-.21,8.35,27.21,27.21,0,0,0,2,7.42,31.79,31.79,0,0,0,8.09,10.53c.37.32.71.66,1.07,1l1.08.83c.71.53,1.34,1.1,2,1.53,1.32.87,2.41,1.72,3.36,2.32C1436,942.27,1437,943.11,1436.85,943.42Z"/><path class="cls-1" d="M1551.73,940.1c-.07-.16.68-.69,2.12-1.54.73-.41,1.55-1.06,2.56-1.72.5-.35,1-.79,1.52-1.21.27-.22.55-.43.82-.68l.8-.8a22.1,22.1,0,0,0,5.71-9.42,31.08,31.08,0,0,0,1.17-6.85,48.76,48.76,0,0,0-.32-7.91c-1.38-11.14-6-24-11.79-38-2.89-7-6.09-14.33-9.38-21.94-1.64-3.82-3.34-7.66-4.93-11.71-.79-2-1.67-4-2.39-6.09l-2.21-6.25a210,210,0,0,1-6.79-25c-.95-4.09-1.48-8.18-2.15-12.16-.31-2-.47-4-.71-6s-.49-3.9-.56-5.83a153.65,153.65,0,0,1,2.15-40.84c.44-2.89,1.26-5.56,1.88-8.11.35-1.27.6-2.52,1-3.69l1.15-3.41a99.53,99.53,0,0,1,4.4-11,37.55,37.55,0,0,1,2-3.84c.61-1.09,1.14-2,1.59-2.74.89-1.46,1.42-2.19,1.57-2.11s-.09,1-.67,2.56c-.29.8-.68,1.77-1.14,2.92s-1.08,2.42-1.54,4c-1,3-2.44,6.67-3.52,11.08l-.94,3.38c-.33,1.16-.52,2.4-.8,3.65-.49,2.52-1.18,5.14-1.49,8a163.22,163.22,0,0,0-1,39.84c.1,1.88.42,3.76.64,5.68s.44,3.85.77,5.79c.71,3.88,1.26,7.86,2.22,11.85a219.35,219.35,0,0,0,6.73,24.45l2.16,6.11c.7,2,1.56,4,2.32,6,1.52,3.94,3.21,7.82,4.82,11.64,3.23,7.64,6.35,15,9.15,22.15s5.3,14,7.23,20.58c.51,1.64.91,3.28,1.35,4.88s.8,3.2,1.09,4.78a74.29,74.29,0,0,1,1.36,9.16,49.65,49.65,0,0,1,0,8.51,32.59,32.59,0,0,1-1.69,7.5,23.06,23.06,0,0,1-7.05,10l-.95.77c-.32.24-.65.43-1,.64-.63.39-1.19.79-1.75,1.09a30.42,30.42,0,0,1-2.91,1.36C1552.67,940,1551.8,940.25,1551.73,940.1Z"/><path class="cls-1" d="M1455.61,929.49a4.14,4.14,0,0,1-1.38-.67,16.57,16.57,0,0,1-3.49-2.71,5.53,5.53,0,0,1-1.6-3,3.28,3.28,0,0,1,.43-2,5.41,5.41,0,0,1,1.45-1.58c2.34-1.7,5.39-2.55,8.72-3.31a91,91,0,0,1,11-1.57c2-.17,4-.31,6.2-.39a1,1,0,0,1,.36,0l.22,0,.4.08.8.16,1.61.34c1.07.3,2.17.52,3.25.89a31,31,0,0,1,6.49,2.77,18.55,18.55,0,0,1,5.66,4.91,19.55,19.55,0,0,1,3.17,7.07c.65,2.5,1,5.05,1.7,7.39a12.26,12.26,0,0,0,1.48,3.2,9,9,0,0,0,2.44,2.34,16.31,16.31,0,0,0,6.56,2.16,19.92,19.92,0,0,0,12.74-3.18,49.17,49.17,0,0,0,9.58-7.91c2.75-2.81,5.12-5.64,7.28-8.22,4.28-5.21,7.72-9.5,10.38-12.22s4.47-3.89,4.53-3.79-1.53,1.44-4,4.31-5.69,7.24-9.86,12.58c-2.1,2.66-4.43,5.56-7.19,8.48a49.57,49.57,0,0,1-9.82,8.34,25.82,25.82,0,0,1-6.47,2.92,19.17,19.17,0,0,1-7.45.63,18.07,18.07,0,0,1-7.41-2.43,11,11,0,0,1-3-2.87,14.16,14.16,0,0,1-1.74-3.74c-.8-2.59-1.1-5.13-1.72-7.5a17.7,17.7,0,0,0-2.82-6.39c-2.73-3.7-7-5.75-11.13-7.09-1-.36-2.09-.6-3.12-.9L1477,916c-2.07,0-4.13.15-6.1.28a96.4,96.4,0,0,0-10.88,1.3c-3.25.63-6.25,1.42-8.34,2.82a3,3,0,0,0-1.6,2.61,4.85,4.85,0,0,0,1.23,2.54,20.94,20.94,0,0,0,3.14,2.89C1455.24,929.1,1455.65,929.43,1455.61,929.49Z"/><path class="cls-1" d="M1379.13,1059.12c0-.07.44,0,1.16.33s1.74.8,3.17,1.24a56.23,56.23,0,0,0,12.73,2.8,144.29,144.29,0,0,0,20.74.62c8.11-.26,17.34-1,27.54-2s21.37-2.39,33.4-3.69,24.94-2.58,38.68-2.8c3.43-.06,6.92,0,10.46.16,1.76.08,3.56.24,5.33.37s3.47.31,5.22.39a134,134,0,0,0,21.36-.29,77.18,77.18,0,0,0,21.21-4.85,29.58,29.58,0,0,0,9-5.43,10,10,0,0,0,1.47-1.77,3.51,3.51,0,0,0,.58-1.51c0-.36,0-.33-.44-.94A14,14,0,0,0,1589,1040a65.1,65.1,0,0,0-9.49-6c-3.35-1.77-6.77-3.4-10.22-4.87a120.17,120.17,0,0,0-20.92-7A47.3,47.3,0,0,0,1538,1021a27.2,27.2,0,0,0-9.72,1.39,19,19,0,0,0-4.1,2.37,22.88,22.88,0,0,1-5,2.85,24.35,24.35,0,0,1-5.58,1.37l-2.72.25a24.59,24.59,0,0,1-2.83,0,26.44,26.44,0,0,1-10.45-3.11c-3.08-1.57-5.8-3.32-8.53-4.41a13.89,13.89,0,0,0-8.1-1,18.46,18.46,0,0,0-4,1.26c-.65.27-1.28.59-1.91.93L1473,1024c-2.8,1.41-5.57,2.56-8.3,3.66s-5.42,2.12-8.06,3.1c-5.29,1.95-10.38,3.73-15.24,5.41-19.46,6.66-35.25,11.85-46,15.86-5.37,2-9.48,3.68-12.18,5-.66.34-1.27.62-1.76.89l-1.25.69c-.63.41-1,.61-1.06.54s.19-.38.75-1c.29-.27.68-.56,1.15-.93s1-.7,1.69-1.13a100.78,100.78,0,0,1,11.94-5.9c10.59-4.6,26.24-10.31,45.52-17.39,4.81-1.78,9.85-3.66,15.06-5.68s10.63-4.18,15.84-6.84l2-1.06c.71-.4,1.44-.77,2.2-1.11a22.59,22.59,0,0,1,4.85-1.61,17.73,17.73,0,0,1,5.35-.26,19.71,19.71,0,0,1,5.19,1.32c3.27,1.29,6.09,3.08,8.92,4.47a22,22,0,0,0,8.71,2.54,20,20,0,0,0,2.27,0l2.4-.24a19.81,19.81,0,0,0,4.47-1.12,18.24,18.24,0,0,0,4-2.35,23.62,23.62,0,0,1,5.05-2.93,31.55,31.55,0,0,1,11.47-1.8,51.82,51.82,0,0,1,11.42,1.33,102.41,102.41,0,0,1,11,3.07q5.46,1.81,10.81,4.11t10.61,5a69,69,0,0,1,10.28,6.47,18.5,18.5,0,0,1,2.48,2.36,7.18,7.18,0,0,1,.61.82,5.25,5.25,0,0,1,.57,1.07,5.81,5.81,0,0,1,.42,2.48,8.29,8.29,0,0,1-1.34,3.93,14.82,14.82,0,0,1-2.23,2.7A34.12,34.12,0,0,1,1582,1056a81.32,81.32,0,0,1-22.62,5.12,136.77,136.77,0,0,1-22.13.18c-1.8-.09-3.58-.3-5.36-.44s-3.43-.3-5.14-.39c-3.41-.18-6.81-.27-10.17-.24-13.45.09-26.29,1.22-38.3,2.32s-23.23,2.27-33.5,3.09-19.6,1.32-27.82,1.32a129.71,129.71,0,0,1-21.06-1.49,47.49,47.49,0,0,1-12.84-3.79,17.93,17.93,0,0,1-3-1.72C1379.39,1059.46,1379.09,1059.2,1379.13,1059.12Z"/><path class="cls-1" d="M1568.11,1058.58c.14-.11.75.47,1.82,1.7a22.22,22.22,0,0,1,3.62,6.19,25.18,25.18,0,0,1,.73,2.42l.23,1.36.12.71c0,.24,0,.48,0,.73l0,1.52a12.92,12.92,0,0,1-.16,1.58,17.76,17.76,0,0,1-.74,3.28,23.71,23.71,0,0,1-3.52,6.44,38,38,0,0,1-5.64,5.77,62.58,62.58,0,0,1-7.15,5.05c-2.59,1.56-5.37,3-8.29,4.44a146.28,146.28,0,0,1-19.25,7.34c-3.47,1.06-7,2-10.76,2.91a51.9,51.9,0,0,1-11.93,1.42,37.37,37.37,0,0,1-12.38-2.3c-2-.67-3.81-1.4-5.58-1.86a17.11,17.11,0,0,0-5.4-.5c-3.9.12-8,.69-12.09.93s-8.12.33-12.06.27c-2,0-3.92-.09-5.85-.18-1-.05-1.9-.08-2.9-.15a28.28,28.28,0,0,1-3.06-.39,51.41,51.41,0,0,1-11-3.45,127.3,127.3,0,0,1-18.14-9.87c-5.42-3.46-10.25-7-14.58-10.29a180.76,180.76,0,0,1-19.38-17c-4.25-4.39-6.06-7.34-5.78-7.53s2.52,2.23,7.12,6.12,11.37,9.37,20.14,15.58c4.4,3.08,9.28,6.38,14.67,9.61a131.8,131.8,0,0,0,17.72,9.14,48,48,0,0,0,10,3,23.79,23.79,0,0,0,2.54.29c.89.05,1.87.07,2.8.11,1.89.06,3.8.11,5.72.12,3.84,0,7.73-.06,11.67-.34s7.93-.83,12.29-1a28.37,28.37,0,0,1,3.36.06,13.11,13.11,0,0,1,1.76.23,16,16,0,0,1,1.68.37c2.18.58,4.1,1.35,5.94,2a32.76,32.76,0,0,0,10.84,2.1,48.1,48.1,0,0,0,10.79-1.18c3.59-.79,7.1-1.69,10.49-2.67,13.52-3.94,25.46-8.86,33.79-15.18a36.3,36.3,0,0,0,5.37-5,21.58,21.58,0,0,0,3.38-5.41,15.71,15.71,0,0,0,.52-10,29.86,29.86,0,0,0-2.6-6.22C1568.33,1059.48,1568,1058.69,1568.11,1058.58Z"/><path class="cls-1" d="M949.24,639.82a6.66,6.66,0,0,1-1-1c-.61-.72-1.49-1.83-2.62-3.33-2.24-3-5.42-7.61-9.25-13.89-7.69-12.55-18-31.82-29.47-57.73l-4.36-10c-.78-1.7-1.4-3.52-2.12-5.32-.34-.91-.72-1.81-1-2.73l-.9-2.82a154.07,154.07,0,0,1-5.67-24.32,244.88,244.88,0,0,1-2.68-27.18q-.6-14.22,0-29.6a461.49,461.49,0,0,1,28.12-137.11,318.55,318.55,0,0,1,16.55-36.9l2.47-4.58c.83-1.53,1.75-3,2.63-4.54s1.74-3,2.7-4.53l2.86-4.47c3.87-5.92,7.86-11.81,11.89-17.81s8.19-12,12.45-18,8.72-12,13.42-18a342.07,342.07,0,0,1,30.87-34.54c22.53-22.12,49.49-41.31,79.17-57.67,14.85-8.19,30.39-15.71,46.46-22.7s32.72-13.3,49.77-19.3,34.58-11.41,52.43-16.64l13.47-3.8c2.24-.66,4.53-1.24,6.81-1.82s4.57-1.2,6.87-1.75c9.22-2.16,18.58-4,28.08-5.48s19.12-2.5,28.84-3.09,19.53-.77,29.39-.53a334.82,334.82,0,0,1,59.43,7.11c39.59,8.35,78.5,24,114.92,45.42a454,454,0,0,1,52.74,36.28q12.66,10.07,24.71,21.15,6,5.54,11.83,11.35c1.93,1.94,3.86,3.9,5.75,5.9l2.82,3,2.29,2.54,2.6.59c1.13.28,2.28.47,3.39.82,2.23.68,4.5,1.21,6.68,2.06l3.3,1.17c1.09.41,2.16.9,3.24,1.34,2.18.86,4.26,1.92,6.36,3a108.82,108.82,0,0,1,23.13,15.92c1.8,1.51,3.44,3.2,5.15,4.82s3.27,3.38,4.89,5.09c3.12,3.52,6.17,7.12,9,10.91a194.28,194.28,0,0,1,15.25,23.86,302.18,302.18,0,0,1,21.83,52.62,487.06,487.06,0,0,1,13.8,56c3.56,19,6.24,38.29,8.17,57.77q1.45,14.61,2.33,29.35.44,7.37.74,14.77c.11,2.45.18,5,.31,7.33s.34,4.88.54,7.33c1.65,19.6,4,39.3,7.39,58.86a265.11,265.11,0,0,0,6.61,29,89.59,89.59,0,0,0,5.17,13.7,30.47,30.47,0,0,0,3.69,5.9,12.21,12.21,0,0,0,2.26,2.14c.2.14.44.26.66.4l.17.1.5.13,1,.25a15.7,15.7,0,0,0,2.31.38l2.28.29-5.54,7.53c-1.11,1.5-2.24,3-3.4,4.5a114.08,114.08,0,0,1-7.4,8.69,62.92,62.92,0,0,1-8.72,7.72,44.4,44.4,0,0,1-5.06,3.14,34.82,34.82,0,0,1-5.6,2.3,27.13,27.13,0,0,1-12.21.89,13.75,13.75,0,0,1-3.27-.82,12.83,12.83,0,0,1-3-1.77,18.29,18.29,0,0,1-4.2-5,46.51,46.51,0,0,1-4.4-11.06c-1-3.74-1.83-7.49-2.53-11.24-1.39-7.51-2.41-15-3.4-22.55l-2.84-22.59c-1.89-15.07-3.91-30.15-6.33-45.22s-5.19-30.12-8.44-45.14l-2.44-11.26-1.35-5.57c-.45-1.86-1-3.69-1.47-5.54a216.16,216.16,0,0,0-7.22-21.76c-5.62-14.18-13-27.81-23.11-39.22-1.27-1.41-2.54-2.82-3.91-4.14s-2.74-2.62-4.14-3.91a84.12,84.12,0,0,0-9-6.92,80.34,80.34,0,0,0-20.48-9.76,89.83,89.83,0,0,0-12.33-2.9,99.17,99.17,0,0,0-12.64-1.17,126,126,0,0,0-25.36,1.93c-16.77,2.95-33,8.57-48.55,15.52-7.77,3.49-15.37,7.33-22.82,11.43q-5.58,3.09-11,6.36l-10.87,6.69a454.29,454.29,0,0,0-41.52,29.14,383.57,383.57,0,0,0-37.2,33.85c-11.63,12-22.53,24.68-33,37.62-5.27,6.43-10.29,13-15.36,19.61l-7.43,10-3.7,5-3.63,5-7.24,10-7.4,10c-4.82,6.74-10.17,13-15.29,19.5-10.61,12.61-21.51,24.9-33.12,36.39-5.67,5.89-11.7,11.37-17.57,17-6.07,5.4-12,10.9-18.29,16a470.88,470.88,0,0,1-38.4,29.33c-3.37,2.19-6.67,4.47-10.08,6.58s-6.8,4.25-10.35,6.15-7.1,3.8-10.79,5.51l-2.88,1.15c-1,.39-1.92.77-2.86,1.05-1.89.63-3.79,1.24-5.71,1.81a76.63,76.63,0,0,1-24,3.81,52.21,52.21,0,0,1-23.55-6.14l-2.67-1.46-1.33-.73-1.25-.85-2.5-1.7a27.77,27.77,0,0,1-2.45-1.76l-4.65-3.79c-1.47-1.34-2.88-2.74-4.32-4.11l-1.19-1.14c-.63-.6-1.25-1.35-1.88-2l-3.76-4.14-3.75-4.14-1.87-2.07c-.6-.53-.18-.41.36-.21l1.32.39,10.63,3.18c.94.3,1.85.56,2.74.8l2,.54c.92.24,1.83.53,2.76.74a125.58,125.58,0,0,0,22.32,3.76,77,77,0,0,0,22.16-1.5,72.1,72.1,0,0,0,10.56-3.25,84.82,84.82,0,0,0,10-4.78c3.24-1.79,6.36-3.83,9.43-5.92s6.05-4.36,9-6.66c5.89-4.6,11.6-9.46,17.33-14.29l8.6-7.23c1.42-1.2,2.92-2.38,4.28-3.59s2.71-2.36,4-3.65a120.82,120.82,0,0,0,13.82-16.89c2.14-3,4.07-6.08,6.07-9.13s3.85-6.21,5.63-9.4c7.31-12.64,13.85-25.64,20-38.72s11.9-26.24,17.42-39.39c11-26.31,21.11-52.58,31.09-78.45l7.52-19.31c1.27-3.2,2.53-6.4,3.84-9.57l.37-.89.16-.37,0-.09s0-.06,0,0l-.17.1-.66.46-2.81,2.1q-4,3.07-8,6.19-8,6.25-15.7,12.64-31,25.54-59.49,51.88t-54.68,52.89q-26.14,26.62-49.66,53.59T1095.39,626q-10.9,13.17-21.38,26.16c-7,8.64-13.89,17.21-20.89,25.55-3.53,4.15-7,8.27-11,12.11a37.46,37.46,0,0,1-3.15,2.76,16.08,16.08,0,0,1-1.85,1.24,9.36,9.36,0,0,1-1.1.54l-.71.23c-.26.06-.54.11-.8.14a3.52,3.52,0,0,1-2.95-1,4.47,4.47,0,0,1-.9-1.32c-.12-.25-.22-.48-.26-.59l-.18-.43c-.47-1.16-1-2.31-1.63-3.45a104.13,104.13,0,0,0-8.31-13,123.92,123.92,0,0,0-9.85-11.72,89.83,89.83,0,0,0-23.52-18.16c-8.64-4.47-18.29-6.77-27.61-5.94a33.51,33.51,0,0,0-3.42.53c-.56.13-1.13.22-1.67.38l-1.63.51a23.65,23.65,0,0,0-6,3,25.76,25.76,0,0,0-4.88,4.58,36.16,36.16,0,0,0-3.66,5.67,63.05,63.05,0,0,0-4.65,12.77c-1.15,4.4-2,8.85-2.82,13.3L928.28,693q-.59,3.3-1.25,6.56c-.46,2.21-.94,4.26-1.17,6.36a51,51,0,0,0,3.63,24.56c.39,1,.78,1.9,1.23,2.82s.89,1.84,1.38,2.74,1,1.77,1.51,2.65l1.59,2.7.8,1.36.73,1.37,1.46,2.74c.9,1.85,1.85,3.67,2.7,5.51,3.47,7.36,6.56,14.68,9.49,21.88,5.83,14.42,11,28.35,15.67,41.74,2.31,6.71,4.42,13.28,6.68,19.6s4.66,12.4,7.2,18.22a222.06,222.06,0,0,0,17,31.62,229,229,0,0,0,19,25.21,140.42,140.42,0,0,0,19.16,19,80,80,0,0,0,9.69,6.63,48.67,48.67,0,0,0,9.67,4.16,24.91,24.91,0,0,0,17.07-.49,22.31,22.31,0,0,0,9.62-7.94,20.81,20.81,0,0,0,3.21-7c.39-1.69.33-2.58.41-2.58a2.56,2.56,0,0,1,0,.66,9.9,9.9,0,0,1-.2,2,20,20,0,0,1-3,7.2,22.74,22.74,0,0,1-9.74,8.35,25.66,25.66,0,0,1-17.65.76,49.42,49.42,0,0,1-9.94-4.14,80.58,80.58,0,0,1-9.91-6.64,140.55,140.55,0,0,1-19.51-19,228.57,228.57,0,0,1-19.32-25.24,222.66,222.66,0,0,1-17.37-31.78q-3.89-8.78-7.36-18.31c-2.31-6.34-4.46-12.92-6.79-19.58-4.72-13.32-10-27.22-15.83-41.56-3-7.16-6.07-14.44-9.53-21.71-.85-1.83-1.79-3.61-2.69-5.44l-1.44-2.68-.72-1.34-.78-1.31-1.57-2.65c-.54-.91-1.11-1.81-1.59-2.76s-1-1.88-1.45-2.86-.89-2-1.3-2.95a53.6,53.6,0,0,1-3.9-25.85c.23-2.25.75-4.49,1.18-6.6s.83-4.32,1.22-6.5l2.26-13.28c.78-4.48,1.65-9,2.82-13.52a65.8,65.8,0,0,1,4.83-13.38,39,39,0,0,1,4-6.18A28.69,28.69,0,0,1,944.9,641a26.6,26.6,0,0,1,6.74-3.44l1.81-.57c.61-.17,1.23-.28,1.84-.43A36.47,36.47,0,0,1,959,636c10-.93,20.24,1.52,29.3,6.16a92.88,92.88,0,0,1,24.42,18.71,127,127,0,0,1,10.14,12,107.21,107.21,0,0,1,8.62,13.45c.63,1.2,1.23,2.42,1.77,3.71l.2.49.14.32a1,1,0,0,0,.19.31.67.67,0,0,0,.62.21l.17,0,.24-.08a6.7,6.7,0,0,0,.69-.35,12.89,12.89,0,0,0,1.46-1,34.33,34.33,0,0,0,2.86-2.53c3.73-3.65,7.21-7.76,10.69-11.89,6.93-8.3,13.79-16.9,20.78-25.55s14.09-17.43,21.34-26.24q21.75-26.44,45.37-53.42c15.72-18,32.26-36,49.69-53.84s35.67-35.57,54.72-53.13,38.87-35,59.57-52.14q7.77-6.42,15.75-12.73,4-3.16,8.06-6.25l2.05-1.54,1.43-1.06c.63-.45,1.24-.86,1.86-1.29l3.71-2.54,3.4-2.07,1.84-1.11c.45-.36.52-.26.27.22l-.35,1-1.41,3.85-.7,1.93-.35,1-.46,1.1-1.74,4.25c-1.29,3.16-2.54,6.35-3.81,9.54l-7.48,19.29c-9.93,25.87-20,52.21-31,78.61-5.52,13.2-11.28,26.42-17.44,39.59s-12.73,26.27-20.12,39.08c-1.8,3.23-3.79,6.36-5.71,9.54s-4,6.29-6.18,9.32a125.15,125.15,0,0,1-14.32,17.53c-1.34,1.37-2.83,2.6-4.25,3.91s-2.86,2.4-4.29,3.6l-8.57,7.22c-5.72,4.83-11.46,9.72-17.45,14.42q-4.49,3.52-9.2,6.83c-3.17,2.16-6.41,4.27-9.8,6.16a89.43,89.43,0,0,1-10.55,5.05,76.75,76.75,0,0,1-11.26,3.48,81.7,81.7,0,0,1-23.49,1.62,130.19,130.19,0,0,1-23.17-3.87c-1-.22-1.89-.51-2.83-.76l-.92-.25-.32-.1c-.09,0,0,0,0,.06l.12.13.11.12.08.08.91.87c1.38,1.3,2.73,2.64,4.13,3.92l4.4,3.58a25,25,0,0,0,2.3,1.65l2.34,1.59,1.17.79,1.23.67,2.47,1.35a47.44,47.44,0,0,0,21.48,5.6,72,72,0,0,0,22.48-3.63c1.86-.55,3.72-1.15,5.58-1.77,1-.29,1.83-.64,2.7-1l2.63-1.05c3.48-1.62,7-3.34,10.37-5.31s6.76-4,10.13-6,6.61-4.33,9.93-6.49a466.43,466.43,0,0,0,38-29.05c6.19-5.09,12.1-10.55,18.12-15.91,5.81-5.58,11.79-11,17.4-16.86,11.5-11.4,22.3-23.59,32.8-36.08,5.07-6.4,10.37-12.65,15.14-19.32l7.33-9.9,7.26-10.08,3.64-5,3.72-5,7.46-10c5.09-6.6,10.14-13.25,15.45-19.73,10.52-13,21.5-25.8,33.26-38A388.38,388.38,0,0,1,1445,411.58a459,459,0,0,1,42-29.47l11-6.74q5.54-3.32,11.2-6.45c7.55-4.16,15.28-8.07,23.18-11.62,15.81-7.08,32.41-12.85,49.74-15.89a131,131,0,0,1,26.37-2,104.15,104.15,0,0,1,13.28,1.23,94.81,94.81,0,0,1,13,3.07,84.84,84.84,0,0,1,21.75,10.37,89.1,89.1,0,0,1,9.56,7.33c1.48,1.36,3,2.68,4.37,4.12s2.78,2.88,4.11,4.36a117.24,117.24,0,0,1,13.82,19.39,160.34,160.34,0,0,1,10.2,21.31c5.78,14.59,9.67,29.84,12.72,44.93q4.88,22.64,8.47,45.39c2.43,15.15,4.46,30.3,6.34,45.39l2.83,22.57c1,7.49,2,15,3.35,22.29.68,3.66,1.45,7.29,2.43,10.81a41.94,41.94,0,0,0,3.88,9.86,13.45,13.45,0,0,0,3,3.61,7.89,7.89,0,0,0,1.82,1.07,8.94,8.94,0,0,0,2.18.52,22.17,22.17,0,0,0,10-.73,29.91,29.91,0,0,0,4.76-2,39.52,39.52,0,0,0,4.46-2.77,58.06,58.06,0,0,0,8-7.11,109.24,109.24,0,0,0,7.09-8.31c1.13-1.44,2.23-2.92,3.33-4.4l1-1.32s0,0,0,0h0l-.26-.15c-.32-.2-.64-.37-1-.59a17,17,0,0,1-3.23-3,35.17,35.17,0,0,1-4.32-6.87,94.21,94.21,0,0,1-5.47-14.48,269.67,269.67,0,0,1-6.72-29.55c-3.47-19.78-5.76-39.57-7.42-59.32-.2-2.47-.39-4.94-.54-7.43s-.2-5-.31-7.43q-.3-7.36-.73-14.68-.87-14.65-2.3-29.16c-1.9-19.35-4.55-38.5-8.07-57.36a482.71,482.71,0,0,0-13.62-55.42,297.66,297.66,0,0,0-21.43-51.81,189.71,189.71,0,0,0-14.85-23.29c-2.72-3.69-5.68-7.18-8.7-10.59-1.57-1.65-3.1-3.33-4.72-4.92s-3.23-3.19-5-4.65a104.23,104.23,0,0,0-22.15-15.28c-2-1-4-2-6.07-2.83-1-.43-2-.89-3.09-1.28l-3.15-1.12c-2.08-.81-4.25-1.32-6.37-2-1.06-.34-2.16-.53-3.24-.79l-4-.92-1.82-2.08-1.36-1.5-2.77-3c-1.86-2-3.76-3.9-5.66-5.82q-5.73-5.75-11.68-11.23-11.89-11-24.44-21a449.9,449.9,0,0,0-52.18-36c-36-21.27-74.47-36.77-113.56-45.08a330.88,330.88,0,0,0-58.67-7.12q-14.61-.38-29,.47c-9.6.56-19.1,1.65-28.49,3s-18.64,3.25-27.76,5.36c-2.28.54-4.54,1.15-6.8,1.71s-4.52,1.15-6.76,1.8l-13.44,3.76c-17.8,5.18-35.29,10.49-52.26,16.46s-33.56,12.2-49.56,19.09-31.44,14.34-46.2,22.43c-29.5,16.17-56.23,35.1-78.59,56.92a339.35,339.35,0,0,0-30.68,34.13c-4.68,5.86-9.07,11.87-13.39,17.82s-8.43,12-12.47,17.94-8.07,11.87-11.93,17.74l-2.84,4.4c-1,1.45-1.79,3-2.68,4.46s-1.78,3-2.61,4.47l-2.46,4.52a316.43,316.43,0,0,0-16.54,36.51A461.29,461.29,0,0,0,892.3,461.93q-.69,15.27-.17,29.42a244.39,244.39,0,0,0,2.5,27,153.1,153.1,0,0,0,5.44,24.1l.87,2.79c.31.92.67,1.81,1,2.7.7,1.78,1.29,3.56,2.05,5.27l4.27,10c11.27,26,21.32,45.3,28.78,57.94,3.72,6.33,6.78,11,8.92,14.05,1.07,1.53,1.9,2.67,2.46,3.43A10.28,10.28,0,0,1,949.24,639.82Z"/><path class="cls-1" d="M1720.74,639.5c-.39.31-2.22-1.33-5.75-4-1.75-1.32-3.93-2.87-6.56-4.49a73.35,73.35,0,0,0-9.2-4.92c-1.74-.83-3.64-1.52-5.59-2.27s-4-1.37-6.24-1.86-4.49-1-6.8-1.39a25.29,25.29,0,0,0-3.35-.18,35.35,35.35,0,0,0-3.58.18,86,86,0,0,0-15.52,3.34c-5.37,1.6-10.88,3.57-16.46,5.77-11.17,4.42-21.6,9.3-31,14s-17.65,9.2-24.51,13.15-12.3,7.33-16,9.71-5.79,3.75-6.14,3.38,1.16-2.42,4.47-5.53a128.64,128.64,0,0,1,15.07-11.75A276.61,276.61,0,0,1,1607.75,638a287.31,287.31,0,0,1,31.37-14.78,177.75,177.75,0,0,1,17.13-5.85,84.65,84.65,0,0,1,16.9-3.18,39.92,39.92,0,0,1,4.22-.06,30.37,30.37,0,0,1,4.23.42,71.28,71.28,0,0,1,7.37,1.87c2.36.67,4.53,1.59,6.64,2.42s4,1.84,5.83,2.87a62,62,0,0,1,9.25,6.15,52.25,52.25,0,0,1,6.13,5.67C1719.92,636.9,1721.11,639.21,1720.74,639.5Z"/><path class="cls-1" d="M1248.57,633.5c-.07-.23.49-.62,1.66-1.16q.87-.4,2.19-.91c.88-.33,1.92-.56,3.1-.88a81,81,0,0,1,20.34-2,195.74,195.74,0,0,1,30,2.89,358.08,358.08,0,0,1,35.84,8,478.83,478.83,0,0,1,62.75,22,189,189,0,0,1,18.14,8.9c4.16,2.38,6.23,4.18,6,4.57s-2.69-.52-7.13-2.11-10.84-4-18.8-6.77c-15.92-5.59-38-13.06-62.79-19.9-12.39-3.38-24.26-6.32-35.14-8.45a262.78,262.78,0,0,0-29.05-4.29,123.73,123.73,0,0,0-19.68-.22c-1.16.1-2.21.12-3.1.23s-1.65.2-2.27.24C1249.35,633.79,1248.64,633.73,1248.57,633.5Z"/><path class="cls-1" d="M1384.78,698.22c-.08.11-2-1.23-5.65-3.38a145.27,145.27,0,0,0-15.94-8.11A142.13,142.13,0,0,0,1338,678.5l-3.69-.82c-1.25-.25-2.53-.45-3.81-.68s-2.58-.47-3.9-.65l-4-.48a74,74,0,0,0-16.65-.28,93.75,93.75,0,0,0-30.86,9,157,157,0,0,0-22.77,13.51c-6.18,4.36-11,8.16-14.36,10.75s-5.27,4-5.35,3.86,1.66-1.68,4.86-4.47,7.91-6.76,14-11.29a147,147,0,0,1,22.8-14,93,93,0,0,1,31.46-9.32,74.46,74.46,0,0,1,17.07.32l4.05.51c1.34.18,2.65.46,3.95.68s2.59.45,3.86.72l3.73.87a134.17,134.17,0,0,1,25.31,8.74,117.8,117.8,0,0,1,15.78,8.74C1383.09,696.55,1384.87,698.11,1384.78,698.22Z"/><path class="cls-1" d="M1686.41,679.4c-.09.11-1.56-.82-4.14-2.59-1.33-.82-3-1.81-4.88-2.94s-4.17-2.26-6.73-3.34a79.21,79.21,0,0,0-18.65-5.61c-.9-.19-1.83-.26-2.76-.4s-1.87-.28-2.83-.35c-1.92-.15-3.87-.36-5.87-.38a93,93,0,0,0-12.37.38,120.48,120.48,0,0,0-23.47,4.68c-3.54,1.05-6.84,2.24-9.92,3.39s-5.89,2.37-8.42,3.55a132.21,132.21,0,0,0-11.77,6.07c-2.71,1.57-4.14,2.55-4.24,2.43s1.21-1.29,3.82-3.08a95.07,95.07,0,0,1,11.57-6.69c2.52-1.28,5.35-2.53,8.42-3.81s6.41-2.49,10-3.61a114.71,114.71,0,0,1,23.83-4.91,90.59,90.59,0,0,1,12.63-.35c2,0,4,.26,6,.44,1,.08,1.94.26,2.89.39s1.9.24,2.82.45a74.18,74.18,0,0,1,25.63,9.8c1.88,1.23,3.48,2.33,4.75,3.26C1685.18,678.15,1686.49,679.29,1686.41,679.4Z"/><path class="cls-1" d="M1550.06,727.31c1.91-2.9,3.78-5.85,5.75-8.75s4.05-5.72,6.22-8.49a122.83,122.83,0,0,1,14.42-15.56,86.35,86.35,0,0,1,17.67-12.29,73,73,0,0,1,20.72-7,80.69,80.69,0,0,1,22.08-.79,74.07,74.07,0,0,1,21.14,5.92l4.89,2.4,1.21.61,1.17.69,2.33,1.38,2.31,1.4a24.92,24.92,0,0,1,2.25,1.48c1.47,1,2.92,2.09,4.36,3.14a50.6,50.6,0,0,1,4.17,3.35l4,3.5c2.56,2.47,5,5,7.37,7.69l-.6.75c-3.23-1.51-6.24-3.25-9.32-4.86l-4.62-2.35c-.77-.39-1.52-.79-2.28-1.19s-1.55-.73-2.32-1.11c-1.55-.73-3.08-1.46-4.6-2.21-.75-.39-1.54-.72-2.32-1l-2.33-1c-3.06-1.43-6.22-2.53-9.32-3.73a155.19,155.19,0,0,0-19-5.42,63.61,63.61,0,0,0-19.53-1,66,66,0,0,0-19.07,5.14,80.74,80.74,0,0,0-17.37,10.23A118.94,118.94,0,0,0,1564.28,712c-4.72,5-9.06,10.45-13.44,15.89Z"/><path class="cls-1" d="M1555.15,721.15a9.51,9.51,0,0,0,4.06.38,22.68,22.68,0,0,0,4.06-.83c2.69-.75,5.24-1.86,8-2.67a8.15,8.15,0,0,1,2.29-.36,2.94,2.94,0,0,1,.69.1l.54.18,1,.36c1.32.47,2.64.93,4,1.35,2.66.85,5.35,1.56,8.07,2.17a96.27,96.27,0,0,0,16.52,2.26,102.05,102.05,0,0,0,16.63-.48,68,68,0,0,0,16-3.77c5.21-1.83,10.32-4,15.38-6.26,10.13-4.6,20-10,29.72-15.64l.25.33a119.25,119.25,0,0,1-13.48,10.36,143.62,143.62,0,0,1-14.7,8.65c-10.15,5.15-21.31,8.83-32.88,9.62a105.44,105.44,0,0,1-17.11-.11,98.68,98.68,0,0,1-16.83-2.91,84.86,84.86,0,0,1-8.14-2.57c-1.33-.49-2.66-1-4-1.55l-1-.39-.46-.17a1.46,1.46,0,0,0-.35-.07,6.94,6.94,0,0,0-1.88.21c-2.66.62-5.35,1.62-8.13,2.25a22.74,22.74,0,0,1-4.25.61,10,10,0,0,1-4.25-.66Z"/><circle class="cls-2" cx="1622.54" cy="702.24" r="23.37" transform="translate(-86.21 248.42) rotate(-8.53)"/><path class="cls-1" d="M1609.06,731.25c-.07.26-.68.38-1.62.19a8.41,8.41,0,0,1-5.62-4.5c-.39-.88-.41-1.5-.17-1.62.51-.25,1.78,1.42,3.72,2.94S1609.19,730.69,1609.06,731.25Z"/><path class="cls-1" d="M1633.18,731.15c0,.53-3.14.7-6.57-.84s-5.38-4-5-4.34,2.72,1.15,5.82,2.51S1633.24,730.58,1633.18,731.15Z"/><path class="cls-1" d="M1647.91,725.05c0,.27-.57.56-1.55.67a9.84,9.84,0,0,1-7.15-2.33c-.73-.67-1-1.24-.86-1.45.36-.44,2.31.63,4.83,1.43S1647.87,724.48,1647.91,725.05Z"/><path class="cls-1" d="M1662.63,716.67c.09.53-1.91,1.25-4.38.71s-4-2-3.7-2.46,2,.06,4.12.5S1662.56,716.11,1662.63,716.67Z"/><path class="cls-1" d="M1587.71,682.35c.26,0,.43.67.33,1.65a9.57,9.57,0,0,1-3.8,6.42c-.81.56-1.44.71-1.6.5-.34-.46,1.12-2.09,2.43-4.35S1587.14,682.27,1587.71,682.35Z"/><path class="cls-1" d="M1607.77,671.9c.26.07.32.83,0,2a12.87,12.87,0,0,1-5.2,7.32c-1,.63-1.72.82-1.88.61-.32-.47,1.65-2.31,3.51-5S1607.22,671.75,1607.77,671.9Z"/><path class="cls-1" d="M1635.58,667.21c.49.21-.38,3.19-2.87,6s-5.31,4.09-5.58,3.63,1.83-2.36,4.08-4.95S1635.07,667,1635.58,667.21Z"/><path class="cls-1" d="M1663.21,671.09c.22.16-.13,1.09-1,2.42a16.59,16.59,0,0,1-4.26,4.58,10.57,10.57,0,0,1-6.05,2.08c-1.69,0-2.62-.57-2.55-.81s1-.28,2.41-.6a14.14,14.14,0,0,0,5-2.3,36.91,36.91,0,0,0,4.31-3.84C1662.23,671.55,1663,670.92,1663.21,671.09Z"/><path class="cls-2" d="M1302.19,719.5c-.42,12.29,9.69,22.59,22.59,23s23.7-9.24,24.12-21.53-9.69-22.59-22.59-23S1302.61,707.21,1302.19,719.5Z"/><path class="cls-1" d="M1682.76,682.74c.24.08.25,1-.4,2.16a7.48,7.48,0,0,1-4.05,3.37,9,9,0,0,1-2.86.47c-.85,0-1.57,0-2.2-.08-1.24-.11-2-.31-2-.59s.73-.57,2-.82a38.5,38.5,0,0,0,4.48-.87,9.7,9.7,0,0,0,3.58-2.32C1682,683.26,1682.48,682.64,1682.76,682.74Z"/><path class="cls-1" d="M1392.78,737.07c-5-4.89-9.93-9.76-15.19-14.22a119,119,0,0,0-16.72-11.92,80.74,80.74,0,0,0-18.44-8.15,66,66,0,0,0-19.54-2.9,63.61,63.61,0,0,0-19.29,3.27,155.19,155.19,0,0,0-18.2,7.58c-2.94,1.55-6,3-8.83,4.78l-2.2,1.26c-.74.42-1.48.83-2.18,1.31-1.42.92-2.86,1.83-4.32,2.73-.71.47-1.47.87-2.17,1.37s-1.41,1-2.13,1.45l-4.32,2.87c-2.87,1.95-5.66,4-8.69,5.9l-.68-.68c2-2.92,4.17-5.74,6.43-8.49l3.59-3.95a50.59,50.59,0,0,1,3.76-3.81c1.31-1.22,2.63-2.43,4-3.63a24.93,24.93,0,0,1,2.07-1.73l2.13-1.66,2.15-1.65,1.08-.82,1.13-.75,4.58-3a74.07,74.07,0,0,1,20.31-8.33,80.69,80.69,0,0,1,22-1.77,73,73,0,0,1,21.39,4.54,86.35,86.35,0,0,1,19,10.16,122.83,122.83,0,0,1,16.13,13.79c2.47,2.5,4.85,5.09,7.16,7.71s4.49,5.36,6.72,8Z"/><path class="cls-1" d="M1387.91,731.24a10,10,0,0,1-4.15,1.15,22.73,22.73,0,0,1-4.29-.11c-2.83-.3-5.62-1-8.33-1.29a6.94,6.94,0,0,0-1.89,0,1.46,1.46,0,0,0-.34.11l-.43.23-.91.5c-1.23.68-2.49,1.36-3.75,2a84.87,84.87,0,0,1-7.79,3.49,98.69,98.69,0,0,1-16.38,4.84,105.43,105.43,0,0,1-17,2.1c-11.59.56-23.1-1.8-33.77-5.74a143.62,143.62,0,0,1-15.61-6.89,119.24,119.24,0,0,1-14.59-8.73l.21-.36c10.35,4.49,20.74,8.69,31.34,12.09,5.3,1.69,10.62,3.22,16,4.43a68,68,0,0,0,16.34,1.89,102,102,0,0,0,16.58-1.45,96.27,96.27,0,0,0,16.14-4.15q3.95-1.37,7.77-3.09c1.27-.57,2.53-1.18,3.79-1.8l1-.47.51-.24a2.94,2.94,0,0,1,.68-.18,8.15,8.15,0,0,1,2.32.09c2.86.48,5.53,1.29,8.29,1.72a22.69,22.69,0,0,0,4.13.36,9.51,9.51,0,0,0,4-.84Z"/><path class="cls-1" d="M1335.33,747.16c-.19-.54,1.6-1.63,3.31-3.4s2.82-3.54,3.36-3.35c.25.09.3.72,0,1.63a8.41,8.41,0,0,1-5.06,5.12C1336.05,747.46,1335.43,747.41,1335.33,747.16Z"/><path class="cls-1" d="M1311.37,749.86c-.13-.56,2.5-1.57,5.4-3.32s5.06-3.54,5.49-3.17-1.24,3-4.47,4.89S1311.45,750.38,1311.37,749.86Z"/><path class="cls-1" d="M1296,745.51c0-.57,2.13-1.11,4.52-2.23s4.22-2.37,4.63-2c.19.19,0,.79-.69,1.54a9.84,9.84,0,0,1-6.84,3.14C1296.66,746,1296.05,745.78,1296,745.51Z"/><path class="cls-1" d="M1280.44,738.89c0-.57,1.77-1,3.79-1.69s3.68-1.42,4-1-1,2.06-3.39,2.87S1280.41,739.43,1280.44,738.89Z"/><path class="cls-1" d="M1350.88,696.12c.55-.15,1.52,1.83,3.11,3.89s3.21,3.54,2.92,4c-.14.23-.78.14-1.65-.31a9.57,9.57,0,0,1-4.52-5.94C1350.53,696.83,1350.62,696.2,1350.88,696.12Z"/><path class="cls-1" d="M1329.74,688.06c.53-.21,1.9,2.12,4.08,4.5s4.32,4,4.06,4.52c-.13.23-.87.13-1.93-.38a12.87,12.87,0,0,1-6-6.67C1329.52,688.92,1329.49,688.17,1329.74,688.06Z"/><path class="cls-1" d="M1301.57,686.63c.48-.3,2.33,1.87,4.88,4.15s4.88,3.93,4.62,4.44-3.19-.43-6-3S1301.11,686.9,1301.57,686.63Z"/><path class="cls-1" d="M1274.58,693.68c.2-.19,1,.35,2.23,1.28a36.91,36.91,0,0,0,4.73,3.31,14.14,14.14,0,0,0,5.27,1.7c1.43.16,2.37,0,2.47.32s-.77.88-2.44,1.1a10.57,10.57,0,0,1-6.25-1.36,16.59,16.59,0,0,1-4.76-4.05C1274.83,694.74,1274.38,693.87,1274.58,693.68Z"/><path class="cls-1" d="M1256.52,707.52c.26-.13.78.44,1.68,1.14a9.7,9.7,0,0,0,3.82,1.89,38.49,38.49,0,0,0,4.55.34c1.24.11,2,.32,2,.59s-.73.57-2,.82c-.62.12-1.33.25-2.18.33a9,9,0,0,1-2.9-.14,7.48,7.48,0,0,1-4.42-2.88C1256.38,708.5,1256.28,707.63,1256.52,707.52Z"/><path class="cls-1" d="M1068.91,903.38a20.34,20.34,0,0,1-3.85,15.09,23.72,23.72,0,0,1-22.24,9.41,22.71,22.71,0,0,1-8.41-2.91,22,22,0,0,1-6.73-6.21,20.53,20.53,0,0,1-2.69-18,22.15,22.15,0,0,1,4.61-7.9,22.92,22.92,0,0,1,7.18-5.24,24,24,0,0,1,8.37-2.12,23.68,23.68,0,0,1,15.64,4.58A20.33,20.33,0,0,1,1068.91,903.38Zm-.41.06a18.38,18.38,0,0,0-8.22-12.56,21.33,21.33,0,0,0-27.9,4.26,18.07,18.07,0,0,0,4,26.83,21.33,21.33,0,0,0,27.92-4.11A18.38,18.38,0,0,0,1068.51,903.44Z"/><path class="cls-1" d="M1049.44,844.44c-.38.06-.82-1.4-2-3.73a32.72,32.72,0,0,0-6.53-8.76,101.92,101.92,0,0,0-13-10.38c-2.6-1.85-5.37-3.78-8.19-5.95a48.11,48.11,0,0,1-8.3-7.75,18.56,18.56,0,0,1-3.09-5.45,18.37,18.37,0,0,1-1-6,31.06,31.06,0,0,1,2.16-10.61,88.38,88.38,0,0,1,8.06-15.41c2.61-4.12,4.8-7.35,6.32-9.59s2.44-3.44,2.76-3.3,0,1.66-1,4.21-2.77,6.11-5,10.41a116.48,116.48,0,0,0-6.79,15.19,28.23,28.23,0,0,0-1.61,9,13.89,13.89,0,0,0,.78,4.41,14,14,0,0,0,2.33,4,47.66,47.66,0,0,0,7.4,7c2.67,2.13,5.36,4.13,7.91,6.1a80.47,80.47,0,0,1,12.86,11.7,32.4,32.4,0,0,1,3.86,5.64,21.44,21.44,0,0,1,1.89,4.83C1050,842.81,1049.73,844.4,1049.44,844.44Z"/><path class="cls-1" d="M950.5,742.5c-.26.22-1.69-1-3.56-3.78A51.23,51.23,0,0,1,941,726a71.6,71.6,0,0,1-3.22-20.65v-3c0-1,.1-2,.15-3.06l.2-3.12c.07-1.05.26-2.1.38-3.16.49-4.15,1.22-8.93,3.71-13.27l1-1.6c.35-.52.76-1,1.14-1.49l.58-.73.67-.66c.46-.43.88-.89,1.37-1.27a19.82,19.82,0,0,1,6.42-3.41,25.79,25.79,0,0,1,6.72-1,34.91,34.91,0,0,1,6.29.52,51,51,0,0,1,10.89,3.22,66.86,66.86,0,0,1,8.71,4.4,53.68,53.68,0,0,1,11.13,8.57c2.33,2.41,3.13,4.17,2.87,4.34s-1.55-1-4.15-2.88a82,82,0,0,0-11.54-6.93,76.47,76.47,0,0,0-8.5-3.63,51.33,51.33,0,0,0-10.1-2.53,31.91,31.91,0,0,0-5.46-.3,21.76,21.76,0,0,0-5.39.92,15.27,15.27,0,0,0-4.74,2.58c-.36.28-.66.63-1,.94l-.5.48-.43.56c-.28.38-.6.72-.86,1.12l-.74,1.24a8.24,8.24,0,0,0-.66,1.31l-.6,1.34c-.29,1-.65,1.87-.88,2.84s-.47,1.91-.62,2.94l-.45,3c-.14,1-.34,2-.42,3l-.26,3c-.07,1-.22,1.94-.22,2.89l-.07,2.83a79.71,79.71,0,0,0,2,19.7,75.87,75.87,0,0,0,4.27,12.74C949.92,740.71,950.77,742.28,950.5,742.5Z"/><path class="cls-1" d="M1003.55,872.17c-.35,0-.68-.66-1-1.81-.15-.58-.3-1.28-.43-2.08s-.36-1.71-.54-2.72c-.1-.5-.17-1-.28-1.57l-.38-1.67c-.13-.58-.23-1.18-.39-1.78l-.5-1.85c-.28-1.28-.81-2.55-1.21-3.9s-1-2.67-1.7-4a49.2,49.2,0,0,0-4.3-7.25c-1.54-2.13-3.07-4-4.34-5.65-2.6-3.24-4-5.55-3.5-6s2.73.89,6,3.55a47.54,47.54,0,0,1,5.44,5.27,36.25,36.25,0,0,1,5.2,7.95,38.8,38.8,0,0,1,1.83,4.59,39.63,39.63,0,0,1,1.06,4.45l.34,2.09c.09.68.11,1.34.16,2l.11,1.85c0,.59,0,1.16,0,1.7,0,1.08-.08,2.06-.2,2.9s-.27,1.58-.42,2.17C1004.22,871.54,1003.9,872.18,1003.55,872.17Z"/><path class="cls-1" d="M1477.5,155.5c-.25.52-9.1-3.67-25.72-9.49-8.32-2.88-18.57-6.18-30.68-9.23-6-1.57-12.57-3-19.5-4.41s-14.32-2.6-22.09-3.63-16-1.84-24.5-2.36-17.44-.69-26.65-.51-18.71.84-28.45,1.94A285.73,285.73,0,0,0,1209,153.74a296.25,296.25,0,0,0-30,16.55,319.5,319.5,0,0,0-28.63,20.63A352.62,352.62,0,0,0,1101.08,240a455.52,455.52,0,0,0-37.48,53.13,556.58,556.58,0,0,0-27.74,52.05c-2,4.15-3.84,8.33-5.67,12.4l-2.7,6.06c-.9,2-1.69,4-2.54,6l-4.85,11.66-4.4,11.26c-11.35,29.4-18.85,53.83-23.92,70.74l-1.83,6-1.53,5.27c-1,3.26-1.78,6-2.47,8.25-1.38,4.45-2.22,6.76-2.45,6.7s.15-2.48,1.08-7c.47-2.28,1.08-5.1,1.82-8.43.38-1.66.76-3.46,1.22-5.36l1.53-6.07a714.15,714.15,0,0,1,21.91-71.74l4.21-11.42,4.68-11.83c.81-2,1.58-4.06,2.46-6.08l2.63-6.15c1.78-4.14,3.54-8.37,5.54-12.59a537.31,537.31,0,0,1,27.47-52.93,448.58,448.58,0,0,1,37.72-54.17,352.35,352.35,0,0,1,50.18-50.2,320.63,320.63,0,0,1,29.32-21.07A297.91,297.91,0,0,1,1206,147.54a286.41,286.41,0,0,1,93.21-25.86c9.95-1,19.65-1.57,29-1.62s18.43.29,27.1.93,17,1.68,24.83,2.85,15.31,2.66,22.31,4.17,13.54,3.22,19.6,5a307.84,307.84,0,0,1,30.62,10.46c8.23,3.32,14.48,6.24,18.62,8.39S1477.6,155.3,1477.5,155.5Z"/><path class="cls-1" d="M1069.5,581.5c-.43-.22,3.07-7.88,9.8-21.59,1.7-3.42,3.52-7.25,5.68-11.36l7.26-13.25,8.41-15.21,10.1-16.66,5.45-9c.9-1.54,1.94-3,2.95-4.55l3.07-4.61,6.33-9.5,3.26-4.88c1.1-1.64,2.18-3.32,3.39-4.92l14.71-20.13c1.23-1.75,2.62-3.41,4-5.12l4.1-5.13,8.37-10.46,2.13-2.66,2.25-2.58,4.55-5.2,9.27-10.58c1.53-1.81,3.22-3.49,4.87-5.23l5-5.21c3.37-3.47,6.7-7.05,10.19-10.53l10.83-10.27,5.48-5.2c1.87-1.7,3.83-3.32,5.75-5l11.66-10.05c4-3.26,8.16-6.41,12.27-9.65l6.18-4.81,6.36-4.49,6.32-4.46,3.14-2.22,1.57-1.1,1.62-1,12.83-8.14c1.06-.67,2.11-1.35,3.18-2l3.26-1.85,6.48-3.67,6.42-3.64c2.14-1.18,4.35-2.22,6.51-3.33l6.47-3.26,3.21-1.61,1.6-.8,1.63-.72,12.9-5.72c2.11-1,4.29-1.76,6.43-2.6l6.4-2.47c2.12-.8,4.21-1.66,6.33-2.4l6.35-2.1,6.26-2.07c1-.33,2.06-.71,3.1-1l3.12-.87,12.26-3.4,12-2.75a331.28,331.28,0,0,1,44.46-6.27,306.13,306.13,0,0,1,37-.06c5.43.49,10.49.83,15.11,1.54l3.39.45c1.11.14,2.19.3,3.23.5l6,1.07c1.89.31,3.65.78,5.31,1.14s3.21.73,4.63,1.1c2.84.82,5.24,1.49,7.16,2.12,3.81,1.37,5.75,2.2,5.68,2.43-.19.59-8.21-2.06-23.23-4.09l-5.94-.75c-1-.15-2.11-.26-3.21-.34l-3.37-.3c-4.58-.5-9.58-.64-14.94-.94a332.19,332.19,0,0,0-36.44,1.08,345.1,345.1,0,0,0-43.59,7L1392,279l-12,3.5-3.05.89c-1,.3-2,.68-3,1l-6.13,2.11-6.21,2.13c-2.07.75-4.12,1.61-6.19,2.42l-6.26,2.48c-2.09.85-4.23,1.62-6.29,2.61l-12.63,5.72-1.6.72-1.57.8L1323.9,305l-6.34,3.24c-2.11,1.1-4.28,2.14-6.38,3.31l-6.29,3.61-6.35,3.64-3.2,1.83c-1,.64-2.08,1.32-3.12,2l-12.6,8-1.59,1-1.54,1.09-3.09,2.19-6.21,4.4-6.26,4.42-6.08,4.74c-4.05,3.19-8.13,6.29-12.09,9.5l-11.52,9.89c-1.9,1.65-3.83,3.24-5.68,4.91l-5.43,5.11-10.73,10.09c-3.47,3.42-6.77,6.94-10.12,10.35l-5,5.12c-1.64,1.7-3.33,3.35-4.85,5.14L1180.22,419l-4.55,5.11-2.25,2.53-2.13,2.61-8.4,10.27-4.12,5c-1.36,1.67-2.75,3.3-4,5l-14.86,19.75c-1.23,1.57-2.32,3.22-3.44,4.83l-3.32,4.79-6.46,9.31-3.14,4.52c-1,1.5-2.09,2.95-3,4.46l-5.62,8.78-10.47,16.31-8.83,14.86-7.73,12.92c-2.32,4-4.32,7.73-6.2,11C1074.26,574.47,1069.93,581.72,1069.5,581.5Z"/><path class="cls-1" d="M1026.5,503.5c-.43-.22,3.07-7.88,9.8-21.59,1.7-3.42,3.52-7.25,5.68-11.36l7.26-13.25,8.41-15.21,10.1-16.66,5.45-9c.9-1.54,1.94-3,2.95-4.55l3.07-4.61,6.33-9.5,3.26-4.88c1.1-1.64,2.18-3.32,3.39-4.92l14.71-20.13c1.23-1.75,2.62-3.41,4-5.12l4.1-5.13,8.37-10.46,2.13-2.66,2.25-2.58,4.55-5.2,9.27-10.58c1.53-1.81,3.22-3.49,4.87-5.23l5-5.21c3.37-3.47,6.7-7.05,10.19-10.53l10.83-10.27,5.48-5.2c1.87-1.7,3.83-3.32,5.75-5l11.66-10.05c4-3.26,8.16-6.41,12.27-9.65l6.18-4.81,6.36-4.49,6.32-4.46,3.14-2.22,1.57-1.1,1.62-1,12.83-8.14c1.06-.67,2.11-1.35,3.18-2l3.26-1.85,6.48-3.67,6.42-3.64c2.14-1.18,4.35-2.22,6.51-3.33l6.47-3.26,3.21-1.61,1.6-.8,1.63-.72,12.9-5.72c2.11-1,4.29-1.76,6.43-2.6l6.4-2.47c2.12-.8,4.21-1.66,6.33-2.4l6.35-2.1,6.26-2.07c1-.33,2.06-.71,3.1-1l3.12-.87,12.26-3.4,12-2.75a331.28,331.28,0,0,1,44.46-6.27,306.13,306.13,0,0,1,37-.06c5.43.49,10.49.83,15.11,1.54l3.39.45c1.11.14,2.19.3,3.23.5l6,1.07c1.89.31,3.65.78,5.31,1.14s3.21.73,4.63,1.1c2.84.82,5.24,1.49,7.16,2.12,3.81,1.37,5.75,2.2,5.68,2.43-.19.59-8.21-2.06-23.23-4.09l-5.94-.75c-1-.15-2.11-.26-3.21-.34l-3.37-.3c-4.58-.5-9.58-.64-14.94-.94a332.19,332.19,0,0,0-36.44,1.08,345.1,345.1,0,0,0-43.59,7L1349,201l-12,3.5-3.05.89c-1,.3-2,.68-3,1l-6.13,2.11-6.21,2.13c-2.07.75-4.12,1.61-6.19,2.42l-6.26,2.48c-2.09.85-4.23,1.62-6.29,2.61l-12.63,5.72-1.6.72-1.57.8L1280.9,227l-6.34,3.24c-2.11,1.1-4.28,2.14-6.38,3.31l-6.29,3.61-6.35,3.64-3.2,1.83c-1,.64-2.08,1.32-3.12,2l-12.6,8-1.59,1-1.54,1.09-3.09,2.19-6.21,4.4-6.26,4.42-6.08,4.74c-4.05,3.19-8.13,6.29-12.09,9.5l-11.52,9.89c-1.9,1.65-3.83,3.24-5.68,4.91l-5.43,5.11-10.73,10.09c-3.47,3.42-6.77,6.94-10.12,10.35l-5,5.12c-1.64,1.7-3.33,3.35-4.85,5.14L1137.22,341l-4.55,5.11-2.25,2.53-2.13,2.61-8.4,10.27-4.12,5c-1.36,1.67-2.75,3.3-4,5l-14.86,19.75c-1.23,1.57-2.32,3.22-3.44,4.83l-3.32,4.79-6.46,9.31-3.14,4.52c-1,1.5-2.09,2.95-3,4.46l-5.62,8.78-10.47,16.31-8.83,14.86-7.73,12.92c-2.32,4-4.32,7.73-6.2,11C1031.26,496.47,1026.93,503.72,1026.5,503.5Z"/><path class="cls-1" d="M1741.5,459.5c-.87,0-1.18-15.22-5.45-39.28A247.84,247.84,0,0,0,1724.86,379l-1-2.85-1.16-2.84c-.79-1.9-1.55-3.84-2.39-5.76l-2.66-5.78c-.43-1-.92-1.94-1.42-2.9l-1.49-2.89a173.05,173.05,0,0,0-14.2-22.89A154.57,154.57,0,0,0,1682.66,313,132.58,132.58,0,0,0,1663,297.51c-1.64-1.15-3.35-2.12-5-3.11s-3.3-2-5-2.83l-5-2.57-4.94-2.23-2.42-1.08-2.43-.93-4.72-1.81-4.63-1.49c-1.51-.49-3-1-4.46-1.34-2.94-.74-5.71-1.6-8.4-2.09s-5.19-1.18-7.59-1.49-4.61-.78-6.67-1l-5.64-.66c-1.7-.24-3.21-.35-4.52-.45s-2.43-.22-3.33-.32c-1.8-.21-2.75-.4-2.75-.57s.95-.32,2.77-.43c.91-.06,2-.11,3.36-.15s2.87-.1,4.59,0l5.76.23c2.1.13,4.38.41,6.83.65s5,.72,7.81,1.14,5.64,1.14,8.68,1.79c1.53.31,3.05.76,4.62,1.21l4.8,1.38,4.91,1.72,2.53.89,2.52,1c1.69.71,3.42,1.42,5.15,2.18l5.19,2.54c1.78.82,3.47,1.86,5.23,2.83s3.54,2,5.25,3.13A131.85,131.85,0,0,1,1686,309.41a153,153,0,0,1,18.5,20.71A169.91,169.91,0,0,1,1719,353.73l1.51,3c.51,1,1,2,1.43,3l2.67,6c.84,2,1.59,4,2.38,5.92l1.15,2.92,1,2.93a225.12,225.12,0,0,1,10.35,42.22,248.66,248.66,0,0,1,2.46,29.13C1742,455.68,1741.84,459.49,1741.5,459.5Z"/><path class="cls-1" d="M1732.5,351.5c-.67.2-3.67-8.06-10.19-20.61a242.38,242.38,0,0,0-12.49-21.39,223.37,223.37,0,0,0-18.26-24.12A202.45,202.45,0,0,0,1670,264.23a206.48,206.48,0,0,0-19.88-14.69c-11.91-7.57-19.92-11.3-19.59-12,.21-.53,8.77,2.06,21.42,9a162.63,162.63,0,0,1,21,14.16,176.37,176.37,0,0,1,22.43,21.42A191.2,191.2,0,0,1,1713.7,307a183.1,183.1,0,0,1,11.79,22.34C1731.31,342.53,1733.16,351.33,1732.5,351.5Z"/><path class="cls-1" d="M1360.5,1892.5c-.42.06-1.15-5.08-1-14.33.06-4.62.31-10.28,1-16.83a174.14,174.14,0,0,1,3.54-22.12,109,109,0,0,1,3.65-12.6,67.62,67.62,0,0,1,6.17-13,40.73,40.73,0,0,1,4.75-6.16,29,29,0,0,1,3-2.78,34.71,34.71,0,0,1,3.42-2.36,41.94,41.94,0,0,1,7.55-3.41,56.42,56.42,0,0,1,8.17-2c11.18-1.81,22.94-.9,34.75,1.06a295.5,295.5,0,0,1,35.87,8.8l9,2.74c.73.22,1.49.47,2.2.67l2.09.55c1.46.29,2.89.62,4.38.85,5.91,1,11.87,1.65,17.73,2.24,11.73,1.15,23.11,1.9,33.95,2.56,21.69,1.28,41.26,2.06,57.69,2.64s29.74.9,38.93,1.07,14.26.09,14.29.43-5.05,1.13-14.27,1.52-22.55.64-39,.52-36.09-.54-57.86-1.57c-10.89-.54-22.31-1.19-34.16-2.28-5.93-.56-12-1.19-18.11-2.21-1.53-.23-3.1-.58-4.66-.9L1481,1815c-.78-.22-1.49-.45-2.24-.67l-8.94-2.73a304.52,304.52,0,0,0-35.26-8.76c-11.49-2-22.81-2.91-33.19-1.34a52.48,52.48,0,0,0-7.5,1.72,37.85,37.85,0,0,0-6.76,2.93,29.72,29.72,0,0,0-9.84,9.73,65,65,0,0,0-6,12.13,109.8,109.8,0,0,0-3.84,12.1,190.44,190.44,0,0,0-4.2,21.6c-.89,6.44-1.42,12-1.78,16.59s-.53,8.13-.64,10.54S1360.67,1892.47,1360.5,1892.5Z"/><path class="cls-1" d="M1328.5,2013.5c-.1.08-1-1.08-1.9-3.61a92,92,0,0,1-2.89-11.23c-2.05-9.84-4.09-24.23-6.56-41.92-.61-4.4-1.51-9-2.09-13.94a54,54,0,0,1,.3-15.75,45.8,45.8,0,0,1,6.27-15.8,59.52,59.52,0,0,1,5.24-7.12,30.26,30.26,0,0,1,6.93-6.31,30.82,30.82,0,0,1,8.84-3.92,42,42,0,0,1,9.62-1.37,87.66,87.66,0,0,1,19.35,2c3.2.61,6.38,1.3,9.57,2a79.54,79.54,0,0,0,9.45,1.49c.8.08,1.45.05,2.33.1l2.6.1c1.74.06,3.39.22,5.1.33,3.39.25,6.77.57,10.18.87,27.23,2.61,53.05,5.62,76.56,8.22,11.75,1.31,22.92,2.55,33.37,3.63q3.92.41,7.69.75c2.52.25,5,.43,7.38.6a81.91,81.91,0,0,0,13.71-.34,147.84,147.84,0,0,0,23.34-4.86c6.81-1.92,12.67-3.72,17.48-5.11,9.62-2.81,15-4,15.13-3.71s-5.11,2.19-14.53,5.56c-4.71,1.68-10.48,3.75-17.27,5.94a140.57,140.57,0,0,1-23.72,5.7,83.52,83.52,0,0,1-14.32.68c-2.47-.13-5-.26-7.52-.46s-5.13-.39-7.75-.62c-10.5-.9-21.7-2-33.47-3.17-23.54-2.35-49.41-5.22-76.54-7.82-3.39-.3-6.76-.62-10.09-.87-1.65-.11-3.35-.27-5-.33l-2.41-.1c-.79,0-1.81,0-2.66-.12a82.87,82.87,0,0,1-10.08-1.61c-3.23-.67-6.39-1.37-9.51-2a84.11,84.11,0,0,0-18.27-2c-5.88.13-11.53,1.45-16.09,4.38a25.8,25.8,0,0,0-6,5.38,55.7,55.7,0,0,0-4.94,6.54,41.9,41.9,0,0,0-5.92,14.23,50.65,50.65,0,0,0-.54,14.57c.46,4.75,1.25,9.4,1.76,13.88,2,17.81,3.52,32.17,5,42,.71,4.94,1.39,8.74,1.94,11.29S1328.68,2013.38,1328.5,2013.5Z"/><path class="cls-1" d="M1459.5,2172.5c.1.07-.66,1.49-2.92,3.52a22.7,22.7,0,0,1-12.07,5.23,40,40,0,0,1-9.58.07,65.85,65.85,0,0,1-11.09-2.26,128.52,128.52,0,0,1-25.15-10.8,230.49,230.49,0,0,1-27.72-18c-4.75-3.59-9.54-7.45-14.28-11.71-2.36-2.14-4.72-4.37-7-6.84a27.75,27.75,0,0,1-3.26-4.18l-1.27-2.31c-.45-.77-.73-1.56-1.1-2.34a148.12,148.12,0,0,1-6.78-19.57c-1.92-6.74-3.59-13.69-5.07-20.81-.78-3.55-1.42-7.16-2.12-10.79s-1.28-7.31-1.79-11c-1.14-7.42-2-15-2.59-22.7l-.41-5.76-.23-5.74c-.12-1.87,0-3.92,0-5.9l.34-3c.14-1,.41-2,.61-3a26.42,26.42,0,0,1,5.49-10.81,28.68,28.68,0,0,1,9.47-7.12,46.23,46.23,0,0,1,10.74-3.5,80,80,0,0,1,10.76-1.39,175.3,175.3,0,0,1,20.64.13c3.32.17,6.59.37,9.74.44.78,0,1.57,0,2.32,0l1.13,0h1.28l2.55,0,2.43.23c6.43.67,12.45,1.82,18.27,3,11.61,2.39,22.3,5,32.06,7.33s18.59,4.57,26.3,5.91a31.45,31.45,0,0,0,10.64-.2,85.6,85.6,0,0,0,9-1.94c5.37-1.45,9.48-2.88,12.27-3.83s4.27-1.46,4.34-1.29-1.27,1-4,2.23a106.35,106.35,0,0,1-12.1,4.77,79.25,79.25,0,0,1-9.15,2.42,50.16,50.16,0,0,1-5.42.79c-.47.06-1,.06-1.45.09a10.12,10.12,0,0,1-1.5,0,29.8,29.8,0,0,1-3.08-.27c-4-.51-8.22-1.37-12.68-2.25s-9.12-1.91-14-3c-9.81-2.11-20.53-4.52-32.07-6.71-5.76-1.08-11.76-2.13-17.85-2.68l-2.28-.19h-3.32l-1.28.06c-.85,0-1.68,0-2.51,0-3.31,0-6.58-.21-9.89-.35a174.7,174.7,0,0,0-20.1,0c-6.73.52-13.64,1.61-19.7,4.53a23.83,23.83,0,0,0-7.85,5.92,21.5,21.5,0,0,0-4.42,8.81c-.16.84-.39,1.66-.51,2.51l-.29,2.59c0,1.77-.12,3.48,0,5.39l.23,5.63.4,5.66c.61,7.56,1.42,15,2.53,22.36.49,3.67,1.15,7.29,1.73,10.89s1.29,7.15,2,10.66c1.43,7,3,13.89,4.88,20.52a146.7,146.7,0,0,0,6.38,19c.33.72.61,1.5,1,2.15l1.08,2a23.61,23.61,0,0,0,2.71,3.52c2.07,2.32,4.33,4.51,6.6,6.61,4.56,4.2,9.22,8.07,13.84,11.67a238.84,238.84,0,0,0,26.93,18.25,132.11,132.11,0,0,0,24.24,11.21,66.43,66.43,0,0,0,10.57,2.57,39.84,39.84,0,0,0,9.06.36,23.3,23.3,0,0,0,11.67-4.09C1458.31,2173.55,1459.33,2172.35,1459.5,2172.5Z"/><path class="cls-1" d="M1463.5,2158.5s0,.17-.18.43a8.85,8.85,0,0,0-.58,1.17,27.71,27.71,0,0,0-1.44,4.82,139.71,139.71,0,0,0-2.3,18.53c-.58,7.89-1,17.3-1.2,27.77-.12,5.23-.2,10.73-.24,16.42l0,8.69c0,2.95,0,5.93.11,8.9a109.83,109.83,0,0,0,2.5,17.29c1.2,5.54,2.65,10.83,4.15,15.83,3,10,6.19,18.88,8.8,26.37s4.68,13.58,5.74,17.91a26.61,26.61,0,0,1,.86,5.07c0,.3,0,.56,0,.78l-.06.57q-.06.45-.11.45s-.07-.16-.09-.46l0-.55-.12-.75a35.92,35.92,0,0,0-1.21-4.91c-1.28-4.22-3.53-10.22-6.32-17.63s-6.11-16.27-9.23-26.31c-1.56-5-3.06-10.34-4.3-15.94a108.61,108.61,0,0,1-2.59-17.6c-.16-3.08-.11-6.07-.1-9l.07-8.7c.07-5.71.19-11.21.36-16.45.33-10.49.87-19.93,1.63-27.84a115.9,115.9,0,0,1,3-18.6,22,22,0,0,1,1.84-4.82,5.43,5.43,0,0,1,.78-1.11Q1463.46,2158.47,1463.5,2158.5Z"/><path class="cls-1" d="M1711.5,1949.5c-.24-.1.09-1.67.87-4.4.38-1.37.72-3.07,1.22-5l.59-3.15c.1-.56.23-1.12.31-1.72l.22-1.82a58.09,58.09,0,0,0-.39-17.39,55.8,55.8,0,0,0-7.8-19.65,72.44,72.44,0,0,0-6.67-8.82,87.05,87.05,0,0,0-7.39-7.27c-2.5-2.17-5-4.08-7.42-5.8s-4.74-3.19-6.93-4.45c-8.7-5.15-14.78-7-14.62-7.52s6.58.49,15.88,5.19c2.33,1.14,4.79,2.58,7.39,4.2a89.24,89.24,0,0,1,7.91,5.75,81,81,0,0,1,7.89,7.45,70.1,70.1,0,0,1,7.11,9.28,55.56,55.56,0,0,1,8,21.08,54.6,54.6,0,0,1-.4,18.38l-.36,1.88c-.13.61-.31,1.19-.45,1.75-.31,1.13-.59,2.2-.89,3.19-.71,1.94-1.27,3.62-1.87,4.94C1712.52,1948.21,1711.74,1949.6,1711.5,1949.5Z"/><path class="cls-1" d="M1639.5,2013.5c-.56-.17.72-5.14,2-13.2a103.54,103.54,0,0,0,1.34-14.18,68.53,68.53,0,0,0-.34-8.32,50.59,50.59,0,0,0-1.6-8.71,40,40,0,0,0-7.6-15,37,37,0,0,0-10.63-8.81,41.75,41.75,0,0,0-8.77-3.59c-2.18-.61-3.44-.88-3.43-1.16s1.32-.47,3.69-.28a30.52,30.52,0,0,1,9.7,2.65,35.92,35.92,0,0,1,12.07,8.94,40.56,40.56,0,0,1,8.59,16.27,49.71,49.71,0,0,1,1.64,9.36,63.09,63.09,0,0,1,.14,8.79,80.16,80.16,0,0,1-2.19,14.58C1642.11,2008.95,1639.93,2013.64,1639.5,2013.5Z"/><path class="cls-1" d="M1581.5,2076.5c-.26,0-.39-1-.41-2.8l-.14-3.18c-.14-1.22-.18-2.62-.45-4.12a31.34,31.34,0,0,0-3.19-10,29.36,29.36,0,0,0-3.48-5.06,32.16,32.16,0,0,0-4.85-4.53,50.2,50.2,0,0,0-11.42-6.36c-3.78-1.55-7.32-2.67-10.33-3.57-6-1.76-9.84-2.83-9.73-3.37s4-.34,10.35.79a70.69,70.69,0,0,1,10.95,2.93,46.19,46.19,0,0,1,12.46,6.6,32.62,32.62,0,0,1,5.38,5.14,29.82,29.82,0,0,1,3.75,5.88,29.45,29.45,0,0,1,2.74,11.31,34.22,34.22,0,0,1-.09,4.41c-.17,1.28-.3,2.39-.51,3.27C1582.11,2075.6,1581.76,2076.54,1581.5,2076.5Z"/><path class="cls-1" d="M1636.5,1275.5c0-.17,1-.2,2.93-.08s4.77.32,8.47.85a213.77,213.77,0,0,1,32.08,6.79,216,216,0,0,1,47.76,20.64c4.39,2.54,8.87,5.29,13.43,8.18l14,9c9.56,6,19.77,12.13,31.52,14.29l4.79,1.06,2.42.54c.8.19,1.58.42,2.37.63,3.15.87,6.39,1.67,9.57,2.63l9.68,2.85,9.83,3c13.22,4.06,26.93,8.38,41.16,12.64s29,8.54,44.22,12.74l11.54,3c3.88,1,7.77,2.09,11.72,3l11.91,2.89c2,.48,4,1,6,1.44L1958,1383c32.53,7.24,66.93,13.25,103.05,16,9.16.93,18.42,1.62,27.68,3.15l7,1c1.16.17,2.33.33,3.49.52l3.48.68,14,2.74a314.91,314.91,0,0,1,55.31,17.71,281.34,281.34,0,0,1,50.67,28.44l5.82,4.13c1.94,1.37,3.8,2.81,5.7,4.21,3.8,2.8,7.47,5.66,11.17,8.49s7.3,5.68,10.94,8.39l2.72,2.05,1.36,1,1.43,1.11c.94.75,1.93,1.47,2.83,2.26l2.72,2.36a141,141,0,0,1,18.59,20.94,265.4,265.4,0,0,1,14.84,22.58c9.07,15.25,16.88,30.61,24.62,45.42s15.3,29.17,23.89,42.11l1.62,2.4c.54.81,1.09,1.71,1.63,2.55l3.23,5.13c1.12,1.69,2,3.42,3,5.14l2.85,5.13c1.95,3.39,3.66,6.82,5.41,10.2s3.53,6.73,5.14,10.09c13.24,26.8,24.65,52.1,35.06,75.2,20.69,46.25,37.09,83.77,48.85,109.5l7.88,17.06,5.9,12.44c3.34,6.63,5,10.22,4.67,10.39s-2.5-3.07-6.45-9.44c-1.88-3.23-4.13-7.27-6.78-12.05s-5.49-10.4-8.73-16.71c-12.86-25.28-30.28-62.41-51.77-108.24-10.8-22.88-22.57-48-36-74.41-1.64-3.33-3.46-6.58-5.2-9.91s-3.5-6.7-5.43-10l-2.83-5c-.95-1.66-1.88-3.35-2.94-4.91l-3.09-4.79c-.53-.81-1-1.6-1.57-2.42l-1.72-2.5c-4.58-6.69-8.74-13.71-12.82-20.86s-8-14.47-11.93-21.87c-7.87-14.79-15.73-30-24.66-44.81a258.45,258.45,0,0,0-14.42-21.71,132.07,132.07,0,0,0-17.36-19.43l-2.45-2.12c-.82-.71-1.69-1.33-2.53-2l-1.28-1-1.39-1-2.78-2.08c-3.74-2.77-7.35-5.61-11-8.42s-7.34-5.64-11.06-8.37c-1.86-1.37-3.7-2.79-5.6-4.11l-5.68-4a273.69,273.69,0,0,0-49-27.42,308,308,0,0,0-53.5-17.17l-13.6-2.69-3.38-.67c-1.13-.19-2.27-.34-3.41-.51l-6.8-1c-9-1.53-18.1-2.23-27.06-3.17l-13.59-1.36-6.78-.67c-2.25-.25-4.51-.4-6.74-.74l-13.32-1.83-6.61-.91-6.54-1.11-13-2.22c-2.16-.34-4.28-.79-6.41-1.22l-6.36-1.28c-4.22-.87-8.44-1.66-12.59-2.58l-12.38-2.82-6.13-1.4c-2-.46-4-1-6.06-1.5l-12-3c-4-1-7.89-2.1-11.79-3.14l-11.6-3.16c-15.3-4.38-30.1-8.78-44.31-13.29s-27.9-9-41-13.21l-9.75-3.14-9.54-3c-3.15-1-6.26-1.82-9.34-2.73-.77-.22-1.54-.45-2.3-.65l-2.28-.55-4.51-1.09a70.52,70.52,0,0,1-18.23-6.63,169.69,169.69,0,0,1-15.37-9.25l-13.79-9.29q-6.66-4.46-13-8.39a225.65,225.65,0,0,0-46.07-21.74,288.92,288.92,0,0,0-31.26-8.52c-3.62-.85-6.41-1.36-8.27-1.83S1636.48,1275.67,1636.5,1275.5Z"/><path class="cls-1" d="M1141,1271.5c.06.34-4,1.41-11.64,3.45s-19,5-33.43,9.26c-7.22,2.12-15.22,4.57-23.88,7.47s-18,6.24-27.64,10.55a87.57,87.57,0,0,0-14.08,7.67,26.54,26.54,0,0,0-3,2.45,10.57,10.57,0,0,0-2.09,2.62,49.78,49.78,0,0,0-2.94,7.86,108.22,108.22,0,0,0-3.57,36.94l.38,4.94.66,5,.34,2.5.48,2.5,1,5a155.32,155.32,0,0,0,6.05,20.2,184.45,184.45,0,0,0,20.91,39.63,258.82,258.82,0,0,0,31.15,36.89l4.48,4.39,2.25,2.2,2.36,2.11,9.54,8.5,10,8.2,2.53,2.07c.86.67,1.75,1.31,2.62,2l5.28,4,5.32,4c.88.68,1.79,1.32,2.71,1.94l2.76,1.9,11.12,7.64,11.54,7.31,5.82,3.68,6,3.49,12.07,7,12.43,6.71c8.26,4.61,16.91,8.69,25.53,13,2.16,1.07,4.35,2.2,6.39,3.05,1,.48,2.11.89,3.2,1.3s2.16.85,3.29,1.21c4.42,1.57,9.07,2.82,13.73,4.06,9.38,2.35,19,4.21,28.83,5.82,19.59,3.19,39.72,5.36,60.12,7s40.65,2.5,60.59,2.84,39.6.08,58.8-1.09a586.15,586.15,0,0,0,109.51-17.17c4.28-1.1,8.5-2.34,12.71-3.49,2.1-.6,4.21-1.15,6.28-1.77l6.19-1.95,6.15-1.93c2-.65,4.09-1.25,6.08-2l11.94-4.2,3-1,2.91-1.13,5.79-2.27,5.74-2.25,2.86-1.12c.95-.38,1.87-.81,2.81-1.2,7.44-3.27,14.86-6.29,21.9-9.81l10.56-5,10.17-5.35,5-2.64L1681,1525l2.43-1.4,9.59-5.52,4.73-2.72c1.56-.91,3.06-1.91,4.58-2.85l9-5.66,4.43-2.78,4.13-2.9,2-1.44c.66-.5,1.29-1,1.94-1.56l3.83-3.11,3.58-3.31,1.77-1.64,1.66-1.74,3.28-3.45,3-3.6,1.5-1.78,1.39-1.86,2.74-3.68,2.51-3.78,1.24-1.87c.41-.62.76-1.28,1.15-1.92a152.06,152.06,0,0,0,13.93-30.57,203.57,203.57,0,0,0,7.15-28.57,245.54,245.54,0,0,0,3.06-24.69,280.57,280.57,0,0,0,.39-34.52c-.39-7.9-.94-12-.58-12.1s1.54,4,2.59,11.91a216,216,0,0,1,1.49,34.91,230.32,230.32,0,0,1-2.24,25.23,200.52,200.52,0,0,1-6.53,29.52,155,155,0,0,1-13.78,32.09c-.39.67-.74,1.37-1.16,2l-1.26,2-2.56,4-2.82,3.94-1.43,2-1.55,1.92-3.14,3.87-3.41,3.72L1738,1495l-1.85,1.78-3.75,3.58-4,3.37c-.68.56-1.34,1.14-2,1.69l-2.15,1.57c-1.44,1-2.88,2.12-4.34,3.15l-4.44,2.89-9,5.88c-1.53,1-3,2-4.61,3l-4.76,2.83-9.66,5.74-2.45,1.45-2.51,1.37-5.06,2.74-10.27,5.56-10.66,5.25c-7.12,3.65-14.62,6.8-22.15,10.21-.95.42-1.88.85-2.84,1.25l-2.89,1.17-5.82,2.34-5.86,2.36-3,1.18-3,1.09-12.11,4.38c-2,.77-4.1,1.4-6.16,2.07l-6.23,2-6.28,2c-2.11.66-4.24,1.23-6.37,1.85-4.27,1.2-8.55,2.5-12.9,3.65a584.52,584.52,0,0,1-111.23,18c-19.54,1.25-39.42,1.55-59.57,1.26s-40.57-1.2-61.21-2.81-41-3.83-61-7.12c-10-1.66-19.88-3.59-29.65-6.06-4.88-1.31-9.73-2.62-14.53-4.34-1.2-.38-2.4-.88-3.59-1.33s-2.39-.92-3.57-1.47c-2.45-1-4.57-2.16-6.76-3.25-8.71-4.42-17.45-8.59-25.81-13.3l-12.57-6.86-12.22-7.21-6.06-3.58-5.9-3.78-11.69-7.51-11.29-7.86-2.8-2c-.94-.64-1.86-1.3-2.75-2l-5.4-4.1-5.37-4.07c-.89-.68-1.79-1.34-2.66-2l-2.58-2.14-10.22-8.47-9.72-8.81-2.4-2.19-2.3-2.29-4.56-4.56a264.24,264.24,0,0,1-31.79-38.45,190.52,190.52,0,0,1-21.29-41.63,161.25,161.25,0,0,1-6-21.31l-.93-5.32-.46-2.64-.32-2.65-.61-5.25-.32-5.22a113.69,113.69,0,0,1,4.55-39.21,55,55,0,0,1,3.56-8.87,16.46,16.46,0,0,1,3.4-4.18,32.32,32.32,0,0,1,3.75-2.92,67.11,67.11,0,0,1,7.66-4.4c2.55-1.28,5.09-2.42,7.6-3.48a293.52,293.52,0,0,1,28.44-10c8.84-2.66,17-4.83,24.3-6.68,14.68-3.68,26.18-6.06,34-7.48S1140.94,1271.16,1141,1271.5Z"/><path class="cls-1" d="M1099.5,1282.5c.17,0,.19.85.06,2.41-.06.78-.16,1.74-.3,2.89l-.23,1.85-.21,2.13-.54,5-.47,6.09c-.16,2.2-.22,4.57-.35,7.1s-.08,5.23-.07,8.08a174.25,174.25,0,0,0,1.34,18.88,150.93,150.93,0,0,0,4.63,21.93,140,140,0,0,0,9.42,23.87,151,151,0,0,0,15.38,24.28c12.32,16,28.92,31.11,48.79,44.37a308.88,308.88,0,0,0,32,18.62l2.12,1.09,2.06.94c1.34.66,2.84,1.16,4.27,1.74,2.92,1.08,6,2,9.07,2.89,6.22,1.71,12.7,3.08,19.3,4.29,13.23,2.37,27,4,41.14,5.35s28.61,2.26,43.38,3c29.54,1.46,60.21,2,91.62,2q23.56,0,46.54-.44l11.43-.22c3.82,0,7.53-.22,11.23-.38,1.85-.1,3.71-.11,5.55-.28l5.51-.45c1.83-.17,3.67-.25,5.48-.49l5.44-.66a268.56,268.56,0,0,0,80.48-23.18,264.54,264.54,0,0,0,63.38-41.76c17.68-16,32.15-33.28,41.6-51a113.08,113.08,0,0,0,6-13.38c.75-2.26,1.64-4.46,2.23-6.68.32-1.11.68-2.2,1-3.3l.78-3.28a59.6,59.6,0,0,0,1.41-12.72,35.24,35.24,0,0,0-2-11.52c-2.56-7.11-7.58-12.55-12.87-16.71a107.18,107.18,0,0,0-15.91-10c-5.06-2.67-9.66-4.9-13.64-6.87s-7.35-3.67-10-5.1c-5.38-2.87-8.08-4.63-7.93-4.92s3.15.83,8.78,3.1l10.42,4.21c4.11,1.69,8.86,3.65,14.15,6.09a104.63,104.63,0,0,1,17.05,9.64,50.53,50.53,0,0,1,8.55,7.71,37.74,37.74,0,0,1,6.67,10.81,40.68,40.68,0,0,1,2.79,13.33,64.88,64.88,0,0,1-1.15,14.17l-.75,3.57c-.27,1.19-.62,2.36-.93,3.56-.59,2.41-1.45,4.74-2.2,7.15-.42,1.19-.87,2.36-1.31,3.56s-.86,2.4-1.4,3.59l-1.55,3.62-1.73,3.57c-9.62,19-24.27,37.09-42.32,53.88a268.26,268.26,0,0,1-65,44,274,274,0,0,1-83.19,24.57l-5.63.71c-1.88.26-3.78.35-5.67.54l-5.7.49c-1.9.18-3.82.2-5.74.31-3.84.18-7.7.37-11.49.43l-11.47.25q-23,.46-46.72.49c-31.55,0-62.37-.59-92.13-2.19-14.88-.81-29.5-1.84-43.8-3.28s-28.29-3.23-41.89-5.8c-6.8-1.31-13.5-2.79-20.08-4.67-3.29-1-6.54-2-9.76-3.23-1.6-.66-3.21-1.22-4.78-2l-2.36-1.11-2.18-1.15a310,310,0,0,1-32.68-19.58c-20.28-14-37.28-30-49.77-47a154.1,154.1,0,0,1-15.45-25.75,141.56,141.56,0,0,1-9.09-25.18,148.41,148.41,0,0,1-4-22.89,161.88,161.88,0,0,1-.5-19.46c.15-2.92.32-5.67.53-8.24s.5-5,.82-7.19l1-6.12,1-5,.45-2.11.48-1.82q.45-1.68.79-2.81C1099,1283.21,1099.33,1282.46,1099.5,1282.5Z"/><path class="cls-1" d="M1659.5,1305.5c.81-1.11,4.32-.12,9.05,2.86a62.33,62.33,0,0,1,15.94,14.93,50.63,50.63,0,0,1,6.23,10.72,33.27,33.27,0,0,1,2.54,10.08,17.88,17.88,0,0,1-.73,7.07c-.64,1.62-1.35,2.4-2,2.34s-1.31-.93-1.86-2.31-1.26-3.29-2.27-5.52a69.49,69.49,0,0,0-3.91-7.57,103.77,103.77,0,0,0-6-8.81c-4.61-6.13-9.34-11.5-12.62-15.64S1658.68,1306.62,1659.5,1305.5Z"/><path class="cls-1" d="M1206.5,1403c-.49.49-2.47-.63-5.67-3.1a65,65,0,0,1-5.57-4.77c-2.06-2-4.48-4.17-6.88-6.87l-3.82-4.19c-1.27-1.51-2.56-3.12-3.9-4.78-.66-.84-1.37-1.66-2-2.56l-2-2.73-2-2.83c-.69-.95-1.29-2-1.95-3a108.06,108.06,0,0,1-13.2-28.81,87.17,87.17,0,0,1-2.74-16.51,73,73,0,0,1,.92-15.66,63.48,63.48,0,0,1,3.95-13.6,62.69,62.69,0,0,1,5.69-10.82,59.16,59.16,0,0,1,11.46-13.1c3.16-2.61,5.22-3.62,5.69-3.15s-.65,2.48-2.8,5.75a119.65,119.65,0,0,0-8.21,14,70.53,70.53,0,0,0-4,10.17,64.57,64.57,0,0,0-2.62,12.12,73.7,73.7,0,0,0-.26,13.64,90.41,90.41,0,0,0,2.61,14.53,121.42,121.42,0,0,0,11.45,26.7c.57,1,1.06,2,1.66,2.92l1.73,2.79,1.67,2.72c.55.9,1.16,1.73,1.72,2.58l3.28,4.91,3.19,4.44c2,2.89,4,5.35,5.58,7.63l4.23,5.82C1205.94,1400.47,1207,1402.51,1206.5,1403Z"/><path class="cls-1" d="M1098.5,1308.5c-.33-.1-.52-.55-.56-1.35a8.18,8.18,0,0,1,.07-1.46q.16-.82.47-1.88a32.37,32.37,0,0,1,6.1-10.29c6.36-7.73,17.07-16.11,29.78-23.46a163.66,163.66,0,0,1,34.3-15.19,54.26,54.26,0,0,1,11.32-2.29c2.8-.17,4.42.25,4.52.91s-1.17,1.56-3.45,2.83-5.64,3-9.77,5.11c-8.26,4.26-19.67,10.2-31.9,17.27s-22.85,14.06-29.77,19.79a79.54,79.54,0,0,0-7.72,7.21c-.41.46-.8.88-1.17,1.23s-.61.68-.89.93C1099.28,1308.37,1098.83,1308.6,1098.5,1308.5Z"/><path class="cls-1" d="M69,2011c-.33-.1.69-4.37,2.94-12.45.57-2,1.19-4.28,1.93-6.76l2.74-8,3.24-9.36c.55-1.68,1.26-3.36,1.94-5.11l2.14-5.4c1.48-3.7,3-7.62,4.7-11.71l5.64-12.71,3-6.79,3.36-7,7.18-14.72c10.32-20.14,22.85-42.68,37.79-66.93S178,1793.94,197.87,1767s42.18-55,67.13-83.24,52.6-56.56,82.34-84.74l5.59-5.3,5.68-5.25,11.45-10.54c7.76-7,15.55-14,23.56-20.91q23.94-20.84,49.45-41.21,6.4-5.06,12.83-10l3.23-2.47,1.63-1.23.43-.32,0,0,.05-.05.36-.37,5.74-6a200.86,200.86,0,0,1,25.16-20.85A272.11,272.11,0,0,1,519.84,1458c9.27-5,18.64-9.45,27.74-13.94s18-9,25.69-14.51l1-.7,0,0s-.09.11,0,0l.34-.38.69-.77c.46-.5.92-1,1.39-1.51l1.44-1.39,1.44-1.39c.48-.46,1-.87,1.48-1.3,1-.84,2-1.74,3-2.53l3-2.39c1-.8,2.06-1.51,3.08-2.27,2-1.53,4.16-2.9,6.24-4.32a270.76,270.76,0,0,1,25.69-14.82q13-6.66,26.16-12.13a427,427,0,0,1,103.42-29l6.24-.87,6.21-.7,3.08-.35,3.08-.26,6.12-.51c8.14-.51,16.14-.85,24-.73,15.83.2,30.45,1.71,44.59,2a376.75,376.75,0,0,0,40.09-.61,135.45,135.45,0,0,0,18-2.59,52.38,52.38,0,0,0,15.52-5.71l1.69-1c.56-.34,1.09-.75,1.64-1.12,1.08-.73,2.17-1.58,3.24-2.38s2.18-1.68,3.42-2.45c.61-.38,1.17-.81,1.81-1.15l1.93-1,1-.48.95-.38,1.88-.74c1.25-.53,2.49-.88,3.71-1.3,2.45-.85,4.86-1.46,7.21-2.16,9.43-2.52,18.09-4.34,25.88-5.94,15.6-3.14,27.73-5.27,36-6.76s12.55-2.23,12.64-1.88-4.1,1.74-12.21,3.85-20.13,4.88-35.54,8.59c-7.69,1.88-16.25,4-25.41,6.72-2.25.75-4.62,1.41-6.91,2.29-1.15.43-2.35.81-3.46,1.32l-1.7.73-.85.37-.78.42-1.57.84c-.52.3-1,.69-1.53,1-1,.66-2,1.55-3.09,2.34s-2.14,1.72-3.33,2.58c-.59.42-1.15.88-1.77,1.28l-1.88,1.21a57.66,57.66,0,0,1-17,6.74,139.37,139.37,0,0,1-18.79,3.11,371.43,371.43,0,0,1-40.83,1.34c-14.25,0-29.3-1.33-44.46-1.31-7.64,0-15.44.41-23.36,1l-6,.57-3,.29-3,.37-6.06.75-6.09.92a425.15,425.15,0,0,0-101,29.29q-12.81,5.45-25.46,12a263.65,263.65,0,0,0-24.71,14.43c-2,1.36-4,2.67-5.88,4.12-1,.71-1.95,1.4-2.88,2.14l-2.79,2.22c-.94.74-1.79,1.54-2.69,2.31-.44.39-.9.77-1.32,1.17l-1.24,1.21-1.25,1.21c-.4.41-.75.84-1.14,1.26l-1.49,1.66a2.61,2.61,0,0,1-.32.33l-.35.25-.53.37-.81.57c-8.63,6.21-17.87,10.85-27,15.45s-18.41,9-27.43,13.88a264.16,264.16,0,0,0-26.34,16,191.89,191.89,0,0,0-23.82,19.79l-5.41,5.62-1,1.06a7.86,7.86,0,0,1-.77.61l-.39.29-1.59,1.2-3.18,2.43c-4.24,3.25-8.47,6.58-12.7,9.92-16.88,13.43-33.26,27.11-49.14,40.89-8,6.86-15.73,13.84-23.46,20.73l-11.41,10.44-5.66,5.2-5.57,5.25c-29.64,27.9-57.27,55.86-82.18,83.74s-47.33,55.5-67.36,82.06-37.7,52.06-52.9,75.93-28.1,46-38.82,65.75L105.32,1928l-3.53,6.83-3.19,6.65-6,12.44-5.07,11.45-2.34,5.27c-.75,1.71-1.52,3.35-2.14,5l-3.65,9.13-3.17,7.82-2.38,6.57C71,2007,69.33,2011.1,69,2011Z"/><path class="cls-1" d="M559,2324c-.34,0-1.12-3.09-2.14-9.14s-2.27-15-3.49-26.59-2.36-25.8-3-42.36a477.76,477.76,0,0,1,1-56.39,264.19,264.19,0,0,1,4.69-32.71,164.61,164.61,0,0,1,4.59-17.16c1-2.85,2.1-5.84,3-8.47.45-1.37,1-2.7,1.37-4.11l1.18-4.29c3.08-11.54,5.39-23.9,7.57-36.63s4-26,5.77-39.53c6.94-54.32,12.27-114.42,16.51-177.56,2.09-31.57,3.73-62.43,4.85-92.22s1.78-58.59.67-85.74c-.09-1.69-.12-3.39-.25-5.06l-.37-5-.19-2.48-.29-2.42c-.2-1.63-.35-3.17-.59-4.85-1-6.72-1.73-13.33-2.42-19.85-1.28-13-2.15-25.7-2.81-37.94-1.28-24.48-1.72-47.29-1.69-68.11.07-41.64,2.1-75.34,5.09-98.5a201.81,201.81,0,0,1,4.87-26.46,59.35,59.35,0,0,1,2.21-6.67c.61-1.47,1-2.18,1.16-2.13s.1.88-.18,2.42-.68,3.82-1.22,6.81c-1,6-2.11,14.9-3,26.43-1.77,23.06-2.72,56.61-1.89,98,.42,20.71,1.27,43.39,2.9,67.67.83,12.14,1.85,24.67,3.27,37.51.75,6.41,1.54,12.91,2.58,19.41,1,6.81,1.66,13.79,2,20.69,1.39,27.73.8,56.6-.08,86.55s-2.57,60.88-4.67,92.55c-4.25,63.33-9.87,123.55-17.36,178.12-1.91,13.64-4,26.93-6.24,39.81s-4.86,25.35-8.25,37.36l-1.3,4.48c-.46,1.49-1,3-1.55,4.44-1.07,3-2.06,5.63-3.06,8.31a159.38,159.38,0,0,0-4.64,16.25,265.07,265.07,0,0,0-5.18,31.69,517,517,0,0,0-2.5,55.6c.09,16.43.68,30.6,1.28,42.17s1.24,20.56,1.61,26.66S559.34,2324,559,2324Z"/><path class="cls-1" d="M521.5,2324.5c-.66-.17.88-8.7,4.05-22.31s8-32.31,13.62-52.86,10.73-39.11,13.51-52.67a122.69,122.69,0,0,0,2.42-16.12c.25-3.82,0-6,.39-6s1.2,2,1.55,6a78.28,78.28,0,0,1-.89,16.75c-1.94,14-6.59,32.8-12.17,53.38s-11,39.09-15,52.46S522.17,2324.67,521.5,2324.5Z"/><path class="cls-1" d="M2147.5,2231.5c-.35-.19.71-2.69,1.88-7.68a182.81,182.81,0,0,0,3.49-22.25c2.13-19.52,3.26-48,4.18-83.29.51-17.65.88-37,2-57.83.3-5.22.64-10.53,1.15-16l1-8.21c.31-2.76.83-5.49,1.24-8.27,1.83-11.07,4.27-22.3,7-33.71,5.49-22.8,11.81-46.43,17.53-71.09s10.81-50.32,14.69-76.81c1.86-13.13,3-26.32,3.94-39.33s1.56-25.89,2.13-38.55c1.09-25.32,1.76-49.8,2.34-73.12,1.14-46.65,2-88.71,3.33-124s3.15-63.92,5.42-83.62c1.1-9.85,2.39-17.46,3.44-22.58s2-7.74,2.3-7.67.17,2.81-.31,8-1.06,12.78-1.56,22.62c-1.07,19.66-1.84,48.18-2.23,83.47s-.55,77.32-1.18,124c-.33,23.36-.8,47.89-1.77,73.34-.5,12.73-1.1,25.68-2,38.84s-2.05,26.52-4,40.07c-3.94,26.83-9.17,52.79-15.05,77.61s-12.43,48.49-18.11,71c-2.8,11.27-5.33,22.28-7.26,33-.43,2.68-1,5.34-1.32,8l-1,7.89c-.58,5.25-1,10.47-1.39,15.61-1.46,20.6-2.25,39.94-3.21,57.57-1.82,35.29-4,63.91-7.38,83.54a125.9,125.9,0,0,1-5.42,22.31C2149.47,2229.37,2147.75,2231.65,2147.5,2231.5Z"/><path class="cls-1" d="M1453.5,2110.5c.08.11-.12.39-.58.81q-.34.32-.89.75a15.52,15.52,0,0,1-1.35.81,25.44,25.44,0,0,1-9.59,2.71c-8.41.94-19.95-.87-31.88-4.74a147.42,147.42,0,0,1-29.29-13,61.14,61.14,0,0,1-8-5.54c-1.77-1.51-2.57-2.55-2.4-2.75s1.29.39,3.27,1.46,4.87,2.59,8.5,4.33a235.2,235.2,0,0,0,29.17,11.73c11.65,3.78,22.6,5.91,30.48,5.73a32.81,32.81,0,0,0,9.15-1.32c.52-.17,1-.29,1.41-.44s.73-.29,1-.38C1453.08,2110.43,1453.42,2110.39,1453.5,2110.5Z"/><path class="cls-1" d="M1466.5,2132.5c0,.28-.45.54-1.32.79a14.46,14.46,0,0,1-3.74.55,20.76,20.76,0,0,1-2.64,0,26.62,26.62,0,0,1-3.05-.45,18.06,18.06,0,0,1-6.66-3,14.9,14.9,0,0,1-4.55-5.87,16.82,16.82,0,0,1-1.36-5.67c-.2-3.24.31-5.14.82-5.18s1.09,1.87,2,4.67,2.35,6.41,5.55,8.86a24.68,24.68,0,0,0,10.13,3.81c1.44.36,2.67.45,3.51.72S1466.49,2132.22,1466.5,2132.5Z"/><path class="cls-1" d="M1484.5,2177.5c0,.25-.87.41-2.37.25a16.23,16.23,0,0,1-6-2.15c-4.79-2.65-9.84-8.46-13.33-15.66a61.42,61.42,0,0,1-5.9-19.47,26.17,26.17,0,0,1-.09-6.23c.2-1.49.61-2.28.87-2.23s.42.83.69,2.19.68,3.34,1.31,5.75a98,98,0,0,0,6.7,18.21c3.31,6.78,7.5,12.19,11.32,15.09S1484.61,2176.86,1484.5,2177.5Z"/><path class="cls-1" d="M1402.5,2107.5c.46.25.08,2.11-1.47,4.7a25,25,0,0,1-3.28,4.13,31.67,31.67,0,0,1-5,4,37.75,37.75,0,0,1-10.42,4.76c-2.81.79-4.67.86-4.84.36s1.31-1.55,3.76-3,5.84-3.2,9.3-5.49c1.73-1.14,3.32-2.3,4.7-3.43s2.55-2.23,3.55-3.17C1400.77,2108.53,1402,2107.22,1402.5,2107.5Z"/><path class="cls-1" d="M1182.5,1103.5c.3-.13,1.87,2.68,4.27,8a143.43,143.43,0,0,1,7.43,23.55,188.19,188.19,0,0,1,4.24,36.4l.11,5.24-.07,5.36c0,3.62-.27,7.29-.43,11-.53,7.48-1.22,15.23-2.39,23.09s-2.47,15.51-4,22.83-3.26,14.34-5.05,21c-3.58,13.27-7.48,25-11.06,34.77s-6.84,17.49-9.24,22.77-3.95,8.1-4.26,8,.61-3.21,2.45-8.69,4.59-13.37,7.7-23.2,6.64-21.58,9.94-34.78c1.65-6.6,3.27-13.55,4.71-20.81s2.79-14.79,3.89-22.54,1.87-15.36,2.45-22.71c.19-3.68.49-7.3.54-10.84l.15-5.26,0-5.14a211,211,0,0,0-3.1-35.79,207.35,207.35,0,0,0-5.79-23.57C1183.13,1106.72,1182.17,1103.65,1182.5,1103.5Z"/><path class="cls-1" d="M1677.5,1350.5c-.12.24-3.57-1-8.93-4.78a60.93,60.93,0,0,1-8.9-8,74.28,74.28,0,0,1-9.39-12.78c-6-10.14-10.85-23.45-13.75-38.63a225,225,0,0,1-3.36-49.93,313.27,313.27,0,0,1,5.89-49.59,299.73,299.73,0,0,1,10.58-39.35,200.71,200.71,0,0,1,10.59-25.34c3-5.77,5-8.76,5.27-8.6.7.35-5.86,13.06-12.5,35a353.44,353.44,0,0,0-9.41,39.12,344.1,344.1,0,0,0-5.42,48.9,237.83,237.83,0,0,0,2.89,48.92c2.58,14.83,6.92,27.77,12.3,37.72a74.16,74.16,0,0,0,16.41,21C1674.6,1348.33,1677.71,1350.14,1677.5,1350.5Z"/><path class="cls-1" d="M1475.64,1810.27c-.25.61-1.45.88-3.09.18a7.88,7.88,0,0,1-2.53-1.78c-.1-.11-.21-.21-.31-.33l-.14-.17h0l-.06,0a.09.09,0,0,0,0,0v0a.71.71,0,0,0-.49-.85c-.42-.14-1.22.14-1.8-.13s-.68-1.33,0-3.7c.36-1.17.9-2.63,1.6-4.28.35-.83.73-1.7,1.15-2.6l.39-.86.73-1.49.64,4.2.44,3c.07.43.15.77.22,1.15a5,5,0,0,0,.25,1,12.42,12.42,0,0,0,.65,1.49l.18.3.06.13.14.25c.36.67.73,1.28,1.06,1.82C1475.38,1808.75,1475.92,1809.61,1475.64,1810.27Z"/><path class="cls-1" d="M1411.33,1902.3c-.27.06-.61-1.35-2-3.07a19.52,19.52,0,0,0-2.91-2.68,14.36,14.36,0,0,1-1.89-1.82,6,6,0,0,1-1.36-2.83l-.33-1.9,1.75.86a9.66,9.66,0,0,1,2.21,1.52c1.7,1.56,2.83,3.2,4.13,4.38a24.11,24.11,0,0,0,3.72,2.9c2.29,1.45,3.92,2.06,3.83,2.35s-1.87.11-4.51-1.11a19,19,0,0,1-4.28-2.77c-1.51-1.24-2.78-2.95-4.23-4.26a8.37,8.37,0,0,0-1.75-1.24l1.41-1c.2,1.42,1.36,2.6,2.46,3.66a15.4,15.4,0,0,1,2.82,3.24,7.55,7.55,0,0,1,1,2.73C1411.51,1901.91,1411.44,1902.28,1411.33,1902.3Z"/><path class="cls-1" d="M1494.44,2126.33c.1.55-1.69,1.39-4.61,2.55a96.13,96.13,0,0,1-11.79,3.9,33.81,33.81,0,0,1-12.75,1c-3.31-.5-5.15-1.57-5-2.07s2.1-.51,5.12-.75a71.94,71.94,0,0,0,11.7-2c4.56-1.14,8.81-2.29,12-2.75S1494.34,2125.8,1494.44,2126.33Z"/><path class="cls-1" d="M1482.65,2175.29c0-.12.25-.3.78-.36a4.15,4.15,0,0,1,2.2.42,4.58,4.58,0,0,1,2.39,2.56,4,4,0,0,1,.12,2.25,4.64,4.64,0,0,1-1.12,2.07,6,6,0,0,1-3.79,1.85,8.5,8.5,0,0,1-3.21-.33c-1.7-.52-2.6-1.09-2.53-1.34s1.16-.18,2.78,0,3.84.08,5.28-1.49a2.58,2.58,0,0,0,.71-2.4,3.61,3.61,0,0,0-1.35-1.89C1483.73,2175.67,1482.66,2175.59,1482.65,2175.29Z"/><path class="cls-3" d="M1565.5,1731.5s119-9,141-12,47,0,47,0,113,13,139,3,94,1,106-3-4-95-3-126-1-170-3-191-121-10-144,0-262-1-306,8-147-18-142,12,9,175,18,216"/><path class="cls-4" d="M1418.5,1638.5a24.41,24.41,0,0,1-1-4l-1-4.92-1.08-6.85c-1.57-10.39-3.32-25.8-5-45.68s-3.34-44.22-5.14-72.48c-.91-14.13-1.86-29.24-3-45.25-.59-8-1.19-16.23-2-24.63-.23-2.09-.39-4.23-.69-6.32l-.87-6.44a12.18,12.18,0,0,1,.12-3.79,10.75,10.75,0,0,1,1.52-3.65,14.25,14.25,0,0,1,5.87-4.66,44.62,44.62,0,0,1,13.68-3.23,137.79,137.79,0,0,1,14-.59c9.41,0,19,.62,28.68,1.29s19.61,1.47,29.68,2.11,20.32,1.12,30.69.87a124.77,124.77,0,0,0,15.53-1.24c1.29-.19,2.54-.43,3.84-.68l2-.38,2-.32q4.07-.58,8.15-.94c10.88-1,21.9-1.4,33.09-1.73,22.36-.61,45.36-.67,68.93-.65l72.39.26c24.66,0,49.85.12,75.43-.53,6.39-.17,12.81-.4,19.23-.76a179.45,179.45,0,0,0,19.08-1.86,26.19,26.19,0,0,0,4.31-1.06l.46-.17.61-.25c.41-.17.82-.33,1.22-.48.82-.31,1.63-.57,2.44-.83,3.24-1,6.49-1.8,9.74-2.51,6.51-1.41,13.07-2.5,19.67-3.46,13.19-1.89,26.54-3.18,40-4a327.5,327.5,0,0,1,40.84-.12,101.24,101.24,0,0,1,20.59,3.25,36.6,36.6,0,0,1,5.1,1.92,16.69,16.69,0,0,1,4.88,3.41,9.32,9.32,0,0,1,1.85,2.91c.1.29.22.57.3.86l.17.9c0,.14.06.32.07.44l0,.32,0,.64c.11,1.7.26,3.42.35,5.11.67,13.49,1,26.82,1.33,40.07q.91,39.75,1.25,78.26.17,19.24.2,38.14c0,6.3,0,12.57-.1,18.82,0,3.12-.11,6.25-.18,9.37s-.06,6.06.05,9.11c.49,12.2,1.72,24.35,2.85,36.35s2.35,23.89,3.26,35.68c.45,5.89.83,11.76,1,17.63a136.94,136.94,0,0,1-.29,17.63,43.51,43.51,0,0,1-.68,4.49,17.16,17.16,0,0,1-1.6,4.67,9.25,9.25,0,0,1-.8,1.21,6.42,6.42,0,0,1-1.24,1.16,3.65,3.65,0,0,1-.81.47l-.45.19-.32.09-1.25.32a35.58,35.58,0,0,1-4.54.5c-2.94.15-5.8.13-8.64.06s-5.65-.18-8.45-.32c-11.19-.55-22.14-1.29-32.93-1.68a274.9,274.9,0,0,0-31.7.31,81.4,81.4,0,0,0-15,2.46c-1.22.3-2.28.75-3.51,1.13a36.58,36.58,0,0,1-3.91,1.14l-1.94.45-1.93.33-1.93.32-1.92.24c-5.12.62-10.17.94-15.17,1.08s-9.94.19-14.82.12c-9.77-.1-19.32-.51-28.65-1s-18.45-1.18-27.34-1.91-17.57-1.53-26-2.4l-12.5-1.33c-2.06-.22-4.09-.49-6.09-.68s-4-.36-6-.51a228.59,228.59,0,0,0-23.22-.53c-3.75.09-7.43.36-11,.69s-7.2.86-10.73,1.21c-14.12,1.41-27.25,2.45-39.35,3.42l-33.09,2.52c-19.89,1.45-35.33,2.49-45.81,3.14-5.24.32-9.24.55-11.92.67a24.47,24.47,0,0,1-4.08.05,24.62,24.62,0,0,1,4-.56c2.68-.29,6.66-.68,11.89-1.16l45.73-4.08,33-3c12.07-1.11,25.2-2.29,39.25-3.83,3.51-.39,7-.87,10.73-1.31s7.43-.68,11.24-.8a230,230,0,0,1,23.54.35c2,.13,4,.28,6.09.47s4.09.43,6.14.64l12.47,1.24q12.65,1.2,26,2.22t27.26,1.74c9.3.47,18.8.82,28.49.87q7.27.07,14.65-.2c4.92-.17,9.87-.51,14.79-1.13l1.85-.24,1.82-.31,1.82-.32,1.78-.42a32.67,32.67,0,0,0,3.45-1c1.22-.38,2.53-.93,3.81-1.25a85.22,85.22,0,0,1,15.73-2.67,277.73,277.73,0,0,1,32.2-.46c10.86.35,21.87,1.05,33,1.56,2.78.12,5.56.23,8.34.29s5.57.07,8.29-.08a31.69,31.69,0,0,0,3.91-.43l.82-.21.19,0,0,0a.16.16,0,0,0,.11-.06,2.07,2.07,0,0,0,.31-.3,4.94,4.94,0,0,0,.36-.58,13.07,13.07,0,0,0,1.12-3.42,39.19,39.19,0,0,0,.59-4,133.16,133.16,0,0,0,.22-17c-.22-5.76-.62-11.58-1.08-17.43-.94-11.71-2.16-23.57-3.34-35.58s-2.42-24.18-2.94-36.63c-.12-3.11-.17-6.28-.07-9.44s.15-6.16.16-9.28c.07-6.21.07-12.47.07-18.76q0-18.87-.26-38.1-.42-38.45-1.32-78.19c-.33-13.22-.68-26.57-1.35-39.91-.08-1.67-.23-3.3-.34-4.95l0-.62,0-.31c0-.09,0-.12,0-.18s0-.22-.06-.34-.09-.22-.12-.33a4.33,4.33,0,0,0-.85-1.32,11.93,11.93,0,0,0-3.39-2.31,31.81,31.81,0,0,0-4.37-1.64,96.83,96.83,0,0,0-19.52-3.05,323.6,323.6,0,0,0-40.2.12c-13.33.78-26.57,2.06-39.6,3.91-6.51.94-13,2-19.32,3.38-3.16.69-6.3,1.45-9.31,2.39-.74.24-1.49.48-2.21.75-.37.13-.72.27-1.06.41l-.53.21-.69.26a30.48,30.48,0,0,1-5.18,1.29,183,183,0,0,1-19.68,1.91c-6.49.36-13,.57-19.38.74-25.7.61-50.9.5-75.58.4l-72.39-.43c-23.56-.08-46.53-.09-68.81.44-11.13.29-22.12.66-32.81,1.59q-4,.34-7.93.89l-1.94.29-1.91.35c-1.32.25-2.7.51-4,.7a128.61,128.61,0,0,1-16.06,1.22c-10.59.21-20.93-.36-31-1s-20-1.53-29.69-2.26-19.17-1.34-28.42-1.43a134.66,134.66,0,0,0-13.63.49,41.44,41.44,0,0,0-12.56,2.84,10.83,10.83,0,0,0-4.47,3.42,7.28,7.28,0,0,0-1,2.38,8.74,8.74,0,0,0-.09,2.72l.08.72.11.82.21,1.63.42,3.25c.29,2.16.43,4.28.65,6.41.8,8.48,1.34,16.72,1.87,24.74,1,16,1.84,31.16,2.61,45.3,1.53,28.28,2.91,52.62,4.29,72.5s2.79,35.28,4,45.69l.83,6.87.78,4.94A24.7,24.7,0,0,1,1418.5,1638.5Z"/><path class="cls-1" d="M1595,1527.59c.13.22-.25.72-1.14,1.5l-.76.63c-.29.21-.62.42-1,.65a20.78,20.78,0,0,1-2.57,1.46c-4,2-10.35,3.89-18.3,4.17a90.66,90.66,0,0,1-12.87-.5c-4.6-.5-9.35-1.15-14.5-2.21a51.19,51.19,0,0,1-15.91-5.86,33.11,33.11,0,0,1-7.29-5.91,26.74,26.74,0,0,1-5.33-8.42,24.16,24.16,0,0,1-1.53-10,29.24,29.24,0,0,1,2.18-9.29,51.8,51.8,0,0,1,9.17-14.24c1.72-2,3.5-3.83,5.24-5.55s3.47-3.36,5.23-4.88a62.58,62.58,0,0,1,10.59-7.63,36.83,36.83,0,0,1,10.18-4,31.24,31.24,0,0,1,4.47-.66,17.28,17.28,0,0,1,3.9.2,9,9,0,0,1,4.94,2.32c.88.92,1,1.6.86,1.75-.42.39-2.14-1.36-6-1.18a18.06,18.06,0,0,0-3.2.43,36,36,0,0,0-3.79,1.14,37.69,37.69,0,0,0-8.57,4.47,66.33,66.33,0,0,0-9.15,7.68c-1.56,1.52-3.11,3.17-4.71,4.89s-3.17,3.51-4.68,5.4a47.92,47.92,0,0,0-7.64,12.51,22.62,22.62,0,0,0-1.56,7,17.14,17.14,0,0,0,1.08,6.94c1.72,4.46,5.38,8.2,9.5,10.79a47.2,47.2,0,0,0,13.62,5.39c4.72,1.16,9.46,2.06,13.77,2.78a107,107,0,0,0,12.07,1.36,56,56,0,0,0,17.26-1.61C1592.47,1528,1594.67,1527.09,1595,1527.59Z"/><path class="cls-1" d="M1638.15,1488.6c-.21,0-.42-.84.11-2.26a9.15,9.15,0,0,1,4.57-4.5,18.22,18.22,0,0,1,4.31-1.54,21.43,21.43,0,0,1,2.54-.43c.88-.13,1.79-.19,2.74-.24a33.42,33.42,0,0,1,6.11.28,30.75,30.75,0,0,1,6.76,1.64,27.16,27.16,0,0,1,6.93,3.7,21.71,21.71,0,0,1,5.88,6.58,20.77,20.77,0,0,1,2.71,9.21,25.41,25.41,0,0,1-1.48,9.88,30.84,30.84,0,0,1-5.06,9,32.07,32.07,0,0,1-3.67,3.87c-.68.59-1.39,1.17-2.11,1.71s-1.44,1.05-2.21,1.51c-6,3.89-13.08,6-20.09,7.32-3.52.67-7,1.11-10.36,1.5a63.7,63.7,0,0,1-10.48.46,30.51,30.51,0,0,1-10.54-2.3,22.49,22.49,0,0,1-8.63-6.43,17.19,17.19,0,0,1-3.82-9.93,21,21,0,0,1,1.9-9.44A27.19,27.19,0,0,1,1609,1501a32.64,32.64,0,0,1,5.87-5,34.85,34.85,0,0,1,6.15-3.23,34.16,34.16,0,0,1,5.89-1.71,30.43,30.43,0,0,1,9.69-.37,26.45,26.45,0,0,1,3.45.66,24.88,24.88,0,0,1,2.42.84c1.26.59,1.86,1,1.78,1.26s-.83.3-2.13.2c-.66,0-1.47,0-2.4-.11s-2-.05-3.23.05a34.1,34.1,0,0,0-13.52,3.52,32.62,32.62,0,0,0-5,3.18,24.71,24.71,0,0,0-8,10.31,15,15,0,0,0-1.06,6.61,10.59,10.59,0,0,0,2.58,6,15.87,15.87,0,0,0,6.09,4.23,24,24,0,0,0,8.1,1.56,59.61,59.61,0,0,0,9.3-.54c3.27-.4,6.59-.84,9.84-1.46,6.51-1.2,12.59-3.07,17.56-6.17.64-.36,1.21-.8,1.82-1.2s1.11-.85,1.65-1.29a25.61,25.61,0,0,0,2.91-2.94,24.56,24.56,0,0,0,4.12-6.83c1.9-4.82,1.82-9.83-.21-13.73a18.91,18.91,0,0,0-9.36-8.35,27.84,27.84,0,0,0-5.61-1.86,32.76,32.76,0,0,0-5.32-.78c-.84,0-1.66-.1-2.45-.07a20.63,20.63,0,0,0-2.23.08,18,18,0,0,0-3.77.71,9.41,9.41,0,0,0-4.39,2.59C1638.76,1488,1638.43,1488.67,1638.15,1488.6Z"/><path class="cls-1" d="M1710.27,1524.16c-.73.64-3.06-.44-5.6-3.52q-.46-.58-.95-1.24c-.32-.44-.59-.93-.9-1.42a25.89,25.89,0,0,1-1.68-3.33,29.57,29.57,0,0,1-1.71-16.83,25.88,25.88,0,0,1,1-3.6c.2-.55.37-1.08.6-1.58s.46-1,.68-1.4c1.86-3.53,3.93-5.06,4.77-4.58s.63,2.83.25,6.19q-.06.63-.15,1.31c-.06.45-.06.93-.11,1.41-.12,1-.12,2-.19,3.07a50.37,50.37,0,0,0,1.41,13.83c.28,1,.5,2.05.81,3,.14.46.25.93.39,1.36s.29.85.41,1.25C1710.32,1521.26,1711.09,1523.46,1710.27,1524.16Z"/><ellipse class="cls-1" cx="1705.56" cy="1464.27" rx="3.73" ry="3.17" transform="translate(-531.84 1681.21) rotate(-46.19)"/><path class="cls-1" d="M1793.39,1523.09c-.53-.05-.77-1.92-1.24-5.15a63.49,63.49,0,0,0-3.23-13.13,32.17,32.17,0,0,0-4-7.89,16.8,16.8,0,0,0-3.1-3.28,10.3,10.3,0,0,0-3.83-1.9c-2.73-.69-6.12,0-9.37,1.7a28.45,28.45,0,0,0-4.76,3.22c-.79.6-1.5,1.32-2.26,2s-1.45,1.44-2.12,2.24a48.73,48.73,0,0,0-4.1,5.32c-1.27,1.84-2.41,3.76-3.49,5.68l-.4.72-.2.36-.1.18-.19.36-1.52,3c-1,2-1.94,4-2.89,6l-5.34,11.42-.16-.84-.16-1-.31-2-.59-3.78c-.37-2.47-.74-4.79-1.06-7.13l-.44-3.46-.35-3.4-.15-1.64-.07-1-.09-1.8a116.29,116.29,0,0,1,.08-12.33c.44-6.86,1.38-10.78,2.11-10.75s1.24,4,2,10.65c.37,3.34.82,7.35,1.47,11.9l.25,1.73.07.44a3.2,3.2,0,0,0,.05.32l.06.18a5,5,0,0,0,.22.54,1.29,1.29,0,0,0,.18.29l.08.06h.05l0-.09c.1-.35.17-.6.21-.78l0-.21v-.07l.73-1.4a73,73,0,0,1,3.72-6.32,51.8,51.8,0,0,1,4.69-6.15c.79-.94,1.69-1.79,2.54-2.66s1.79-1.67,2.77-2.4a33.93,33.93,0,0,1,6.12-4,24.11,24.11,0,0,1,7-2.26,17.13,17.13,0,0,1,7.49.46,16.64,16.64,0,0,1,6.22,3.51,22.13,22.13,0,0,1,4,4.86,33.83,33.83,0,0,1,3.95,9.78,41.52,41.52,0,0,1,1.09,14.64C1794.63,1521.34,1793.88,1523.14,1793.39,1523.09Z"/><path class="cls-1" d="M1806.9,1555.41c.28-.05.62.65,1.26,1.9a29.3,29.3,0,0,0,3.19,5.08,25.16,25.16,0,0,0,7,6,25.73,25.73,0,0,0,11.45,3.4,33.09,33.09,0,0,0,14.32-2.39,14.25,14.25,0,0,0,3.13-1.72,7.09,7.09,0,0,0,2-2.35,12.17,12.17,0,0,0,.9-7.19,64,64,0,0,0-2.06-9.15l-2.66-10-5.48-21.06-4.39-17.33-3.18-12.52,9.28,8.94a10.45,10.45,0,0,1,3.09,6.48,13.13,13.13,0,0,1-1,6.33,13.66,13.66,0,0,1-3.58,5.07,17.16,17.16,0,0,1-4.87,2.93,27.75,27.75,0,0,1-9.8,1.69,36.09,36.09,0,0,1-4.67-.23,32.41,32.41,0,0,1-4.5-.89,23.79,23.79,0,0,1-8.18-3.85,16.05,16.05,0,0,1-3.29-3.28,12.71,12.71,0,0,1-2-4.27,9.81,9.81,0,0,1-.25-1.13l-.11-1.14a10,10,0,0,1,0-2.24,13.37,13.37,0,0,1,1.16-4,17.91,17.91,0,0,1,4.43-5.84,22.75,22.75,0,0,1,10.63-5.21,22.16,22.16,0,0,1,8.69,0c4.67,1,6.65,2.83,6.46,3.15-.22.49-2.53-.44-6.75-.53a22.94,22.94,0,0,0-7.46,1.11,19.88,19.88,0,0,0-8.22,5c-2.43,2.5-4.23,6.17-3.07,9.34.89,3.16,4.88,5.64,9.54,6.67a26.7,26.7,0,0,0,3.6.57,30.14,30.14,0,0,0,3.77.05,21.55,21.55,0,0,0,7.33-1.42,10.22,10.22,0,0,0,2.8-1.76,6.6,6.6,0,0,0,1.61-2.42,6,6,0,0,0,.4-2.84,3.11,3.11,0,0,0-.9-1.94l6.1-3.58,4.49,17.31,5.33,21.1,2.48,10a66.5,66.5,0,0,1,2,10.25,23.74,23.74,0,0,1-.13,5.57,15.29,15.29,0,0,1-1.94,5.57,13.54,13.54,0,0,1-4,4.27,20.17,20.17,0,0,1-4.63,2.3,37.08,37.08,0,0,1-17.08,1.87,28.67,28.67,0,0,1-13.22-5.17,25,25,0,0,1-7.08-7.9,18.33,18.33,0,0,1-2.2-6.24C1806.52,1556.26,1806.67,1555.45,1806.9,1555.41Z"/><path class="cls-1" d="M1887.25,1519.38c.23.08.42.32.44.77a2.42,2.42,0,0,1-.87,1.72A4.55,4.55,0,0,1,1884,1523a5.67,5.67,0,0,1-4-1.28,8.82,8.82,0,0,1-2.62-4,22.86,22.86,0,0,1-.92-4.25,75.81,75.81,0,0,1-.76-8.86,66.15,66.15,0,0,1,1.33-15.86c.91-4,2.1-6.4,3.11-6.3,2.07.23,2.67,10,3,22,.08,3,.13,5.92.14,8.55,0,1.35,0,2.43,0,3.26a7.31,7.31,0,0,0,.34,1.79c.12.67,1.15,1.21,1.74,1.33a2.46,2.46,0,0,0,.94,0A1.77,1.77,0,0,1,1887.25,1519.38Z"/><path class="cls-1" d="M1880.43,1461.85c-.23-.11-.46-.24-.68-.33s-.32-.1-.17-.07h.17a.34.34,0,0,0,.11,0l0,0c-.07,0-.08.07-.19.17a.63.63,0,0,0-.1.15,1.09,1.09,0,0,0-.12.2,2.32,2.32,0,0,0-.2.75c0,.11,0,.05-.05-.21a1.57,1.57,0,0,0-.36-.67l-.05,0h0l0,0h.05l1.07.22h-.09a1.42,1.42,0,0,0,.46-.09c.22,0,1-.49.72-.29a2.75,2.75,0,0,0-.17,1,4.85,4.85,0,0,1-.82,2.75,2.8,2.8,0,0,1-2.81,1.08,3.74,3.74,0,0,1-2-1.14,4.75,4.75,0,0,1-.94-1.49,5.21,5.21,0,0,1-.35-2.27c0-.2,0-.41.08-.6l0-.15.06-.23c0-.16.1-.31.15-.46a4.49,4.49,0,0,1,1-1.57,4.36,4.36,0,0,1,2.48-1.26,4.24,4.24,0,0,1,3.45,1,4,4,0,0,1,.32.32,3.7,3.7,0,0,1,.31.4,3.07,3.07,0,0,1,.41.9,2.35,2.35,0,0,1,0,.91,1.56,1.56,0,0,1-.27.64A1.18,1.18,0,0,1,1880.43,1461.85Z"/><path class="cls-1" d="M1522.8,1666c.14.07.21.38,0,.88a3.06,3.06,0,0,1-1.88,1.47,5.35,5.35,0,0,1-3.76-.32,5.48,5.48,0,0,1-2-1.56,7.88,7.88,0,0,1-1.29-2.31,17.09,17.09,0,0,1-.82-5.35c-.05-1.76-.09-3.64-.07-5.62,0-4,.19-8.3.55-12.85,1.41-18.24,5.54-32.57,6.85-32.28s-.48,14.78-1.87,32.68l-.93,12.63-.39,5.52a16.66,16.66,0,0,0,.07,4.27,5.24,5.24,0,0,0,.51,1.5,2.78,2.78,0,0,0,.77,1,3.89,3.89,0,0,0,2.06.82C1521.83,1666.5,1522.47,1665.79,1522.8,1666Z"/><path class="cls-1" d="M1565.1,1660.21c.09.1-.13.56-.93,1a5.22,5.22,0,0,1-3.95.29,7.16,7.16,0,0,1-2.62-1.38,9.31,9.31,0,0,1-2.18-2.75,25.18,25.18,0,0,1-2.16-7.63,108.16,108.16,0,0,1-1.39-20c.09-7.58.81-15.9,1.69-24.63l4.71,1.32-3.89,8.28-6.19,13a51.54,51.54,0,0,1-3.41,6.3,18,18,0,0,1-5.23,5.35,12.83,12.83,0,0,1-7.19,2,9.33,9.33,0,0,1-6.68-3.07,18.78,18.78,0,0,1-3.19-5.21,42.63,42.63,0,0,1-3.69-20.53c.32-3.69,1-5.63,1.35-5.59s.32,2.06.6,5.6A49.94,49.94,0,0,0,1524,1627a41.48,41.48,0,0,0,2,4.42,15.64,15.64,0,0,0,2.7,4,5.15,5.15,0,0,0,3.8,1.55,8.53,8.53,0,0,0,4.59-1.5,13.73,13.73,0,0,0,3.73-4.09,50.1,50.1,0,0,0,3-5.78l6.09-13,3.92-8.26,6.32-13.31-1.61,14.63c-1,8.72-1.85,16.88-2.21,24.25a133.9,133.9,0,0,0,.27,19.41,25.75,25.75,0,0,0,1.23,7,7.62,7.62,0,0,0,1.33,2.24,5.77,5.77,0,0,0,1.74,1.3,5.11,5.11,0,0,0,3,.52C1564.58,1660.25,1565,1660.07,1565.1,1660.21Z"/><path class="cls-1" d="M1604.41,1662.94c-.16.31-2.21-.19-4.67-2.83a15.42,15.42,0,0,1-3.22-5.62,16,16,0,0,1-.38-8.67l4,.72a11.7,11.7,0,0,1-2.52,6.53,15.52,15.52,0,0,1-5.81,4.56,23.77,23.77,0,0,1-7.28,1.91c-1.24.14-2.49.22-3.73.26a26,26,0,0,1-4-.14,14.19,14.19,0,0,1-5.32-1.63,7.83,7.83,0,0,1-3.83-5,8.32,8.32,0,0,1,1-5.85,12.66,12.66,0,0,1,3.29-3.81,19.6,19.6,0,0,1,7.74-3.6,27.1,27.1,0,0,1,7.11-.58,41.46,41.46,0,0,1,9.79,1.66c2.22.67,3.39,1.24,3.33,1.58s-1.37.42-3.65.34a94,94,0,0,0-9.44,0c-3.85.26-8.43,1.16-12,4.21a8.33,8.33,0,0,0-2,2.49,3.58,3.58,0,0,0-.42,2.49,2.92,2.92,0,0,0,1.53,1.82,9.75,9.75,0,0,0,3.46,1,22.44,22.44,0,0,0,3.25.12c1.15,0,2.26-.08,3.34-.18a20.3,20.3,0,0,0,5.88-1.35c3.41-1.39,5.87-4.3,6.19-7.07l4,.72a13.56,13.56,0,0,0-.36,6.73,15.89,15.89,0,0,0,1.91,5.07C1603.17,1661.37,1604.68,1662.54,1604.41,1662.94Z"/><path class="cls-1" d="M1614.5,1689.46c.29-.27,1.78,1.12,4.78,3,.73.5,1.62.92,2.55,1.44s2,1,3.18,1.37a31.8,31.8,0,0,0,8.12,1.89,28,28,0,0,0,9.9-.75c.87-.18,1.71-.52,2.58-.8a5.86,5.86,0,0,0,1.95-1,2.11,2.11,0,0,0,.61-1.38,8.2,8.2,0,0,0-.15-2.48c-.63-3.85-2.46-7.78-4.5-12-1-2.11-2.06-4.35-3-6.72a63.88,63.88,0,0,1-2.28-7.32,62.93,62.93,0,0,1-.94-25.72l4.64.66a20.59,20.59,0,0,1-4.46,10.09,20.85,20.85,0,0,1-7.93,6,18.9,18.9,0,0,1-4.44,1.29,11.8,11.8,0,0,1-4.54-.13,8,8,0,0,1-3.89-2.19,9,9,0,0,1-2-3.37,11.3,11.3,0,0,1-.23-6.2,17.77,17.77,0,0,1,1.53-4.1c1.09-2.06,1.87-3,2.1-2.93s-.06,1.34-.66,3.49a23,23,0,0,0-.75,3.9,9.45,9.45,0,0,0,.71,4.81,6.15,6.15,0,0,0,1.52,2.12,4.74,4.74,0,0,0,2.39,1.09,11.73,11.73,0,0,0,6.62-1.38,17.27,17.27,0,0,0,6.13-5.11,16.5,16.5,0,0,0,3.24-8l4.64.66a62,62,0,0,0,1.16,23.77,62.74,62.74,0,0,0,2.08,6.75c.82,2.17,1.77,4.27,2.75,6.4,2,4.24,4,8.65,4.61,13.38a12.34,12.34,0,0,1,0,3.88,7.14,7.14,0,0,1-.7,2.15,6.16,6.16,0,0,1-1.5,1.87,9.8,9.8,0,0,1-3.4,1.71,30.62,30.62,0,0,1-14.34,1,31.27,31.27,0,0,1-8.78-2.83,32.29,32.29,0,0,1-3.26-1.88,28.26,28.26,0,0,1-2.49-1.93C1615.28,1691.51,1614.28,1689.64,1614.5,1689.46Z"/><path class="cls-1" d="M1720.38,1658.17c-.6,0-1.52-5.18-2.1-13.9a254.77,254.77,0,0,1,.3-34.83l.35-4.68,3.67,3a10.77,10.77,0,0,1,3.49,5.43,13.87,13.87,0,0,1,.21,6.23,16.06,16.06,0,0,1-7.75,11.08,14,14,0,0,1-6.43,2,10.49,10.49,0,0,1-6.55-1.82,10.82,10.82,0,0,1-3.88-5.07,13.45,13.45,0,0,1-.8-5.66,12.89,12.89,0,0,1,1.42-5.11,12,12,0,0,1,3.13-3.75,14.66,14.66,0,0,1,7.31-3.06,16.73,16.73,0,0,1,5.77.21c3.08.68,4.49,1.78,4.37,2s-1.75-.07-4.59-.12a18.43,18.43,0,0,0-5,.6,12.51,12.51,0,0,0-5.52,3,8.56,8.56,0,0,0-2,2.77,9.24,9.24,0,0,0-.75,3.61,9.49,9.49,0,0,0,.74,3.83,6.45,6.45,0,0,0,2.38,2.88c2,1.39,5.2,1.11,7.88-.57a11.94,11.94,0,0,0,3.48-3.26,11.81,11.81,0,0,0,1.87-4.53,9.11,9.11,0,0,0-.09-4,5.89,5.89,0,0,0-1.81-2.94l4-1.7C1721,1637.15,1721.69,1658.1,1720.38,1658.17Z"/><path class="cls-1" d="M1738.85,1675c.26.51-.7,1.58-2.53,3l-2.11,1.62-.07-3.21a85,85,0,0,1,1.3-14.11c1.58-9.68,4-17.34,5.32-17.12s1.19,8.25-.39,17.92a85,85,0,0,1-3.25,13.79l-2.18-1.59C1737.16,1674.59,1738.59,1674.45,1738.85,1675Z"/><path class="cls-1" d="M1839,1651c0,.58-5.4.93-14.41,1-4.5.05-9.91,0-16,0l-9.64-.15-2.69-.06-5.06-.14-10.6-.32,20.67-13.13c1.94-1.24,3.91-2.42,5.75-3.65a49.93,49.93,0,0,0,5.06-3.81c3-2.63,5.17-5.77,5.47-9a12.59,12.59,0,0,0-2.85-9,13.88,13.88,0,0,0-3.31-3,13.4,13.4,0,0,0-3.8-1.69,16.85,16.85,0,0,0-7.41-.28,21.56,21.56,0,0,0-5.56,1.77c-2.95,1.4-4.39,2.65-4.67,2.36s.77-2,3.68-4a19.63,19.63,0,0,1,5.9-2.81,18.68,18.68,0,0,1,8.84-.45,16.52,16.52,0,0,1,5,1.84,17.35,17.35,0,0,1,4.49,3.68,18,18,0,0,1,3.25,5.35,15.23,15.23,0,0,1-1.19,13.55,23.56,23.56,0,0,1-4.58,5.46,51.72,51.72,0,0,1-5.53,4.27c-1.9,1.29-3.86,2.47-5.83,3.73l-7.23,4.54-.06,0h-.06l-.17.07s0,0,.1.06l.14,0,2.41.13,9.62.54c6.08.36,11.48.74,16,1.11C1833.68,1649.74,1839,1650.47,1839,1651Z"/><path class="cls-1" d="M1856.73,1609.78c-.08-.14.16-.49.84-1a6.24,6.24,0,0,1,3.48-.86c3.18.06,7.66,2.26,10.57,7.1a25.22,25.22,0,0,1,2.73,18.57,25.53,25.53,0,0,1-4.92,10.28,21.35,21.35,0,0,1-10.21,7.19,14.91,14.91,0,0,1-6.71.55,14.7,14.7,0,0,1-6.11-2.46,18.93,18.93,0,0,1-6.91-9.51,23,23,0,0,1-.79-10.31,36.15,36.15,0,0,1,2.25-8.36c.47-1.22,1-2.34,1.47-3.39l.37-.77.42-.8q.44-.77.92-1.44a11.3,11.3,0,0,1,4.23-3.75,4.33,4.33,0,0,1,3.72-.19,2.05,2.05,0,0,1,.77.57c.14.17.18.28.14.36-.17.38-1.72-.57-3.66.95a10.86,10.86,0,0,0-2.83,3.55q-.32.61-.6,1.27l-.26.68-.27.78c-.36,1-.73,2.16-1.07,3.33a37,37,0,0,0-1.47,7.65,19.78,19.78,0,0,0,1,8.35,14.73,14.73,0,0,0,5.33,7,9.77,9.77,0,0,0,8.59,1.17,17,17,0,0,0,7.88-5.51,21.82,21.82,0,0,0,4.25-8.29,22.73,22.73,0,0,0-1.35-15.75,13.86,13.86,0,0,0-3.71-4.77,10.19,10.19,0,0,0-4-2.11C1858.39,1609.32,1856.92,1610.16,1856.73,1609.78Z"/><path class="cls-1" d="M1887.1,1645c-1.37-.34-.48-8.56.26-18.6s1.14-18.3,2.55-18.42c.68,0,1.48,2,2,5.4a63.24,63.24,0,0,1-2,26.58C1888.86,1643.27,1887.76,1645.17,1887.1,1645Z"/><path class="cls-1" d="M1922.91,1642.67c.17,0,.32.27.58.25a1,1,0,0,0,.47-.08.27.27,0,0,0,.15-.14s0-.12.07-.22a3.68,3.68,0,0,0,.12-1c0-.45,0-1.1.06-1.72.06-1.27.19-2.72.39-4.31a75.89,75.89,0,0,1,7.5-23.89l.81-1.57.18-.32,0-.08h0s0,0,0,0,0,0-.06-.06l-3.14-.17c-4.15-.24-7.88-.53-11-.84-6.27-.63-10.13-1.36-10.11-2.05s3.92-1.21,10.21-1.48c3.15-.14,6.89-.22,11-.23h3.23l6.58.12.85,0h.64c.06,0,0,.11-.05.16l-.81,1.47-1.62,2.93-1.54,2.79-.82,1.61a122.35,122.35,0,0,0-8.5,22.35c-.42,1.49-.79,2.84-1.1,4l-.48,1.72a4.2,4.2,0,0,1-.92,1.73,2.36,2.36,0,0,1-.87.58,1.86,1.86,0,0,1-.91.08,1.73,1.73,0,0,1-1.11-.64.87.87,0,0,1-.17-.8C1922.72,1642.7,1922.83,1642.65,1922.91,1642.67Z"/><path class="cls-1" d="M1937,1627c.08-.23.29-.43.28-.68a.49.49,0,0,0-.09-.33c-.09-.07.06,0,.12,0a.42.42,0,0,0,.14,0l.79,1.08a64.39,64.39,0,0,1-10.84,2.24c-7.06,1-12.94,1.43-13.31.09s5.2-4,12.6-5a33.3,33.3,0,0,1,11.41.06l1.2.29.12.61a1.89,1.89,0,0,1-.59,1.85,1.66,1.66,0,0,1-1.09.43C1937.09,1627.62,1936.92,1627.2,1937,1627Z"/><path class="cls-5" d="M1382.67,1750H1030.75a19.25,19.25,0,0,1-19.25-19.25v-257a19.25,19.25,0,0,1,19.25-19.25h440.5a19.25,19.25,0,0,1,19.25,19.25v227.92"/><text class="cls-6" transform="translate(1144 1498.22)">IDENTITY CARD</text><text class="cls-7" transform="translate(1144 1534.84)">987654321</text><text class="cls-8" transform="translate(1144 1574.45)">First name</text><text class="cls-8" transform="translate(1331 1574.45)">Last name</text><text class="cls-7" transform="translate(1144 1605.17)">Jane</text><text class="cls-7" transform="translate(1333 1605.17)">Doe</text><text class="cls-8" transform="translate(1144 1647.79)">Sex</text><text class="cls-7" transform="translate(1219 1650.83)">F</text><text class="cls-8" transform="translate(1144 1695.79)">DOB</text><text class="cls-7" transform="translate(1217 1694.83)">01/01/1969</text><path class="cls-1" d="M1121,1562.6a2,2,0,0,1,0,.37l.09,1.08c.06.95.17,2.34.35,4.13.31,3.59.55,8.81.56,15.26,0,1.61,0,3.3,0,5.07a23.48,23.48,0,0,1-2,8.17c-.38.91-.82,1.8-1.13,2.74a14.33,14.33,0,0,0-.52,3c-.11,1-.22,2.08-.39,3.14a38.11,38.11,0,0,1-4.48,12.61,32.59,32.59,0,0,1-4.13,5.79,29.49,29.49,0,0,1-5.57,4.76,34.11,34.11,0,0,1-6.54,3.37,17.36,17.36,0,0,1-7.13-.2,44.68,44.68,0,0,1-12.49-4.85,41.35,41.35,0,0,1-9.51-7.51c-2.65-2.69-5.35-5-7.31-7.61a34.53,34.53,0,0,1-6.52-13.73,41.07,41.07,0,0,1-.89-5.53,1.94,1.94,0,0,1,.08.36l.18,1.06c.16.93.39,2.31.82,4.06a35,35,0,0,0,6.61,13.55c2,2.55,4.65,4.84,7.32,7.53a41.14,41.14,0,0,0,9.44,7.4,44.44,44.44,0,0,0,12.35,4.77,16.93,16.93,0,0,0,6.9.2,34.26,34.26,0,0,0,6.37-3.3,29.06,29.06,0,0,0,5.47-4.68,32.2,32.2,0,0,0,4.07-5.7,37.79,37.79,0,0,0,4.45-12.44c.17-1,.29-2.08.4-3.12a14.7,14.7,0,0,1,.55-3.06c.32-1,.77-1.88,1.15-2.77a23.16,23.16,0,0,0,2-8c0-1.74.06-3.44.07-5,0-6.44-.14-11.65-.4-15.24-.15-1.79-.23-3.19-.26-4.14l0-1.08A1.93,1.93,0,0,1,1121,1562.6Z"/><path class="cls-1" d="M1090.53,1598.56s-.14,0-.37-.08a3.27,3.27,0,0,1-.92-.47,3.38,3.38,0,0,1-1-1.17,3.3,3.3,0,0,1-.26-1.92,5.58,5.58,0,0,1,1.62-3c.63-.61,1.15-.82,1.17-.77s-.38.37-.9,1a6.21,6.21,0,0,0-1.38,2.81,3,3,0,0,0,.18,1.64,3.45,3.45,0,0,0,.85,1.09,5.42,5.42,0,0,0,.78.58C1090.44,1598.44,1090.54,1598.53,1090.53,1598.56Z"/><path class="cls-1" d="M1102.45,1598.22s.07-.08.21-.17l.27-.17.32-.28a2.39,2.39,0,0,0,.6-1,4.05,4.05,0,0,0,.09-1.53c-.29-2.35-1.92-5.26-3.19-8.72a18.46,18.46,0,0,1-.84-9.32,11.85,11.85,0,0,1,.88-2.72,3.53,3.53,0,0,1,.53-.9,22,22,0,0,0-1,3.69,19.41,19.41,0,0,0,1,9.09c1.23,3.38,2.85,6.37,3.06,8.85a4.18,4.18,0,0,1-.18,1.66,2.48,2.48,0,0,1-.73,1c-.14.1-.26.2-.38.26l-.31.13C1102.55,1598.21,1102.46,1598.23,1102.45,1598.22Z"/><path class="cls-1" d="M1092.47,1597.11a1.55,1.55,0,0,1-.51-.35.6.6,0,0,1-.17-.31.42.42,0,0,1,.2-.37,2.45,2.45,0,0,1,.9-.34,9.56,9.56,0,0,1,1.14-.16l.64,0c.25.05.45.09.69.16a2.47,2.47,0,0,1,1.26.8,4.19,4.19,0,0,1,.51,1.5,1,1,0,0,0,.41.58,1.67,1.67,0,0,0,.68.22,2.08,2.08,0,0,0,1.32-.33,7.75,7.75,0,0,0,1.75-1.67c.44-.54.8-1,1.08-1.27a2.36,2.36,0,0,1,.47-.39s-.16.15-.41.45-.59.75-1,1.31a7.54,7.54,0,0,1-1.77,1.74,2.26,2.26,0,0,1-1.44.36,1.85,1.85,0,0,1-.77-.25,1.25,1.25,0,0,1-.49-.69,4.16,4.16,0,0,0-.47-1.44,2.3,2.3,0,0,0-1.16-.73c-.21-.07-.45-.12-.63-.16l-.63,0a10.12,10.12,0,0,0-1.13.14,2.42,2.42,0,0,0-.86.29.32.32,0,0,0,0,.53C1092.29,1597,1092.49,1597.1,1092.47,1597.11Z"/><path class="cls-9" d="M1084.54,1610.57c.88-.85,8.07-2.94,9.8-3.92s2.26.67,3.84.58,1-.87,2.9-.87,5.3,1.66,5.69,2.32-1.68,2.27-6.36,1.82S1087.39,1612.31,1084.54,1610.57Z"/><path class="cls-9" d="M1084.54,1610.57c.9,1.16,5.32,4.69,7.5,4.79a30.58,30.58,0,0,0,3.59-.11c.87,0,1.42.8,3.37.36s7.47-2.13,5.15-5.1"/><path class="cls-1" d="M1039.91,1567a6.47,6.47,0,0,1-.54-.68c-.33-.47-.8-1.18-1.35-2.15s-1.19-2.2-1.89-3.68a22.21,22.21,0,0,1-1.95-5.31c-.8-4.21-.52-9.54.86-15.47a39.28,39.28,0,0,1,3.33-9.17,45.52,45.52,0,0,1,2.86-4.52,49.69,49.69,0,0,1,3.41-4.49A35.7,35.7,0,0,1,1054,1514a65.83,65.83,0,0,1,12.06-5.25c4.31-1.38,8.87-2.9,13.79-3a35.41,35.41,0,0,1,14.74,2.69,45.85,45.85,0,0,1,13.36,8.5c.5.45,1,.93,1.48,1.41l.71.74.35.38c.09.1,0,0,.07.06l.25.07a10.12,10.12,0,0,1,3.81,1.74,17,17,0,0,1,5.15,6.65c2.41,5.17,3.44,10.95,4,16.77.13,1.46.22,2.93.27,4.41s.24,2.93.43,4.4.42,2.94.75,4.38a16.3,16.3,0,0,0,.62,2.12,5.42,5.42,0,0,0,.47,1,1.82,1.82,0,0,0,.31.38.66.66,0,0,0,.19.13,5.18,5.18,0,0,0,.6.14l-.65.88-.45.58a9.1,9.1,0,0,1-1,1.08,3.49,3.49,0,0,1-2.83,1,1.33,1.33,0,0,1-.79-.37,2.51,2.51,0,0,1-.46-.67,7.3,7.3,0,0,1-.46-1.44c-.21-1-.34-1.94-.47-2.91-.48-3.88-1-7.78-1.81-11.65-.66-3.25-1.68-6.53-3.88-8.95a8.59,8.59,0,0,0-4.05-2.48,11.26,11.26,0,0,0-4.77-.16,26,26,0,0,0-8.89,3.6,44.53,44.53,0,0,0-7.64,5.67,56.89,56.89,0,0,0-6.21,7c-1.9,2.44-3.58,5.05-5.61,7.35a56.46,56.46,0,0,1-6.45,6.38c-1.14,1-2.32,1.88-3.53,2.73a23.72,23.72,0,0,1-3.82,2.26,8.34,8.34,0,0,1-4.36.69,5.93,5.93,0,0,1-2.08-.8,9.86,9.86,0,0,1-1.72-1.41l-.67-.74-.34-.37-.08-.09c-.05,0,0-.05,0,0l.24.07,1.66.49a16.37,16.37,0,0,0,2,.38,7.88,7.88,0,0,0,4-.54,14.56,14.56,0,0,0,3.37-2.21l1.55-1.3a18.06,18.06,0,0,0,1.49-1.32,17,17,0,0,0,2.31-3.16q.51-.84,1-1.7c.31-.57.6-1.15.88-1.73,2.26-4.65,4-9.33,5.75-13.81l.66-1.67.31-.76c0-.05.09-.17.05-.17l-.09.06-.14.1-.69.53-1.36,1.08c-1.79,1.45-3.49,2.92-5.13,4.38-3.28,2.93-6.29,5.85-9,8.73s-5.16,5.72-7.41,8.39l-3.21,3.91c-1,1.25-2,2.5-3,3.59a3.92,3.92,0,0,1-.43.38,1.08,1.08,0,0,1-.28.15.34.34,0,0,1-.36-.05,2.67,2.67,0,0,1-.28-.52c-.08-.16-.17-.31-.26-.47a12.22,12.22,0,0,0-1.21-1.69,9.7,9.7,0,0,0-3-2.43,5,5,0,0,0-3.31-.53,2.68,2.68,0,0,0-1.3.76,4.06,4.06,0,0,0-.73,1.24,41.7,41.7,0,0,0-1,4.67,6,6,0,0,0,.41,2.87l.27.7c.06.16.09.24.09.24a8.25,8.25,0,0,1-.41-.92,5.91,5.91,0,0,1-.47-2.9c.13-.64.25-1.35.38-2.14a14.6,14.6,0,0,1,.6-2.56,4.21,4.21,0,0,1,.75-1.3,2.85,2.85,0,0,1,1.39-.82,5.22,5.22,0,0,1,3.44.52,9.89,9.89,0,0,1,3,2.46,12.43,12.43,0,0,1,1.25,1.71c.09.16.18.31.27.48s.17.4.22.44.2,0,.35-.11a3.71,3.71,0,0,0,.4-.36c1-1.07,2-2.32,3-3.58l3.2-3.93c2.24-2.69,4.67-5.54,7.39-8.43s5.73-5.83,9-8.77c1.64-1.47,3.35-2.95,5.14-4.41l1.36-1.09.7-.53.25-.18.31-.21c.21-.15.38-.24.58-.37,0,0,.13-.09.13-.06l-.05.15-.11.31c-.06.2-.19.47-.28.7l-.36.89-.65,1.67c-1.73,4.48-3.48,9.18-5.74,13.86-.28.58-.57,1.17-.89,1.75s-.62,1.16-1,1.72a17.41,17.41,0,0,1-2.37,3.25,18.53,18.53,0,0,1-1.52,1.35l-1.56,1.31a15,15,0,0,1-3.48,2.28,8.34,8.34,0,0,1-4.2.58,16.8,16.8,0,0,1-2.1-.39l-.36-.11s0,0,0,.06a6.57,6.57,0,0,0,3.48,2,7.89,7.89,0,0,0,4.1-.66,23.38,23.38,0,0,0,3.72-2.22c1.2-.84,2.37-1.75,3.5-2.71a56,56,0,0,0,6.39-6.33c2-2.27,3.68-4.86,5.59-7.33a57.34,57.34,0,0,1,6.26-7.08,45,45,0,0,1,7.72-5.74,26.48,26.48,0,0,1,9.07-3.67,11.77,11.77,0,0,1,5,.17,9.11,9.11,0,0,1,4.29,2.63c2.32,2.54,3.34,5.92,4,9.19.85,3.89,1.34,7.82,1.81,11.69.13,1,.26,1.93.46,2.86a6.84,6.84,0,0,0,.42,1.33c.2.41.45.73.85.76a3,3,0,0,0,2.41-.91,8.59,8.59,0,0,0,1-1l.44-.56.2-.27h0a1.08,1.08,0,0,1-.27-.19,2.31,2.31,0,0,1-.4-.49,5.9,5.9,0,0,1-.52-1.06,16.78,16.78,0,0,1-.64-2.19c-.34-1.47-.57-3-.76-4.43s-.34-2.95-.43-4.44-.14-2.93-.27-4.38c-.54-5.78-1.57-11.52-3.93-16.6a16.54,16.54,0,0,0-5-6.46,9.64,9.64,0,0,0-3.63-1.66l-.24-.06-.1,0s-.09,0-.11,0l-.12-.14-.34-.37-.7-.73c-.48-.48-1-.94-1.46-1.39a45.42,45.42,0,0,0-13.21-8.42,35,35,0,0,0-14.56-2.68c-4.85.1-9.37,1.6-13.68,3a65.59,65.59,0,0,0-12,5.19,35.38,35.38,0,0,0-9.31,7.52,49.49,49.49,0,0,0-3.4,4.45,45.35,45.35,0,0,0-2.85,4.48,39.11,39.11,0,0,0-3.34,9.09,38.54,38.54,0,0,0-.94,15.37,22.26,22.26,0,0,0,1.9,5.29c.68,1.49,1.3,2.72,1.84,3.7A21.87,21.87,0,0,0,1039.91,1567Z"/><path class="cls-9" d="M1054,1596.39c0,1.15-2.23,4.37-6.91-.84a22.07,22.07,0,0,1-5.51-10.13"/><path class="cls-1" d="M1120,1567a19.84,19.84,0,0,0-2.23-1.39,6.89,6.89,0,0,0-1.23-.43,7,7,0,0,0-.71-.14,3.68,3.68,0,0,0-.72,0,13.52,13.52,0,0,0-3.32.94,46.55,46.55,0,0,0-5.76,2.82c-1.43.81-2.23,1.43-2.3,1.36s.64-.86,2-1.79a30.69,30.69,0,0,1,5.76-3.06,12.54,12.54,0,0,1,3.53-.93,4.11,4.11,0,0,1,.87,0,7,7,0,0,1,.76.19,6.6,6.6,0,0,1,1.29.55C1119.5,1566,1120.07,1567,1120,1567Z"/><path class="cls-1" d="M1071,1566.39a5.14,5.14,0,0,1,2.83-.51,27.27,27.27,0,0,1,6.83,1.13c5.22,1.42,9.15,3.45,9,3.68a21.86,21.86,0,0,1-2.69-.92c-1.65-.58-3.95-1.36-6.52-2.06a37,37,0,0,0-6.66-1.32C1072.07,1566.23,1071,1566.51,1071,1566.39Z"/><path class="cls-9" d="M1069.33,1574.61c1.55-1.24,5-4.35,9.07-4a13.85,13.85,0,0,1,6.72,2.46"/><path class="cls-9" d="M1104.38,1571.66c1.43-1.08,7.46-4.15,12-.51"/><path class="cls-1" d="M1102.28,1576.13a16.42,16.42,0,0,1,2.74-3.4,8.15,8.15,0,0,1,4-2c.38,0,.76-.12,1.14-.13l1.15,0,1.12.24a7,7,0,0,1,1.06.4,10.72,10.72,0,0,1,3.55,2.64l-.06.08c-.68-.3-1.29-.68-1.92-1a19,19,0,0,0-1.93-.81,15.06,15.06,0,0,0-2-.59l-1-.12c-.34,0-.68,0-1,0a7.5,7.5,0,0,0-3.78,1.59,16.13,16.13,0,0,0-3,3.08Z"/><path class="cls-1" d="M1102.81,1575.49a3.18,3.18,0,0,0,1.68-.32.61.61,0,0,1,.47,0l.41.14c.28.09.56.16.84.22a10.47,10.47,0,0,0,3.44.18,11.17,11.17,0,0,0,3.26-1,34.75,34.75,0,0,0,3.09-1.62l0,0a14.6,14.6,0,0,1-2.93,2,9,9,0,0,1-3.41,1,10.77,10.77,0,0,1-3.52-.31,8.72,8.72,0,0,1-.84-.27l-.41-.16a.46.46,0,0,0-.38,0,3.21,3.21,0,0,1-1.73.23Z"/><circle class="cls-10" cx="1109.28" cy="1573.53" r="2.43" transform="translate(-221.11 181.93) rotate(-8.53)"/><path class="cls-1" d="M1107.59,1575.95a1.43,1.43,0,0,0,.8.64c.07,0,.09-.08,0-.1a1.29,1.29,0,0,1-.74-.59c0-.06-.13,0-.09.05Z"/><path class="cls-1" d="M1109.67,1576a2.61,2.61,0,0,0,1.22.55c.07,0,.1-.09,0-.1a2.51,2.51,0,0,1-1.18-.52c-.05,0-.13,0-.08.08Z"/><path class="cls-1" d="M1111.41,1575.62a1.78,1.78,0,0,0,1,.33.05.05,0,0,0,0-.11,1.7,1.7,0,0,1-1-.32c-.06,0-.11.05-.05.09Z"/><path class="cls-1" d="M1113.1,1574.89a1.75,1.75,0,0,0,.87.19.05.05,0,0,0,0-.11,1.65,1.65,0,0,1-.81-.17c-.06,0-.12.06-.05.09Z"/><path class="cls-1" d="M1105.7,1572.39a1.71,1.71,0,0,0,.54-.91c0-.07-.09-.1-.1,0a1.6,1.6,0,0,1-.51.87c-.05,0,0,.12.08.08Z"/><path class="cls-1" d="M1107.57,1571.44a2.19,2.19,0,0,0,.74-1.05c0-.07-.08-.09-.1,0a2.09,2.09,0,0,1-.72,1c-.05,0,0,.12.08.08Z"/><path class="cls-1" d="M1110.3,1570.94a3,3,0,0,0,.9-1c0-.06-.06-.11-.09-.05a2.85,2.85,0,0,1-.86,1c-.06,0,0,.13.05.09Z"/><path class="cls-1" d="M1112.59,1571.2a1.67,1.67,0,0,0,1.48-.88c0-.06-.05-.11-.09-.05a1.57,1.57,0,0,1-1.39.83c-.07,0-.07.1,0,.11Z"/><path class="cls-1" d="M1114.85,1572.11c.53,0,1-.05,1.25-.58,0-.06-.06-.12-.09-.05-.24.48-.68.5-1.15.53-.07,0-.07.11,0,.11Z"/><path class="cls-1" d="M1086,1577.14a16.12,16.12,0,0,0-3.31-2.71,7.5,7.5,0,0,0-3.94-1.14c-.34,0-.68,0-1,.09l-1,.24a15.06,15.06,0,0,0-1.88.81,19.06,19.06,0,0,0-1.83,1c-.6.38-1.16.83-1.8,1.2l-.07-.07a10.72,10.72,0,0,1,3.22-3,7,7,0,0,1,1-.52l1.09-.37,1.14-.17c.38,0,.77,0,1.15,0a8.15,8.15,0,0,1,4.19,1.52,16.41,16.41,0,0,1,3.12,3.06Z"/><path class="cls-1" d="M1085.45,1576.54a3.21,3.21,0,0,1-1.74,0,.46.46,0,0,0-.37.09l-.39.21a8.74,8.74,0,0,1-.81.36,10.77,10.77,0,0,1-3.46.72,9,9,0,0,1-3.51-.6,14.6,14.6,0,0,1-3.13-1.62l0,0a34.76,34.76,0,0,0,3.25,1.25,11.17,11.17,0,0,0,3.36.66,10.47,10.47,0,0,0,3.4-.58c.27-.09.54-.2.81-.32l.39-.19a.61.61,0,0,1,.46-.08,3.18,3.18,0,0,0,1.7.13Z"/><circle class="cls-10" cx="1078.77" cy="1575.3" r="2.43" transform="translate(-530.99 2601.94) rotate(-88.12)"/><path class="cls-1" d="M1080.63,1577.46a1.32,1.32,0,0,1-.67.68c-.06,0,0,.12.05.09a1.42,1.42,0,0,0,.71-.72c0-.06-.06-.12-.09-.05Z"/><path class="cls-1" d="M1078.59,1577.76a2.45,2.45,0,0,1-1.11.66.05.05,0,0,0,0,.1,2.59,2.59,0,0,0,1.15-.69s0-.12-.08-.08Z"/><path class="cls-1" d="M1076.82,1577.54a1.7,1.7,0,0,1-.93.42c-.07,0,0,.11,0,.1a1.78,1.78,0,0,0,1-.45c.05,0,0-.12-.08-.08Z"/><path class="cls-1" d="M1075.08,1577a1.58,1.58,0,0,1-.78.27c-.07,0-.07.11,0,.11a1.72,1.72,0,0,0,.84-.28c.06,0,0-.13-.05-.09Z"/><path class="cls-1" d="M1082.26,1573.67a1.58,1.58,0,0,1-.6-.79c0-.06-.13,0-.1,0a1.73,1.73,0,0,0,.65.85c.06,0,.11-.05.05-.09Z"/><path class="cls-1" d="M1080.28,1572.94a2.07,2.07,0,0,1-.83-.92c0-.06-.12,0-.09.05a2.19,2.19,0,0,0,.86,1c.06,0,.11-.06.05-.09Z"/><path class="cls-1" d="M1077.5,1572.75a2.85,2.85,0,0,1-1-.87c0-.06-.13,0-.09.05a3,3,0,0,0,1,.91.05.05,0,0,0,.05-.09Z"/><path class="cls-1" d="M1075.19,1573.27a1.57,1.57,0,0,1-1.47-.67s-.12,0-.08.08a1.67,1.67,0,0,0,1.58.7c.07,0,0-.12,0-.1Z"/><path class="cls-1" d="M1073.06,1574.43c-.47,0-.91.08-1.21-.38,0-.06-.13,0-.09.05.32.5.76.47,1.3.44.07,0,.07-.11,0-.11Z"/><path class="cls-1" d="M1052.34,1594.4a2.28,2.28,0,0,1-1.81,2.5,2.44,2.44,0,0,1-1.77-.26,2.14,2.14,0,0,1-.5-3.33,2.45,2.45,0,0,1,1.61-.77A2.28,2.28,0,0,1,1052.34,1594.4Zm0,0a2.11,2.11,0,1,0-1.8,2.26A2.06,2.06,0,0,0,1052.29,1594.41Z"/><path class="cls-1" d="M1050.31,1588.29a5.59,5.59,0,0,0-.89-1.29,10.63,10.63,0,0,0-1.35-1.08,8.65,8.65,0,0,1-1.71-1.43,1.87,1.87,0,0,1-.42-1.19,3.21,3.21,0,0,1,.22-1.1,9.35,9.35,0,0,1,.84-1.6,6.81,6.81,0,0,1,.94-1.34,4.22,4.22,0,0,1-.62,1.52,12.42,12.42,0,0,0-.7,1.58,1.82,1.82,0,0,0,.16,1.81,10,10,0,0,0,1.58,1.36,8.37,8.37,0,0,1,1.33,1.22C1050.4,1587.56,1050.37,1588.3,1050.31,1588.29Z"/><path class="cls-1" d="M1040,1577.71c-.05.05-.6-.53-1-1.71a7.43,7.43,0,0,1-.33-2.14,5.94,5.94,0,0,1,.47-2.65,1.88,1.88,0,0,1,1.15-.94,2.81,2.81,0,0,1,1.35-.06,6.15,6.15,0,0,1,2,.79c1.07.62,1.52,1.31,1.45,1.34a16.88,16.88,0,0,0-1.63-1,6.58,6.58,0,0,0-1.93-.64,1.78,1.78,0,0,0-2,.79,6,6,0,0,0-.44,2.4,8.27,8.27,0,0,0,.21,2A19,19,0,0,0,1040,1577.71Z"/><path class="cls-1" d="M1045.55,1591.17c-.17,0-.14-1.1-.66-2.22a6.85,6.85,0,0,0-.9-1.34c-.27-.34-.42-.58-.36-.63s.28.09.63.37a4,4,0,0,1,1.1,1.37A2.91,2.91,0,0,1,1045.55,1591.17Z"/><path class="cls-1" d="M1106,1521.76c0,.06-1-.4-2.77-1a33,33,0,0,0-7.8-1.8,29.6,29.6,0,0,0-11.71,1.2,37.05,37.05,0,0,0-12.56,7.11,61.72,61.72,0,0,0-9.89,10.67,97.48,97.48,0,0,0-6.52,10c-.87,1.46-1.59,2.82-2.23,4s-1.19,2.22-1.61,3.07l-1,1.95a3.09,3.09,0,0,1-.4.66,3.05,3.05,0,0,1,.27-.72l.89-2c.39-.87.88-1.93,1.51-3.14s1.3-2.59,2.15-4.08a90.1,90.1,0,0,1,6.43-10.14,60.37,60.37,0,0,1,10-10.83,37,37,0,0,1,12.83-7.19,29.42,29.42,0,0,1,12-1.07,30.42,30.42,0,0,1,7.84,2c.89.36,1.56.68,2,.91A3.06,3.06,0,0,1,1106,1521.76Z"/><path class="cls-1" d="M1055.2,1556.95a15.83,15.83,0,0,1,1.06-2.22l1.33-2.56.84-1.59,1.08-1.71c.77-1.19,1.58-2.52,2.51-3.9l3.24-4.24c1.22-1.42,2.58-2.86,4-4.36l2.31-2.1,1.19-1.07c.42-.34.86-.65,1.29-1,6.86-5.39,14.69-7.92,20.37-8.18a31.3,31.3,0,0,1,3.84,0,25.9,25.9,0,0,1,2.87.38l1,.22.74.24a2.1,2.1,0,0,1,.59.24,2.18,2.18,0,0,1-.63-.09l-.75-.17-1-.15c-.77-.15-1.74-.17-2.85-.26a33.89,33.89,0,0,0-3.78.14c-5.58.39-13.21,2.94-20,8.24-.43.32-.86.63-1.27,1l-1.17,1.06-2.29,2.06c-1.38,1.48-2.73,2.89-4,4.28l-3.26,4.16c-.94,1.36-1.78,2.66-2.56,3.83l-1.12,1.67-.89,1.56-1.44,2.49A16,16,0,0,1,1055.2,1556.95Z"/><path class="cls-1" d="M1122.15,1548.33c-.11,0-.14-1.58-.57-4.08l-.45-2c-.23-.7-.39-1.49-.72-2.26a18.42,18.42,0,0,0-2.53-4.76,14.77,14.77,0,0,0-3.88-3.7,11.9,11.9,0,0,0-1-.61,6.21,6.21,0,0,0-1-.5l-1-.41-.95-.28c-2.44-.66-4-.58-4-.71a4.54,4.54,0,0,1,1.11,0,7.19,7.19,0,0,1,1.3.09,10.74,10.74,0,0,1,1.71.3l1,.25,1,.39a6.34,6.34,0,0,1,1.07.49,11.87,11.87,0,0,1,1.09.61,14.67,14.67,0,0,1,4,3.79,18,18,0,0,1,2.57,4.9c.32.79.47,1.59.69,2.31s.28,1.43.39,2.06a25.21,25.21,0,0,1,.24,3A4.56,4.56,0,0,1,1122.15,1548.33Z"/><path class="cls-1" d="M1121.21,1537.12c-.07,0-.38-.84-1.06-2.14a23.51,23.51,0,0,0-3.2-4.72c-2.92-3.43-6.44-4.8-6.33-5s.23,0,.62.19a10.34,10.34,0,0,1,1.59.76,16.87,16.87,0,0,1,4.51,3.69,19.28,19.28,0,0,1,3.14,4.9A6.6,6.6,0,0,1,1121.21,1537.12Z"/><path class="cls-1" d="M1363.5,1848.5a10.45,10.45,0,0,1-1.58-2.21c-.45-.77-1.07-1.7-1.69-2.88l-1-1.9-1.06-2.24a61.21,61.21,0,0,1-5.32-30.06,82.36,82.36,0,0,1,4.68-21.74l1.07-2.9.54-1.47c.2-.49.43-1,.64-1.45l2.68-5.92a87.49,87.49,0,0,1,7.17-11.8c11.17-15.48,27.72-29.92,47.87-42.62a196.83,196.83,0,0,1,33.41-16.9c3-1.2,6.2-2.22,9.41-3.2a90.34,90.34,0,0,1,10-2.31l2.6-.35c.87-.12,1.78-.13,2.66-.19s1.78,0,2.67,0,1.78,0,2.65.11a84,84,0,0,1,10.5,1.46c13.88,2.85,27.57,7.74,41.37,13.34s27.68,12.13,41.6,19.45c7,3.69,13.92,7.52,20.76,12,.86.55,1.71,1.15,2.56,1.74l2.44,1.6c1.58,1.09,3.35,2,5.07,3s3.52,1.9,5.3,2.84,3.59,1.85,5.43,2.74c7.29,3.61,14.81,7,22.43,10.4s15.37,6.69,23.2,10,15.77,6.55,23.79,9.77l6.05,2.42a4.29,4.29,0,0,1,.53.25l.37.19.74.39,1.48.77c1,.52,2,1,2.95,1.57a100.42,100.42,0,0,1,11.26,7.39,74,74,0,0,1,18.56,20,67.3,67.3,0,0,1,9.4,26.09,90.8,90.8,0,0,1-.5,27.56c-.35,2.24-.77,4.47-1.21,6.67s-.94,4.33-1.16,6.36a53,53,0,0,0,.19,12.62c.48,4.28,1.14,8.64,1.65,13s.94,8.75,1.2,13.13l.18,3.28,0,3.35c0,1.12,0,2.21-.08,3.32s-.07,2.21-.17,3.3c-.28,4.38-.88,8.68-1.5,12.94-1.33,8.5-3.09,16.81-4.85,25-.87,4.09-1.75,8.14-2.49,12.15-.19,1-.37,2-.51,3s-.31,2-.4,2.95c-.24,1.91-.3,4-.43,6-.86,16.32-1.49,32.34-2.07,48-1.12,31.25-1.94,61-2,88.74,0,6.94,0,13.77.18,20.46s.37,13.25,1,19.58c.15,1.58.34,3.14.58,4.66a15.14,15.14,0,0,0,1.09,4c1.41,2.86,2.75,5.7,4.06,8.51,2.62,5.63,5.12,11.14,7.57,16.54,4.89,10.78,9.47,21.08,14,30.7l1.7,3.56c.27.61.59,1.11.9,1.66s.58,1.07.94,1.59c.72,1,1.39,2.09,2.13,3.1l2.25,3c3.1,3.89,6.2,7.6,9.33,11.09,12.45,14,23.87,25.49,33.19,34.86s16.72,16.5,21.69,21.39c2.49,2.44,4.39,4.3,5.64,5.57a1.36,1.36,0,1,1-.35.38c-1.36-1.15-3.38-2.89-6-5.21-5.2-4.65-12.79-11.58-22.37-20.73s-21.18-20.47-33.92-34.39q-4.79-5.2-9.59-11.1l-2.35-3c-.78-1-1.51-2.14-2.28-3.22-.38-.54-.7-1.17-1.06-1.75s-.72-1.2-1-1.78l-1.76-3.58c-4.65-9.63-9.33-19.87-14.32-30.6-2.49-5.36-5-10.85-7.7-16.43-1.33-2.79-2.69-5.6-4.09-8.4l-.13-.27-.15-.35c-.1-.23-.21-.48-.28-.7-.13-.43-.29-.88-.38-1.29-.22-.84-.37-1.67-.53-2.49-.27-1.64-.48-3.27-.65-4.9-.67-6.53-.93-13.13-1.14-19.87s-.29-13.59-.32-20.55c-.1-27.87.57-57.62,1.56-88.91.52-15.65,1.1-31.67,1.91-48.06.13-2.06.17-4.09.43-6.26.1-1.09.25-2.14.42-3.18s.33-2.09.52-3.12c.75-4.13,1.62-8.21,2.48-12.3,1.74-8.17,3.45-16.39,4.74-24.71.6-4.16,1.16-8.34,1.43-12.53.1-1,.12-2.09.16-3.14s.11-2.1.07-3.14l0-3.13-.18-3.2q-.4-6.4-1.19-12.83c-.51-4.3-1.17-8.6-1.67-13.06a57.77,57.77,0,0,1-.19-13.78l.24-1.75.32-1.7.66-3.28c.44-2.16.84-4.31,1.18-6.47a86,86,0,0,0,.48-26.05,62.35,62.35,0,0,0-8.7-24.19,69.15,69.15,0,0,0-17.32-18.71,95.63,95.63,0,0,0-10.68-7c-.92-.53-1.88-1-2.82-1.5l-2.67-1.4-6-2.42q-12.06-4.87-23.84-9.84c-7.85-3.32-15.62-6.65-23.27-10.07s-15.2-6.87-22.58-10.54c-1.85-.9-3.69-1.82-5.5-2.8s-3.65-1.87-5.43-2.93-3.59-2-5.33-3.2l-2.6-1.72c-.8-.56-1.58-1.12-2.41-1.65-6.57-4.31-13.48-8.15-20.33-11.82-13.74-7.3-27.5-13.8-41.11-19.46s-27.13-10.5-40.52-13.34a80.15,80.15,0,0,0-10-1.45,41,41,0,0,0-9.68.34,86.83,86.83,0,0,0-9.48,2.13c-3.1.92-6.16,1.89-9.14,3a194.93,194.93,0,0,0-32.92,16.3c-20,12.31-36.39,26.35-47.47,41.26a85.67,85.67,0,0,0-7.12,11.32l-2.71,5.74c-.22.47-.45.93-.65,1.41l-.55,1.43-1.09,2.81a81.71,81.71,0,0,0-5,21.08,62.06,62.06,0,0,0,.74,17.28,66,66,0,0,0,3.56,12.23c1.27,3.22,2.51,5.56,3.29,7.16A11.52,11.52,0,0,1,1363.5,1848.5Z"/></g><g id="brushes"><line class="cls-11" x1="2129.4" y1="382.6" x2="2307.6" y2="204.4"/><line class="cls-11" x1="2082.4" y1="314.4" x2="2145.5" y2="377.5"/></g></svg>